<svg xmlns="http://www.w3.org/2000/svg" width="81" height="86" viewBox="0 0 81 86"><path fill="#fff" d="M81 18.04L70.81 9.02 60.61 0 50.42 9.02l-10.19 9.02h11.15C47.63 41.46 26.31 59.67 2.05 55.8c-1.06-.17-1.5 1.28-.45 1.65 30.19 10.67 64.97-6.85 70-39.41z"/><path fill="#fff" d="M58.73 48A55.37 55.37 0 0 1 48 55.52v28.63h10.73zM32 84.38h10.73V58c-3.41 1.43-7 2.55-10.73 3.34zM63 84.51h10.73V21h-.27A49.75 49.75 0 0 1 63 42.64zM11.73 62.5A61.89 61.89 0 0 1 1 60v24.43h10.73zM17 85.47h10.73V63a61.08 61.08 0 0 1-10.73.35z"/></svg>