<svg xmlns="http://www.w3.org/2000/svg" width="82" height="85" viewBox="0 0 82 85"><path fill="#fff" d="M78.71 11.53L42.4.21a4.77 4.77 0 0 0-2.8 0L3.3 11.53A4.69 4.69 0 0 0 0 16.01c0 50.12 25.37 62.1 38.99 68.54a4.71 4.71 0 0 0 4.01 0c13.63-6.43 39-18.42 39-68.54a4.69 4.69 0 0 0-3.29-4.48zM41 75.13c-12.94-6.21-30.6-16.5-31.57-55.69L41 9.6l31.57 9.84C71.6 58.63 53.94 68.92 41 75.13z"/><path fill="#fff" d="M15 24.24c0 11.66 3.02 20.84 7.09 27.91l31.96-32.13L41.24 16zM40 69.92C48.92 65.86 65.72 52.26 66.1 24L29 61.56a47.32 47.32 0 0 0 11 8.36z"/></svg>