<svg xmlns="http://www.w3.org/2000/svg" width="86" height="72" viewBox="0 0 86 72"><path fill="#fff" d="M57.25 12.21c-.2-.21-.45-.36-.72-.44L40.34 6.62a11.44 11.44 0 0 0-11.82 2.69 6.78 6.78 0 0 0-1.43 1.99l-7.21 17.17c-.41.98-.27 2.29.38 3.59a6.94 6.94 0 0 0 4.59 3.69c2.24.55 4.56-.19 6.37-2.02.47-.48.88-1.01 1.12-1.46l2.42-4.55c.4-.76.98-1.54 1.59-2.16 2.08-2.1 3.07-1.14 3.49-.73 3.62 3.54 22.64 22.87 22.64 22.87.68.69.54 1.98-.31 2.84-.84.85-2.13 1-2.8.32l-5.34-5.41c-.69-.7-1.8-.7-2.49 0a1.8 1.8 0 0 0 0 2.52l5.34 5.41c.67.68.53 1.98-.31 2.83-.85.85-2.13 1-2.8.32l-5.35-5.41c-.69-.7-1.8-.7-2.49 0a1.8 1.8 0 0 0 0 2.52l5.35 5.41c.67.68.53 1.98-.32 2.83-.84.85-2.12 1-2.8.32l-5.34-5.41a1.76 1.76 0 0 0-2.49 0 1.8 1.8 0 0 0 0 2.52l5.34 5.41c.68.68.53 1.98-.31 2.83-.85.86-2.13 1-2.8.32l-6.51-6.59c.93-1.41.68-3.46-.7-4.86-1.54-1.56-3.92-1.71-5.29-.31 1.37-1.4 1.24-3.8-.31-5.36-1.55-1.56-3.92-1.71-5.29-.32 1.37-1.39 1.23-3.79-.32-5.35-1.54-1.56-3.91-1.71-5.29-.32 1.38-1.39 1.24-3.79-.31-5.35-1.45-1.47-3.6-1.67-5-.55L3.01 28.2c-.69-.7-1.81-.7-2.5 0a1.81 1.81 0 0 0 0 2.52l10.51 10.63L7.9 44.5c-1.37 1.39-1.23 3.79.32 5.36 1.54 1.56 3.91 1.71 5.29.31-1.38 1.4-1.24 3.79.31 5.36 1.54 1.56 3.92 1.71 5.29.31-1.37 1.4-1.23 3.79.31 5.36 1.55 1.57 3.92 1.71 5.3.32-1.38 1.39-1.24 3.78.31 5.35 1.54 1.56 3.91 1.71 5.29.31l3.29-3.32 6.46 6.53c2.06 2.09 5.55 1.94 7.78-.31a6.05 6.05 0 0 0 1.75-3.9 5.85 5.85 0 0 0 3.85-1.78 6.04 6.04 0 0 0 1.76-3.89 5.89 5.89 0 0 0 3.85-1.78 6.02 6.02 0 0 0 1.75-3.89 5.87 5.87 0 0 0 3.85-1.78c2.23-2.26 2.37-5.79.31-7.87l-2.72-2.76 11.18-11.32a1.8 1.8 0 0 0 0-2.52zM84.32 16.42L70.03 2.04a3.52 3.52 0 0 0-5 0l-5 5.03a3.58 3.58 0 0 0 0 5.02l14.3 14.39a3.52 3.52 0 0 0 4.99 0l5-5.03a3.6 3.6 0 0 0 0-5.03zm-7.5 7.33c-1.6 0-2.9-1.31-2.9-2.92 0-1.61 1.3-2.92 2.9-2.92a2.92 2.92 0 1 1 0 5.84z"/></svg>