<svg xmlns="http://www.w3.org/2000/svg" width="47" height="60" viewBox="0 0 47 60"><defs><radialGradient id="a" cx="1207.5" cy="1542.94" r="20.02" gradientUnits="userSpaceOnUse"><stop offset="0" stop-color="#6b93a1" stop-opacity=".2"/><stop offset="1" stop-color="#3ea8ac" stop-opacity="0"/></radialGradient><radialGradient id="b" cx="1204" cy="1528.59" r="2.71" gradientUnits="userSpaceOnUse"><stop offset="0" stop-color="#6b93a1" stop-opacity=".2"/><stop offset="1" stop-color="#3ea8ac" stop-opacity="0"/></radialGradient><radialGradient id="c" cx="1204.5" cy="1507.9" r=".68" gradientUnits="userSpaceOnUse"><stop offset="0" stop-color="#6b93a1" stop-opacity=".2"/><stop offset="1" stop-color="#3ea8ac" stop-opacity="0"/></radialGradient><radialGradient id="d" cx="1203.5" cy="1511.9" r=".68" gradientUnits="userSpaceOnUse"><stop offset="0" stop-color="#6b93a1" stop-opacity=".2"/><stop offset="1" stop-color="#3ea8ac" stop-opacity="0"/></radialGradient><radialGradient id="e" cx="1215" cy="1503.9" r=".68" gradientUnits="userSpaceOnUse"><stop offset="0" stop-color="#6b93a1" stop-opacity=".2"/><stop offset="1" stop-color="#3ea8ac" stop-opacity="0"/></radialGradient><radialGradient id="f" cx="1200.5" cy="1503.9" r=".68" gradientUnits="userSpaceOnUse"><stop offset="0" stop-color="#6b93a1" stop-opacity=".2"/><stop offset="1" stop-color="#3ea8ac" stop-opacity="0"/></radialGradient><radialGradient id="g" cx="1204.5" cy="1499.69" r="2.04" gradientUnits="userSpaceOnUse"><stop offset="0" stop-color="#6b93a1" stop-opacity=".2"/><stop offset="1" stop-color="#3ea8ac" stop-opacity="0"/></radialGradient></defs><path fill="#43b9da" d="M20 56c1.48 0 5 2 5 2s-.79-13.62 0-14c2.53-1.2 2-3.51 2-6.5a7.5 7.5 0 0 0-15 0c0 2.95 3 6.5 3 6.5v13s3.97-1 5-1z"/><path fill="#3b4047" d="M46.07 12.19c.51 0 .93-.42.93-.94V4.64C47 2.08 44.9 0 42.32 0H4.65A4.6 4.6 0 0 0 0 4.64v42.11a4.72 4.72 0 0 0 4.65 4.77h9.15v6.54c0 .32.17.63.44.8.28.17.62.19.91.04l4.56-2.3 4.55 2.3a.92.92 0 0 0 .91-.04.93.93 0 0 0 .44-.8v-6.54l16.71-.03A4.71 4.71 0 0 0 47 46.75v-6.6a.94.94 0 0 0-.93-.94h-6.53V12.19zm-.94-7.55v5.66h-5.59V4.71a2.8 2.8 0 0 1 5.59-.07zM24.24 42.77c-.13.08-.24.18-.32.3a6.5 6.5 0 0 1-10.7-5.08 6.57 6.57 0 0 1 6.53-6.59 6.6 6.6 0 1 1 4.49 11.37zm-.49 13.76l-3.63-1.83a.93.93 0 0 0-.83 0l-3.62 1.83V45.4a8.3 8.3 0 0 0 8.08.05zm1.86-12.47a8.5 8.5 0 0 0 2.53-6.07 8.45 8.45 0 0 0-8.39-8.48 8.45 8.45 0 0 0-8.39 8.48c0 2.24.88 4.4 2.44 5.98v5.67H4.65a2.84 2.84 0 0 1-2.78-2.89V4.64a2.74 2.74 0 0 1 2.78-2.76h33.96a4.71 4.71 0 0 0-.94 2.83v42.04c0 1.08.36 2.07.95 2.86l-13.01.03zm19.52-2.97v5.66a2.88 2.88 0 0 1-2.81 2.86 2.84 2.84 0 0 1-2.78-2.86v-5.66z"/><path fill="url(#a)" d="M1230.07 1499.19c.51 0 .93-.42.93-.94v-6.61c0-2.56-2.1-4.64-4.68-4.64h-37.67a4.6 4.6 0 0 0-4.65 4.64v42.11a4.72 4.72 0 0 0 4.65 4.77h9.15v6.54c0 .32.17.63.44.8.28.17.62.19.91.04l4.56-2.3 4.55 2.3a.92.92 0 0 0 .91-.04.93.93 0 0 0 .44-.8v-6.54l16.71-.03a4.71 4.71 0 0 0 4.68-4.74v-6.6a.94.94 0 0 0-.93-.94h-6.53v-27.02zm-.94-7.55v5.66h-5.59v-5.59a2.8 2.8 0 0 1 5.59-.07zm-20.89 38.13c-.13.08-.24.18-.32.3a6.5 6.5 0 0 1-10.7-5.08 6.57 6.57 0 0 1 6.53-6.59 6.6 6.6 0 1 1 4.49 11.37zm-.49 13.76l-3.63-1.83a.93.93 0 0 0-.83 0l-3.62 1.83v-11.13a8.3 8.3 0 0 0 8.08.05zm1.86-12.47a8.5 8.5 0 0 0 2.53-6.07 8.45 8.45 0 0 0-8.39-8.48 8.45 8.45 0 0 0-8.39 8.48c0 2.24.88 4.4 2.44 5.98v5.67h-9.15a2.84 2.84 0 0 1-2.78-2.89v-42.11a2.74 2.74 0 0 1 2.78-2.76h33.96a4.71 4.71 0 0 0-.94 2.83v42.04c0 1.08.36 2.07.95 2.86l-13.01.03zm19.52-2.97v5.66a2.88 2.88 0 0 1-2.81 2.86 2.84 2.84 0 0 1-2.78-2.86v-5.66z" transform="translate(-1184 -1487)"/><path fill="#3b4047" d="M20 34a4 4 0 1 0 0 8 4 4 0 0 0 0-8zm0 7a3 3 0 0 1-3-3 3 3 0 0 1 3-3 3 3 0 0 1 3 3 3 3 0 0 1-3 3z"/><path fill="url(#b)" d="M1204 1521a4 4 0 1 0 0 8 4 4 0 0 0 0-8zm0 7a3 3 0 0 1-3-3 3 3 0 0 1 3-3 3 3 0 0 1 3 3 3 3 0 0 1-3 3z" transform="translate(-1184 -1487)"/><path fill="#3b4047" d="M33.06 19H7.94c-.52 0-.94.45-.94 1s.42 1 .94 1h25.12c.52 0 .94-.45.94-1s-.42-1-.94-1z"/><path fill="url(#c)" d="M1217.06 1506h-25.12c-.52 0-.94.45-.94 1s.42 1 .94 1h25.12c.52 0 .94-.45.94-1s-.42-1-.94-1z" transform="translate(-1184 -1487)"/><path fill="#3b4047" d="M28.08 23H10.92c-.51 0-.92.45-.92 1s.41 1 .92 1h17.16c.51 0 .92-.45.92-1s-.41-1-.92-1z"/><path fill="url(#d)" d="M1212.08 1510h-17.16c-.51 0-.92.45-.92 1s.41 1 .92 1h17.16c.51 0 .92-.45.92-1s-.41-1-.92-1z" transform="translate(-1184 -1487)"/><path fill="#3b4047" d="M33 15h-4a1 1 0 0 0-1 1 1 1 0 0 0 1 1h4a1 1 0 0 0 1-1 1 1 0 0 0-1-1z"/><path fill="url(#e)" d="M1217 1502h-4a1 1 0 0 0-1 1 1 1 0 0 0 1 1h4a1 1 0 0 0 1-1 1 1 0 0 0-1-1z" transform="translate(-1184 -1487)"/><path fill="#3b4047" d="M7.92 17h17.16c.51 0 .92-.45.92-1s-.41-1-.92-1H7.92c-.51 0-.92.45-.92 1s.41 1 .92 1z"/><path fill="url(#f)" d="M1191.92 1504h17.16c.51 0 .92-.45.92-1s-.41-1-.92-1h-17.16c-.51 0-.92.45-.92 1s.41 1 .92 1z" transform="translate(-1184 -1487)"/><path fill="#3b4047" d="M10.35 12.79a.9.9 0 0 0 .57.21.9.9 0 0 0 .73-.39l2.13-2.98 2.13 2.98a.9.9 0 0 0 .73.39.9.9 0 0 0 .73-.39l2.13-2.98 2.14 2.98c.17.25.44.39.72.39a.9.9 0 0 0 .73-.39l2.13-2.98 2.13 2.98c.32.44.89.52 1.29.18.41-.34.48-.97.17-1.4l-2.86-4a.9.9 0 0 0-.73-.39.87.87 0 0 0-.72.39l-2.14 2.98-2.13-2.98A.9.9 0 0 0 19.5 7a.87.87 0 0 0-.72.39l-2.14 2.98-2.13-2.98a.9.9 0 0 0-.73-.39.9.9 0 0 0-.73.39l-2.86 4c-.31.43-.24 1.06.16 1.4z"/><path fill="url(#g)" d="M1194.35 1499.79a.9.9 0 0 0 .57.21.9.9 0 0 0 .73-.39l2.13-2.98 2.13 2.98a.9.9 0 0 0 .73.39.9.9 0 0 0 .73-.39l2.13-2.98 2.14 2.98c.17.25.44.39.72.39a.9.9 0 0 0 .73-.39l2.13-2.98 2.13 2.98c.32.44.89.52 1.29.18.41-.34.48-.97.17-1.4l-2.86-4a.9.9 0 0 0-.73-.39.87.87 0 0 0-.72.39l-2.14 2.98-2.13-2.98a.9.9 0 0 0-.73-.39.87.87 0 0 0-.72.39l-2.14 2.98-2.13-2.98a.9.9 0 0 0-.73-.39.9.9 0 0 0-.73.39l-2.86 4c-.31.43-.24 1.06.16 1.4z" transform="translate(-1184 -1487)"/></svg>