<svg xmlns="http://www.w3.org/2000/svg" width="36" height="43" viewBox="0 0 36 43"><defs><radialGradient id="a" cx="999.27" cy="872.7" r="37.9" gradientUnits="userSpaceOnUse"><stop offset="0" stop-color="#488baa" stop-opacity=".5"/><stop offset="1" stop-color="#88b1b7" stop-opacity="0"/></radialGradient><radialGradient id="b" cx="980.86" cy="872.65" r="3.99" gradientUnits="userSpaceOnUse"><stop offset="0" stop-color="#488baa" stop-opacity=".5"/><stop offset="1" stop-color="#88b1b7" stop-opacity="0"/></radialGradient><radialGradient id="c" cx="1002.41" cy="880.74" r="2.99" gradientUnits="userSpaceOnUse"><stop offset="0" stop-color="#488baa" stop-opacity=".5"/><stop offset="1" stop-color="#88b1b7" stop-opacity="0"/></radialGradient></defs><path fill="#43b9da" d="M8 5h25l-2 16 4 15 1 5-28-1z"/><path fill="#3b4047" d="M2.69 27.02l5.09 2.69v7.05c0 .59.49 1.07 1.08 1.07h24.87c.6 0 1.08-.48 1.08-1.07 0 0-4.4-19.54.05-31.22-5.22-7.02-26-5.37-26-5.37-.6 0-1.08.48-1.08 1.07v.74L2.69 4.06A2.7 2.7 0 0 0 0 6.75v17.59a2.69 2.69 0 0 0 2.69 2.68zm13.22-15.77a3.8 3.8 0 1 1 7.6 0v1.31h-3.93v2.42h3.93v2.73h-3.93v2.42h3.93v2.86h-3.93v2.42h3.93v1.18a3.8 3.8 0 0 1-7.6 0zM3.23 7.29l4.55-2.12v21.35L3.23 23.8z"/><path fill="url(#a)" d="M977.69 865.02l5.09 2.69v7.05c0 .59.49 1.07 1.08 1.07h24.87c.6 0 1.08-.48 1.08-1.07 0 0-4.4-19.54.05-31.22-5.22-7.02-26-5.37-26-5.37-.6 0-1.08.48-1.08 1.07v.74l-5.09 2.08a2.7 2.7 0 0 0-2.69 2.69v17.59a2.69 2.69 0 0 0 2.69 2.68zm13.22-15.77a3.8 3.8 0 1 1 7.6 0v1.31h-3.93v2.42h3.93v2.73h-3.93v2.42h3.93v2.86h-3.93v2.42h3.93v1.18a3.8 3.8 0 0 1-7.6 0zm-12.68-3.96l4.55-2.12v21.35l-4.55-2.72z" transform="translate(-975 -838)"/><path fill="#3b4047" d="M6.7 32.42l-4.15-1.36a1.18 1.18 0 1 0-.74 2.24l4.14 1.37a1.19 1.19 0 0 0 .75-2.25z"/><path fill="url(#b)" d="M981.7 870.42l-4.15-1.36a1.18 1.18 0 1 0-.74 2.24l4.14 1.37a1.19 1.19 0 0 0 .75-2.25z" transform="translate(-975 -838)"/><path fill="#3b4047" d="M8 43v-3h28v3z"/><path fill="url(#c)" d="M983 881v-3h28v3z" transform="translate(-975 -838)"/></svg>