<svg xmlns="http://www.w3.org/2000/svg" width="30" height="45" viewBox="0 0 30 45"><defs><radialGradient id="a" cx="404.8" cy="794.09" r="44.89" gradientUnits="userSpaceOnUse"><stop offset="0" stop-color="#488baa" stop-opacity=".5"/><stop offset="1" stop-color="#88b1b7" stop-opacity="0"/></radialGradient></defs><path fill="#43b9da" d="M3 22a12 12 0 1 1 24 0 12 12 0 0 1-24 0z"/><path fill="#3b4047" d="M29.89 22.5c0-4.69-2.25-9-5.61-11.81L22.41 0H7.47L5.6 10.69A15.54 15.54 0 0 0 0 22.5c0 4.69 2.24 9 5.6 11.81L7.47 45h14.94l1.87-10.69a15.55 15.55 0 0 0 5.61-11.81zm-26.15 0c0-6.19 5.04-11.25 11.2-11.25a11.26 11.26 0 0 1 0 22.5c-6.16 0-11.2-5.06-11.2-11.25z"/><path fill="url(#a)" d="M413.89 775.5c0-4.69-2.25-9-5.61-11.81L406.41 753h-14.94l-1.87 10.69a15.54 15.54 0 0 0-5.6 11.81c0 4.69 2.24 9 5.6 11.81l1.87 10.69h14.94l1.87-10.69a15.55 15.55 0 0 0 5.61-11.81zm-26.15 0c0-6.19 5.04-11.25 11.2-11.25a11.26 11.26 0 0 1 0 22.5c-6.16 0-11.2-5.06-11.2-11.25z" transform="translate(-384 -753)"/></svg>