<svg xmlns="http://www.w3.org/2000/svg" width="35" height="35" viewBox="0 0 35 35"><defs><radialGradient id="a" cx="1294.77" cy="856.48" r="5.98" gradientUnits="userSpaceOnUse"><stop offset="0" stop-color="#488baa" stop-opacity=".5"/><stop offset="1" stop-color="#88b1b7" stop-opacity="0"/></radialGradient><radialGradient id="b" cx="1289.16" cy="856.48" r="5.98" gradientUnits="userSpaceOnUse"><stop offset="0" stop-color="#488baa" stop-opacity=".5"/><stop offset="1" stop-color="#88b1b7" stop-opacity="0"/></radialGradient><radialGradient id="c" cx="1289.16" cy="869.48" r="5.98" gradientUnits="userSpaceOnUse"><stop offset="0" stop-color="#488baa" stop-opacity=".5"/><stop offset="1" stop-color="#88b1b7" stop-opacity="0"/></radialGradient><radialGradient id="d" cx="1305.16" cy="869.48" r="5.98" gradientUnits="userSpaceOnUse"><stop offset="0" stop-color="#488baa" stop-opacity=".5"/><stop offset="1" stop-color="#88b1b7" stop-opacity="0"/></radialGradient><radialGradient id="e" cx="1303.27" cy="876.96" r="34.91" gradientUnits="userSpaceOnUse"><stop offset="0" stop-color="#488baa" stop-opacity=".5"/><stop offset="1" stop-color="#88b1b7" stop-opacity="0"/></radialGradient><radialGradient id="f" cx="1305.16" cy="856.48" r="5.98" gradientUnits="userSpaceOnUse"><stop offset="0" stop-color="#488baa" stop-opacity=".5"/><stop offset="1" stop-color="#88b1b7" stop-opacity="0"/></radialGradient></defs><path fill="#43b9da" d="M2 35V2h32v33z"/><path fill="#3b4047" d="M14.24 6H13a4.72 4.72 0 0 1 0 6.35h1.24a3.18 3.18 0 1 0 0-6.35z"/><path fill="url(#a)" d="M1293.24 851H1292a4.72 4.72 0 0 1 0 6.35h1.24a3.18 3.18 0 1 0 0-6.35z" transform="translate(-1279 -845)"/><path fill="#3b4047" d="M6 9a3 3 0 1 1 6 0 3 3 0 0 1-6 0z"/><path fill="url(#b)" d="M1285 854a3 3 0 1 1 6 0 3 3 0 0 1-6 0z" transform="translate(-1279 -845)"/><path fill="#3b4047" d="M6 22a3 3 0 1 1 6 0 3 3 0 0 1-6 0z"/><path fill="url(#c)" d="M1285 867a3 3 0 1 1 6 0 3 3 0 0 1-6 0z" transform="translate(-1279 -845)"/><path fill="#3b4047" d="M22 22a3 3 0 1 1 6 0 3 3 0 0 1-6 0z"/><path fill="url(#d)" d="M1301 867a3 3 0 1 1 6 0 3 3 0 0 1-6 0z" transform="translate(-1279 -845)"/><path fill="#3b4047" d="M31.77 0H3.18A3.18 3.18 0 0 0 0 3.18v28.59a3.18 3.18 0 0 0 3.18 3.18h28.59a3.18 3.18 0 0 0 3.18-3.18V3.18A3.18 3.18 0 0 0 31.77 0zM7.94 31.77a1.6 1.6 0 0 1-1.59-1.59 1.6 1.6 0 0 1 3.18 0c0 .88-.71 1.59-1.59 1.59zm-3.17-9.53a4.76 4.76 0 1 1 9.52 0 4.76 4.76 0 0 1-9.52 0zm9.53 9.53a1.59 1.59 0 1 1 0-3.18 1.59 1.59 0 0 1 0 3.18zm0-17.47H9.53a4.77 4.77 0 0 1 0-9.53h4.77a4.76 4.76 0 1 1 0 9.53zm6.35 17.47a1.6 1.6 0 0 1-1.59-1.59 1.6 1.6 0 0 1 3.18 0c0 .88-.71 1.59-1.59 1.59zm6.36 0a1.59 1.59 0 1 1 0-3.18 1.59 1.59 0 0 1 0 3.18zm-1.59-4.76a4.78 4.78 0 1 1 .01-9.55 4.78 4.78 0 0 1-.01 9.55zm0-12.71a4.78 4.78 0 1 1 .01-9.55 4.78 4.78 0 0 1-.01 9.55z"/><path fill="url(#e)" d="M1310.77 845h-28.59a3.18 3.18 0 0 0-3.18 3.18v28.59a3.18 3.18 0 0 0 3.18 3.18h28.59a3.18 3.18 0 0 0 3.18-3.18v-28.59a3.18 3.18 0 0 0-3.18-3.18zm-23.83 31.77a1.6 1.6 0 0 1-1.59-1.59 1.6 1.6 0 0 1 3.18 0c0 .88-.71 1.59-1.59 1.59zm-3.17-9.53a4.76 4.76 0 1 1 9.52 0 4.76 4.76 0 0 1-9.52 0zm9.53 9.53a1.59 1.59 0 1 1 0-3.18 1.59 1.59 0 0 1 0 3.18zm0-17.47h-4.77a4.77 4.77 0 0 1 0-9.53h4.77a4.76 4.76 0 1 1 0 9.53zm6.35 17.47a1.6 1.6 0 0 1-1.59-1.59 1.6 1.6 0 0 1 3.18 0c0 .88-.71 1.59-1.59 1.59zm6.36 0a1.59 1.59 0 1 1 0-3.18 1.59 1.59 0 0 1 0 3.18zm-1.59-4.76a4.78 4.78 0 1 1 .01-9.55 4.78 4.78 0 0 1-.01 9.55zm0-12.71a4.78 4.78 0 1 1 .01-9.55 4.78 4.78 0 0 1-.01 9.55z" transform="translate(-1279 -845)"/><path fill="#3b4047" d="M22 9a3 3 0 1 1 6 0 3 3 0 0 1-6 0z"/><path fill="url(#f)" d="M1301 854a3 3 0 1 1 6 0 3 3 0 0 1-6 0z" transform="translate(-1279 -845)"/></svg>