<svg xmlns="http://www.w3.org/2000/svg" width="39" height="46" viewBox="0 0 39 46"><defs><radialGradient id="a" cx="999.27" cy="966.96" r="34.91" gradientUnits="userSpaceOnUse"><stop offset="0" stop-color="#488baa" stop-opacity=".5"/><stop offset="1" stop-color="#88b1b7" stop-opacity="0"/></radialGradient><radialGradient id="b" cx="1006.03" cy="933.31" r="7.98" gradientUnits="userSpaceOnUse"><stop offset="0" stop-color="#488baa" stop-opacity=".5"/><stop offset="1" stop-color="#88b1b7" stop-opacity="0"/></radialGradient></defs><path fill="#43b9da" d="M2 27a16 16 0 1 1 32 0 16 16 0 0 1-32 0z"/><path fill="#3b4047" d="M17.5 10C7.85 10 0 17.85 0 27.5s7.85 17.51 17.5 17.51 17.51-7.85 17.51-17.51c0-9.65-7.86-17.5-17.51-17.5zM2.19 27.5c0-8.44 6.87-15.31 15.31-15.31 8.45 0 15.32 6.87 15.32 15.31z"/><path fill="url(#a)" d="M992.5 935c-9.65 0-17.5 7.85-17.5 17.5s7.85 17.51 17.5 17.51 17.51-7.85 17.51-17.51c0-9.65-7.86-17.5-17.51-17.5zm-15.31 17.5c0-8.44 6.87-15.31 15.31-15.31 8.45 0 15.32 6.87 15.32 15.31z" transform="translate(-975 -925)"/><path d="M3 5.04h7.48v.79H3zM3.25 0l7.23 1.94-.21.76L3.05.76zm7.02 8.17L3.05 10.1l.21.77 7.22-1.94z"/><path fill="#3b4047" d="M30.83 1c-3.97 0-7.21 1.55-7.73 3.56h-2.09V1.82h-6.56v1.85H13v2.86h1.45v1.85h6.56V5.65h2.09c.51 2 3.76 3.55 7.73 3.55 4.32 0 7.83-1.83 7.83-4.1 0-2.26-3.51-4.1-7.83-4.1z"/><path fill="url(#b)" d="M1005.83 926c-3.97 0-7.21 1.55-7.73 3.56h-2.09v-2.74h-6.56v1.85H988v2.86h1.45v1.85h6.56v-2.73h2.09c.51 2 3.76 3.55 7.73 3.55 4.32 0 7.83-1.83 7.83-4.1 0-2.26-3.51-4.1-7.83-4.1z" transform="translate(-975 -925)"/></svg>