<svg xmlns="http://www.w3.org/2000/svg" width="21" height="13" viewBox="0 0 21 13"><path fill="#4d76a1" d="M10.21 12.85h1.24s.38-.04.57-.25c.18-.19.17-.55.17-.55s-.02-1.67.76-1.92c.76-.24 1.74 1.62 2.79 2.34.78.54 1.38.42 1.38.42l2.79-.04s1.45-.09.76-1.24c-.05-.09-.4-.84-2.07-2.39-1.74-1.62-1.51-1.36.59-4.17 1.29-1.7 1.8-2.75 1.64-3.19-.16-.43-1.1-.32-1.1-.32l-3.13.02s-.24-.03-.41.08c-.17.1-.28.33-.28.33s-.49 1.32-1.15 2.45c-1.4 2.37-1.96 2.49-2.19 2.35-.53-.35-.4-1.38-.4-2.12 0-2.3.35-3.25-.68-3.5-.34-.08-.59-.14-1.46-.15-1.12-.01-2.07.01-2.6.27-.36.17-.63.56-.47.59.21.02.68.12.93.46.32.44.31 1.42.31 1.42s.18 2.71-.43 3.04c-.42.23-1-.24-2.25-2.39A19.5 19.5 0 0 1 4.4 2.07s-.09-.23-.26-.35c-.2-.15-.48-.19-.48-.19l-2.98.02s-.45.01-.61.2c-.15.18-.01.53-.01.53s2.33 5.46 4.97 8.21c2.42 2.53 5.18 2.36 5.18 2.36z"/></svg>