<svg xmlns="http://www.w3.org/2000/svg" width="22" height="15" viewBox="0 0 22 15"><path fill="#dc4e41" d="M1 7.51a6.5 6.5 0 0 0 4.48 6.14c2.47.82 5.5.21 7.15-1.87 1.2-1.45 1.47-3.38 1.34-5.19-2.12-.02-4.23-.02-6.34-.01v2.21c1.27.03 2.53.02 3.8.04a3.6 3.6 0 0 1-2.15 2.46c-2.14.93-4.86-.28-5.53-2.47a4.1 4.1 0 0 1 2.7-5.25c1.36-.47 2.76.06 3.93.75.59-.54 1.14-1.12 1.68-1.7a6.72 6.72 0 0 0-4.77-1.6C3.87 1.06.87 4.16 1 7.51zM18.01 5l-.02 1.66-1.99.01v1.66l1.99.01.02 1.66h1.98l.02-1.66L22 8.33V6.67l-1.99-.01L19.99 5h-1.98z"/></svg>