<?xml version="1.0" encoding="UTF-8" standalone="no"?>
<!DOCTYPE svg  PUBLIC '-//W3C//DTD SVG 1.1//EN'  'http://www.w3.org/Graphics/SVG/1.1/DTD/svg11.dtd'>
<svg xmlns="http://www.w3.org/2000/svg">
<defs>
<font id="MuseoSansCyrl-500" horiz-adv-x="386">
<font-face underline-position="-50" font-weight="400" descent="-200" panose-1="2 0 0 0 0 0 0 0 0 0" units-per-em="1000" unicode-range="U+0020-FB04" bbox="-120 -215 1088 892" x-height="506" underline-thickness="50" font-family="MuseoSansCyrl" ascent="800" cap-height="706"/>
<missing-glyph d="M85 50h340l-170 255zM55 95l170 255l-170 255v-510zM285 350l170 -255v510zM255 395l170 255h-340zM5 0v700h500v-700h-500z" horiz-adv-x="510"/>
<glyph glyph-name="f_f" horiz-adv-x="675" unicode="ff" d="M98 0v428h-63v78h63v17q0 48 14 83.5t34.5 55t48 31t49.5 15t45 3.5q24 0 37 -3v-84q-8 2 -25 2q-106 0 -106 -104v-16h241v17q0 48 14 83.5t34.5 55t48 31t49.5 15t45 3.5q24 0 37 -3v-84q-8 2 -25 2q-106 0 -106 -104v-16h119v-78h-119v-428h-97v428h-241v-428h-97z "/>
<glyph glyph-name="fi" horiz-adv-x="581" unicode="fi" d="M409 608v98h99v-98h-99zM98 0v428h-63v78h63v17q0 48 14 83.5t34.5 55t48 31t49.5 15t45 3.5q17 0 37 -3v-84q-8 2 -25 2q-106 0 -106 -104v-16h312v-506h-96v428h-216v-428h-97z"/>
<glyph glyph-name="fl" horiz-adv-x="598" unicode="fl" d="M99 0v422h-63v79h63v22q0 48 14 83.5t34.5 55t48 31t49.5 15t45 3.5q18 0 37 -3v-84q-8 2 -25 2q-106 0 -106 -104v-21h119v-79h-119v-422h-97zM405 139v567h96v-551q0 -41 14.5 -56.5t40.5 -15.5q11 0 17 1v-86q-21 -3 -32 -3q-136 0 -136 144z"/>
<glyph glyph-name="f_f_i" horiz-adv-x="919" unicode="ffi" d="M747 608v98h100v-98h-100zM98 0v428h-63v78h63v17q0 48 14 83.5t34.5 55t48 31t49.5 15t45 3.5q17 0 37 -3v-84q-8 2 -25 2q-106 0 -106 -104v-16h241v17q0 48 14 83.5t34.5 55t48 31t49.5 15t45 3.5q17 0 37 -3v-84q-8 2 -25 2q-106 0 -106 -104v-16h312v-506h-96v428 h-216v-428h-97v428h-241v-428h-97z"/>
<glyph glyph-name="f_f_l" horiz-adv-x="935" unicode="ffl" d="M742 139v567h97v-551q0 -41 14.5 -56.5t40.5 -15.5q11 0 17 1v-86q-21 -3 -32 -3q-137 0 -137 144zM98 0v428h-63v78h63v17q0 48 14 83.5t34.5 55t48 31t49.5 15t45 3.5q17 0 37 -3v-84q-8 2 -25 2q-106 0 -106 -104v-16h241v17q0 48 14 83.5t34.5 55t48 31t49.5 15 t45 3.5q17 0 37 -3v-84q-8 2 -25 2q-106 0 -106 -104v-16h119v-78h-119v-428h-97v428h-241v-428h-97z"/>
<glyph glyph-name="f_j" horiz-adv-x="581" unicode="fj" d="M409 608v98h99v-98h-99zM98 0v428h-63v78h63v17q0 48 14 83.5t34.5 55t48 31t49.5 15t45 3.5q17 0 37 -3v-84q-8 2 -25 2q-106 0 -106 -104v-16h312v-523q0 -48 -14.5 -84t-35 -55.5t-49 -31.5t-50 -15t-44.5 -3q-12 0 -34 2v83q10 -2 22 -2q17 0 33 4t34.5 14.5t30 34.5 t11.5 59v439h-216v-428h-97z"/>
<glyph glyph-name=".notdef" d="M85 50h340l-170 255zM55 95l170 255l-170 255v-510zM285 350l170 -255v510zM255 395l170 255h-340zM5 0v700h500v-700h-500z" horiz-adv-x="510"/>
<glyph glyph-name=".null" horiz-adv-x="0"/>
<glyph glyph-name="nonmarkingreturn" horiz-adv-x="333"/>
<glyph glyph-name="space" horiz-adv-x="250" unicode=" "/>
<glyph glyph-name="exclam" horiz-adv-x="275" unicode="!" d="M87 0v99h100v-99h-100zM93 194l-6 512h100l-7 -512h-87z"/>
<glyph glyph-name="quotedbl" horiz-adv-x="365" unicode='&quot;' d="M74 530v188h77v-188h-77zM215 530v188h76v-188h-76z"/>
<glyph glyph-name="numbersign" horiz-adv-x="721" unicode="#" d="M268 264h155l30 169h-156zM141 0l33 191h-131l13 73h131l30 169h-130l12 73h130l35 200h81l-35 -200h155l35 200h81l-35 -200h131l-13 -73h-130l-30 -169h129l-12 -73h-129l-34 -191h-81l33 191h-155l-33 -191h-81z"/>
<glyph glyph-name="dollar" horiz-adv-x="577" unicode="$" d="M60 81l55 75q33 -33 82.5 -54.5t97.5 -21.5q52 0 87 28t35 76q0 40 -35.5 69.5t-86.5 51t-102 46.5t-86.5 68t-35.5 102q0 73 51.5 127.5t134.5 66.5v94h70v-93q101 -6 172 -70l-45 -81q-30 27 -72 44.5t-83 17.5q-55 0 -91.5 -30.5t-36.5 -73.5q0 -33 25.5 -58.5t64 -41 t83.5 -36.5t83.5 -43.5t64 -63t25.5 -93.5q0 -77 -51 -132t-139 -65v-92h-70v92q-123 12 -197 91z"/>
<glyph glyph-name="percent" horiz-adv-x="763" unicode="%" d="M490 136q0 -31 21 -52.5t52 -21.5t52.5 21.5t21.5 52.5t-21.5 53t-52.5 22t-52 -22t-21 -53zM412 135q0 62 44 105.5t107 43.5t107.5 -43.5t44.5 -105.5q0 -61 -44.5 -104t-107.5 -43t-107 43t-44 104zM200 496q32 0 53.5 21.5t21.5 52.5t-22 53t-53 22t-52 -22t-21 -53 t21 -52.5t52 -21.5zM64 0l541 706h94l-540 -706h-95zM200 422q-63 0 -107 43t-44 105q0 61 44 104.5t107 43.5t108 -43.5t45 -104.5t-45 -104.5t-108 -43.5z"/>
<glyph glyph-name="ampersand" horiz-adv-x="674" unicode="&amp;" d="M157 203q0 -53 39.5 -88.5t103.5 -35.5q70 0 108.5 40t38.5 121v89h-134q-75 0 -115.5 -33t-40.5 -93zM56 197q0 61 33.5 112t90.5 69v2q-43 19 -68.5 59t-25.5 97q0 86 60.5 134t157.5 48q40 0 86 -11l-25 -79q-23 6 -53 6q-54 0 -89.5 -29t-35.5 -79q0 -44 28.5 -77.5 t100.5 -33.5h131v96h98v-96h94v-86h-94v-94q0 -117 -65 -182t-180 -65q-108 0 -176 59.5t-68 149.5z"/>
<glyph glyph-name="quotesingle" horiz-adv-x="226" unicode="&apos;" d="M74 530v188h77v-188h-77z"/>
<glyph glyph-name="parenleft" horiz-adv-x="293" unicode="(" d="M169 -95q-116 193 -116 435q0 210 116 395h85q-113 -189 -113 -396q0 -229 113 -434h-85z"/>
<glyph glyph-name="parenright" horiz-adv-x="293" unicode=")" d="M39 -95q113 205 113 434q0 207 -113 396h85q116 -185 116 -395q0 -242 -116 -435h-85z"/>
<glyph glyph-name="asterisk" horiz-adv-x="495" unicode="*" d="M170 329l-73 52l90 110v2l-137 37l27 85l133 -51l-8 142h91l-8 -142l134 50l27 -83l-137 -38v-2l89 -110l-72 -52l-78 118h-2z"/>
<glyph glyph-name="plus" horiz-adv-x="577" unicode="+" d="M24 246v78h224v246h82v-246h223v-78h-223v-246h-82v246h-224z"/>
<glyph glyph-name="comma" horiz-adv-x="272" unicode="," d="M35 -101l62 206h102l-87 -206h-77z"/>
<glyph glyph-name="hyphen" horiz-adv-x="432" unicode="-" d="M70 242v86h292v-86h-292z"/>
<glyph glyph-name="period" horiz-adv-x="244" unicode="." d="M70 0v105h104v-105h-104z"/>
<glyph glyph-name="slash" horiz-adv-x="416" unicode="/" d="M38 -42l254 786h86l-254 -786h-86z"/>
<glyph glyph-name="zero" horiz-adv-x="622" unicode="0" d="M311 79q148 0 148 275q0 273 -148 273t-148 -273q0 -275 148 -275zM311 -12q-68 0 -118 28t-78 79t-41 115t-13 144t13 143.5t41 114t78 78.5t118 28q250 0 250 -364q0 -366 -250 -366z"/>
<glyph glyph-name="one" horiz-adv-x="494" unicode="1" d="M57 0v86h156v456l1 43h-2q-8 -15 -34 -41l-66 -64l-60 62l169 164h88v-620h155v-86h-407z"/>
<glyph glyph-name="two" horiz-adv-x="573" unicode="2" d="M60 0q-5 32 -5 54q0 51 19 95t49.5 76t67.5 60.5t74.5 53.5t68 50t49.5 55.5t19 63.5q0 52 -36 84.5t-92 32.5q-43 0 -81.5 -25t-61.5 -65l-73 49q32 59 91 96.5t133 37.5q98 0 160 -56t62 -147q0 -54 -25 -101t-62.5 -77.5t-81.5 -62.5t-82 -57t-63.5 -59.5t-26.5 -71.5 h352v-86h-455z"/>
<glyph glyph-name="three" horiz-adv-x="567" unicode="3" d="M44 84l54 75q31 -33 77 -55t94 -22q60 0 102 36.5t42 92.5q0 62 -47.5 96t-117.5 34h-48l-23 53l154 181q10 12 21 23.5t17 17.5l6 5v2q-21 -3 -60 -3h-239v86h422v-63l-192 -222q51 -5 95.5 -26t78 -68.5t33.5 -112.5q0 -93 -67 -159.5t-173 -66.5q-63 0 -124 25 t-105 71z"/>
<glyph glyph-name="four" horiz-adv-x="610" unicode="4" d="M143 272h233v258l4 71h-2q-16 -34 -35 -59l-200 -268v-2zM34 189v62l327 455h112v-434h96v-83h-96v-189h-97v189h-342z"/>
<glyph glyph-name="five" horiz-adv-x="563" unicode="5" d="M49 86l56 72q62 -76 155 -76q64 0 109 40t45 103t-45.5 104t-114.5 41q-66 0 -119 -35l-58 21l35 350h357v-86h-271l-16 -149l-6 -36h2q40 21 92 21q110 0 178 -66.5t68 -164.5q0 -101 -71.5 -169t-178.5 -68q-63 0 -120.5 25.5t-96.5 72.5z"/>
<glyph glyph-name="six" horiz-adv-x="597" unicode="6" d="M324 79q56 0 91 41t35 103q0 67 -39 108.5t-106 41.5q-58 0 -101 -29t-43 -75q0 -65 46.5 -127.5t116.5 -62.5zM57 320q0 56 12 111.5t37.5 107.5t61.5 91.5t89.5 63.5t116.5 24q77 0 138 -29l-32 -85q-44 23 -102 23q-90 0 -144 -69.5t-67 -167.5h2q22 30 65.5 48 t90.5 18q99 0 161 -66t62 -167q0 -102 -64 -168.5t-163 -66.5q-114 0 -189 92t-75 240z"/>
<glyph glyph-name="seven" horiz-adv-x="537" unicode="7" d="M92 0l275 555q9 18 19 34.5t16 23.5l5 7v2q-14 -2 -50 -2h-316v86h472v-68l-318 -638h-103z"/>
<glyph glyph-name="eight" horiz-adv-x="603" unicode="8" d="M156 209q0 -57 43 -94.5t100 -37.5q58 0 100 33.5t42 86.5q0 23 -10.5 41.5t-34.5 34.5t-43 26t-56.5 26t-54.5 24q-86 -60 -86 -140zM370 383q64 68 64 139q0 50 -35 78.5t-92 28.5q-56 0 -88 -28t-32 -70q0 -15 4.5 -28t11 -23t19.5 -20.5t23 -17.5t28.5 -16t30 -14.5 t33.5 -14.5t33 -14zM55 201q0 37 13 71.5t34 58.5t36 37.5t30 23.5q-79 55 -79 139q0 78 57 132.5t163 54.5q99 0 160.5 -51.5t61.5 -136.5q0 -58 -28.5 -107.5t-56.5 -77.5q96 -58 96 -150q0 -85 -67 -146t-175 -61q-105 0 -175 60.5t-70 152.5z"/>
<glyph glyph-name="nine" horiz-adv-x="597" unicode="9" d="M291 333q59 0 102 30.5t43 68.5q0 72 -47.5 133.5t-112.5 61.5q-59 0 -94 -40.5t-35 -104.5q0 -66 39 -107.5t105 -41.5zM84 17l32 86q48 -24 101 -24q91 0 145 69.5t67 167.5h-2q-21 -30 -65 -48t-91 -18q-99 0 -161 66t-62 166q0 104 64 170t163 66q115 0 189.5 -92 t74.5 -241q0 -70 -19.5 -138.5t-57 -127.5t-100 -95t-141.5 -36q-78 0 -137 29z"/>
<glyph glyph-name="colon" horiz-adv-x="242" unicode=":" d="M70 0v103h102v-103h-102zM70 403v103h102v-103h-102z"/>
<glyph glyph-name="semicolon" horiz-adv-x="288" unicode=";" d="M53 -101l53 206h100l-76 -206h-77zM108 403v103h100v-103h-100z"/>
<glyph glyph-name="less" horiz-adv-x="577" unicode="&lt;" d="M42 252v66l466 208v-89l-357 -151v-2l357 -151v-89z"/>
<glyph glyph-name="equal" horiz-adv-x="577" unicode="=" d="M50 151v78h477v-78h-477zM50 340v78h477v-78h-477z"/>
<glyph glyph-name="greater" horiz-adv-x="577" unicode="&gt;" d="M68 44v89l357 151v2l-357 151v89l466 -208v-66z"/>
<glyph glyph-name="question" horiz-adv-x="466" unicode="?" d="M148 0v99h100v-99h-100zM151 194v47q0 42 17.5 76t42 57.5t49.5 45t42.5 49.5t17.5 61q0 42 -32.5 70.5t-81.5 28.5q-61 0 -113 -42l-54 69q72 64 174 64q87 0 148 -51t61 -132q0 -46 -18 -82.5t-44 -61t-52.5 -47t-44.5 -50.5t-18 -61v-41h-94z"/>
<glyph glyph-name="at" horiz-adv-x="796" unicode="@" d="M371 242q0 -49 33 -83t83 -34h101v236h-99q-51 0 -84.5 -34.5t-33.5 -84.5zM56 241q0 155 106 262.5t259 107.5q135 0 197.5 -57.5t62.5 -145.5v-283h72v-73h-273q-91 0 -149 55.5t-58 132.5q0 78 57.5 133t149.5 55h108q-1 44 -44 73.5t-118 29.5q-115 0 -194 -86 t-79 -204q0 -121 79.5 -204t204.5 -83v-79q-165 0 -273 105.5t-108 260.5z"/>
<glyph glyph-name="A" horiz-adv-x="641" unicode="A" d="M213 285h214l-78 223l-28 101h-2q-15 -64 -27 -101zM15 0l253 706h105l253 -706h-102l-71 203h-266l-71 -203h-101z"/>
<glyph glyph-name="B" horiz-adv-x="624" unicode="B" d="M192 86h159q56 0 88.5 33t32.5 88q0 54 -33 87t-88 33h-159v-241zM192 409h148q47 0 75.5 30t28.5 77t-28 75.5t-77 28.5h-147v-211zM93 0v706h247q92 0 148.5 -48t56.5 -132q0 -51 -23.5 -91t-64.5 -61v-2q55 -16 86 -63t31 -108q0 -96 -65 -148.5t-163 -52.5h-253z"/>
<glyph glyph-name="C" horiz-adv-x="717" unicode="C" d="M50 357q0 155 101.5 258t257.5 103q161 0 258 -93l-50 -74q-39 35 -94.5 56t-109.5 21q-120 0 -190.5 -77t-70.5 -193q0 -117 72 -198t191 -81q59 0 116.5 24.5t100.5 67.5l53 -71q-112 -112 -273 -112t-261.5 105.5t-100.5 263.5z"/>
<glyph glyph-name="D" horiz-adv-x="737" unicode="D" d="M192 86h129q121 0 191.5 69.5t70.5 198.5q0 127 -71 196.5t-191 69.5h-129v-534zM93 0v706h235q163 0 260 -93.5t97 -258.5q0 -166 -97 -260t-260 -94h-235z"/>
<glyph glyph-name="E" horiz-adv-x="564" unicode="E" d="M93 0v706h411v-86h-312v-221h253v-86h-253v-227h329v-86h-428z"/>
<glyph glyph-name="F" horiz-adv-x="514" unicode="F" d="M93 0v706h389v-86h-290v-233h247v-86h-247v-301h-99z"/>
<glyph glyph-name="G" horiz-adv-x="762" unicode="G" d="M50 354q0 154 103 259t257 105q155 0 257 -86l-50 -73q-36 30 -91.5 49.5t-108.5 19.5q-120 0 -192.5 -78t-72.5 -194q0 -121 74 -199t185 -78q115 0 200 88v102h-114v86h205v-355h-87v44l1 30h-2q-37 -39 -95 -62.5t-122 -23.5q-145 0 -246 103.5t-101 262.5z"/>
<glyph glyph-name="H" horiz-adv-x="750" unicode="H" d="M93 0v706h99v-310h367v310h98v-706h-98v310h-367v-310h-99z"/>
<glyph glyph-name="I" horiz-adv-x="286" unicode="I" d="M93 0v706h99v-706h-99z"/>
<glyph glyph-name="J" horiz-adv-x="533" unicode="J" d="M28 203v35h98v-30q0 -56 27.5 -92.5t83.5 -36.5q48 0 79.5 30.5t31.5 94.5v416h-178v86h276v-503q0 -107 -61.5 -161t-147.5 -54t-147.5 54.5t-61.5 160.5z"/>
<glyph glyph-name="K" horiz-adv-x="614" unicode="K" d="M93 0v706h99v-297h105l179 297h109l-206 -335v-2l219 -369h-113l-188 323h-105v-323h-99z"/>
<glyph glyph-name="L" horiz-adv-x="526" unicode="L" d="M93 0v706h99v-620h317v-86h-416z"/>
<glyph glyph-name="M" horiz-adv-x="851" unicode="M" d="M66 0l58 706h103l163 -382l34 -95h2q19 56 35 95l163 382h103l57 -706h-98l-34 445q-2 22 -2 68v36h-2q-22 -65 -38 -104l-141 -318h-88l-140 318l-38 106h-2q1 -16 1 -37q0 -36 -3 -69l-34 -445h-99z"/>
<glyph glyph-name="N" horiz-adv-x="752" unicode="N" d="M93 0v706h98l315 -458l58 -103h2q-6 63 -6 103v458h98v-706h-97l-315 458l-58 103h-2q6 -63 6 -103v-458h-99z"/>
<glyph glyph-name="O" horiz-adv-x="823" unicode="O" d="M151 358q0 -119 74 -199t187 -80q112 0 186 80t74 199q0 115 -74 192.5t-186 77.5q-113 0 -187 -77.5t-74 -192.5zM49 358q0 153 103 256.5t260 103.5q156 0 259 -103.5t103 -256.5q0 -157 -103 -263.5t-259 -106.5t-259.5 106.5t-103.5 263.5z"/>
<glyph glyph-name="P" horiz-adv-x="606" unicode="P" d="M192 347h144q63 0 100 37t37 101q0 63 -36.5 99t-99.5 36h-145v-273zM93 0v706h259q98 0 159.5 -60.5t61.5 -160.5t-62 -162t-159 -62h-160v-261h-99z"/>
<glyph glyph-name="Q" horiz-adv-x="824" unicode="Q" d="M152 357q0 -117 74.5 -197.5t184.5 -80.5q91 0 154 52l-83 81l57 62l81 -83q52 72 52 166q0 116 -74.5 193.5t-186.5 77.5q-110 0 -184.5 -77.5t-74.5 -193.5zM50 357q0 154 103 257.5t258 103.5q158 0 260.5 -103.5t102.5 -257.5q0 -133 -82 -233l83 -80l-58 -62l-82 83 q-94 -77 -224 -77q-156 0 -258.5 107t-102.5 262z"/>
<glyph glyph-name="R" horiz-adv-x="628" unicode="R" d="M192 367h142q58 0 92 35.5t34 94.5q0 83 -66 111q-27 12 -85 12h-117v-253zM93 0v706h224q89 0 131 -19q52 -23 82 -71t30 -114q0 -68 -34.5 -121.5t-91.5 -72.5v-2q8 -10 20 -32l150 -274h-112l-149 281h-151v-281h-99z"/>
<glyph glyph-name="S" horiz-adv-x="545" unicode="S" d="M41 81l56 75q34 -33 82 -54.5t96 -21.5q56 0 90 27.5t34 73.5q0 43 -35 73.5t-85.5 51.5t-100.5 45t-85 67t-35 104q0 88 65.5 142t165.5 54q121 0 197 -72l-45 -81q-30 28 -72.5 45t-83.5 17q-55 0 -91 -27.5t-36 -72.5q0 -35 25 -62t63 -42.5t82 -36t82 -42.5t63 -62 t25 -93q0 -86 -60 -143.5t-165 -57.5q-137 0 -232 93z"/>
<glyph glyph-name="T" horiz-adv-x="615" unicode="T" d="M258 0v620h-243v86h584v-86h-243v-620h-98z"/>
<glyph glyph-name="U" horiz-adv-x="726" unicode="U" d="M85 250v456h99v-455q0 -81 48.5 -126.5t130.5 -45.5t130 45.5t48 127.5v454h99v-456q0 -118 -76 -190t-200 -72q-125 0 -202 72t-77 190z"/>
<glyph glyph-name="V" horiz-adv-x="644" unicode="V" d="M270 0l-258 706h106l176 -499l27 -97h2q14 59 27 97l177 499h105l-258 -706h-104z"/>
<glyph glyph-name="W" horiz-adv-x="941" unicode="W" d="M209 0l-180 706h104l123 -518l14 -75h2q6 36 16 75l139 518h87l138 -518l16 -75h2q4 37 13 75l131 518h102l-186 -706h-113l-124 458l-21 99h-4q-9 -53 -22 -99l-123 -458h-114z"/>
<glyph glyph-name="X" horiz-adv-x="598" unicode="X" d="M16 0l222 364l-208 342h113l111 -191l45 -84h2q20 45 43 84l112 191h114l-210 -342l223 -364h-111l-129 217l-44 81h-2q-21 -42 -43 -81l-128 -217h-110z"/>
<glyph glyph-name="Y" horiz-adv-x="592" unicode="Y" d="M247 0v299l-237 407h112l130 -232l43 -89h2q21 48 43 89l130 232h112l-237 -407v-299h-98z"/>
<glyph glyph-name="Z" horiz-adv-x="594" unicode="Z" d="M36 0v66l339 490q12 18 25 34t20 23l6 7v2q-19 -2 -52 -2h-321v86h496v-65l-340 -491q-12 -17 -24.5 -33t-18.5 -23l-7 -8v-2q18 2 52 2h342v-86h-517z"/>
<glyph glyph-name="bracketleft" horiz-adv-x="301" unicode="[" d="M86 -95v830h166v-73h-81v-683h81v-74h-166z"/>
<glyph glyph-name="backslash" horiz-adv-x="416" unicode="\" d="M292 -42l-254 786h86l254 -786h-86z"/>
<glyph glyph-name="bracketright" horiz-adv-x="301" unicode="]" d="M49 -21h81v683h-81v73h166v-830h-166v74z"/>
<glyph glyph-name="asciicircum" horiz-adv-x="612" unicode="^" d="M69 247l200 459h63l200 -459h-88l-144 352l-143 -352h-88z"/>
<glyph glyph-name="underscore" horiz-adv-x="597" unicode="_" d="M29 0h539v-78h-539v78z"/>
<glyph glyph-name="grave" horiz-adv-x="499" unicode="`" d="M256 755l-95 127h104l73 -127h-82z"/>
<glyph glyph-name="a" horiz-adv-x="527" unicode="a" d="M130 146q0 -33 25 -57t70 -24q60 0 98 50t38 111v19h-25q-206 0 -206 -99zM33 138q0 56 31 94t82.5 54.5t95.5 22.5t93 6h26v10q0 111 -111 111q-73 0 -142 -49l-39 71q31 26 84 43t105 17q96 0 148 -51t52 -147v-320h-91v51l3 40h-2q-23 -45 -67.5 -74t-98.5 -29 q-69 0 -119 41t-50 109z"/>
<glyph glyph-name="b" horiz-adv-x="601" unicode="b" d="M169 251q0 -73 37.5 -126t105.5 -53q62 0 104 48.5t42 131.5q0 82 -39.5 131.5t-103.5 49.5q-62 0 -104 -46t-42 -136zM75 0v706h97v-234l-4 -43h2q23 41 67.5 65t96.5 24q102 0 162 -73t60 -192q0 -120 -64 -192.5t-166 -72.5q-50 0 -93 24.5t-68 66.5h-2q3 -15 3 -38 v-41h-91z"/>
<glyph glyph-name="c" horiz-adv-x="545" unicode="c" d="M42 253q0 113 76.5 189t194.5 76q120 0 190 -74l-46 -68q-58 58 -140 58q-76 0 -126 -51.5t-50 -128.5q0 -78 50.5 -130t128.5 -52q42 0 84.5 18.5t71.5 49.5l39 -71q-35 -37 -89 -59t-113 -22q-119 0 -195 75t-76 190z"/>
<glyph glyph-name="d" horiz-adv-x="601" unicode="d" d="M143 253q0 -82 39.5 -131.5t103.5 -49.5q62 0 104 46t42 136q0 74 -37.5 126.5t-106.5 52.5q-62 0 -103.5 -48.5t-41.5 -131.5zM44 253q0 120 64 192.5t165 72.5q49 0 91 -21.5t66 -61.5h2q-2 15 -2 34v237h96v-706h-92v51l3 34h-2q-23 -43 -66.5 -70t-101.5 -27 q-101 0 -162 73t-61 192z"/>
<glyph glyph-name="e" horiz-adv-x="557" unicode="e" d="M146 310h271q-2 63 -36.5 98t-86.5 35q-57 0 -97.5 -35.5t-50.5 -97.5zM42 253q0 119 72 192t182 73q103 0 161 -67.5t58 -169.5q0 -13 -4 -41h-368q4 -79 53.5 -123.5t120.5 -44.5q83 0 149 59l41 -71q-36 -33 -89.5 -52.5t-106.5 -19.5q-118 0 -193.5 75.5t-75.5 189.5 z"/>
<glyph glyph-name="f" horiz-adv-x="339" unicode="f" d="M99 0v422h-63v79h63v22q0 48 14 83.5t34.5 55t48 31t49.5 15t45 3.5q18 0 37 -3v-84q-8 2 -25 2q-106 0 -106 -104v-21h119v-79h-119v-422h-97z"/>
<glyph glyph-name="g" horiz-adv-x="594" unicode="g" d="M143 267q0 -80 39.5 -128.5t107.5 -48.5q59 0 96.5 41t37.5 133q0 170 -143 170q-65 0 -101.5 -44.5t-36.5 -122.5zM123 -92q68 -34 139 -34t115.5 34.5t44.5 106.5v41l3 32h-2q-49 -82 -152 -82t-164.5 73t-61.5 185t59 183t162 71q51 0 94 -19t66 -58h3q-3 6 -3 15v50 h93v-485q0 -60 -21.5 -106t-58.5 -72.5t-81 -39.5t-94 -13q-89 0 -173 42z"/>
<glyph glyph-name="h" horiz-adv-x="603" unicode="h" d="M75 0v706h97v-262l-4 -42h2q21 44 71 80t119 36q173 0 173 -194v-324h-97v302q0 61 -19.5 94t-75.5 33q-73 0 -121 -53.5t-48 -135.5v-240h-97z"/>
<glyph glyph-name="i" horiz-adv-x="246" unicode="i" d="M75 0v506h97v-506h-97zM73 608v98h100v-98h-100z"/>
<glyph glyph-name="j" horiz-adv-x="246" unicode="j" d="M75 -11v517h97v-523q0 -48 -14.5 -84t-35 -55.5t-49 -31.5t-50.5 -15t-45 -3q-10 0 -34 2v83q10 -2 22 -2q18 0 34 4t34.5 14.5t29.5 34.5t11 59zM73 608v98h100v-98h-100z"/>
<glyph glyph-name="k" horiz-adv-x="522" unicode="k" d="M75 0v706h97v-386h72l137 186h110l-168 -223v-2l187 -281h-113l-151 237h-74v-237h-97z"/>
<glyph glyph-name="l" horiz-adv-x="267" unicode="l" d="M75 139v567h96v-551q0 -41 14.5 -56.5t40.5 -15.5q11 0 17 1v-86q-21 -3 -32 -3q-136 0 -136 144z"/>
<glyph glyph-name="m" horiz-adv-x="914" unicode="m" d="M75 0v506h94v-69l-3 -38h2q19 47 69 83t107 36q125 0 151 -115h2q22 47 71.5 81t108.5 34q86 0 126.5 -48t40.5 -146v-324h-97v303q0 61 -18.5 94t-70.5 33q-67 0 -108.5 -58.5t-41.5 -135.5v-236h-97v303q0 60 -17.5 93.5t-69.5 33.5q-68 0 -110 -59t-42 -135v-236h-97z "/>
<glyph glyph-name="n" horiz-adv-x="603" unicode="n" d="M75 0v506h94v-69l-3 -38h2q19 43 68.5 81t123.5 38q173 0 173 -194v-324h-97v302q0 61 -19.5 94t-75.5 33q-73 0 -121 -53.5t-48 -132.5v-243h-97z"/>
<glyph glyph-name="o" horiz-adv-x="629" unicode="o" d="M141 254q0 -79 50.5 -130.5t123.5 -51.5q72 0 123 52t51 130t-51 129t-123 51q-73 0 -123.5 -51t-50.5 -129zM42 254q0 113 79 188.5t193 75.5q115 0 194 -75t79 -189t-79 -190t-193 -76t-193.5 76t-79.5 190z"/>
<glyph glyph-name="p" horiz-adv-x="601" unicode="p" d="M169 251q0 -72 38.5 -125.5t104.5 -53.5q62 0 104 48.5t42 131.5q0 82 -39.5 131.5t-103.5 49.5q-62 0 -104 -46t-42 -136zM75 -200v706h90v-45l-3 -38h2q24 45 69 70t101 25q102 0 162 -73t60 -192q0 -120 -64 -192.5t-165 -72.5t-157 86h-2q4 -18 4 -44v-230h-97z"/>
<glyph glyph-name="q" horiz-adv-x="601" unicode="q" d="M143 253q0 -82 39.5 -131.5t103.5 -49.5q62 0 104 46t42 136q0 74 -37.5 126.5t-106.5 52.5q-62 0 -103.5 -48.5t-41.5 -131.5zM44 253q0 120 64 192.5t165 72.5q50 0 93.5 -23.5t67.5 -64.5h2q-2 15 -2 35v41h92v-706h-96v234l2 44h-2q-22 -39 -64.5 -64.5t-98.5 -25.5 q-101 0 -162 73t-61 192z"/>
<glyph glyph-name="r" horiz-adv-x="376" unicode="r" d="M75 0v506h94v-91l-3 -37h2q19 58 62 96t99 38q10 0 26 -2v-96q-8 2 -28 2q-76 0 -115.5 -61.5t-39.5 -144.5v-210h-97z"/>
<glyph glyph-name="s" horiz-adv-x="447" unicode="s" d="M32 62l46 66q61 -59 149 -59q39 0 62.5 17.5t23.5 48.5q0 26 -27 45t-65 33t-76 31t-65 49.5t-27 78.5q0 69 52 107.5t130 38.5q102 0 164 -56l-39 -70q-22 21 -57.5 33t-70.5 12q-39 0 -62.5 -16t-23.5 -47q0 -27 27 -46t65 -32.5t76.5 -30.5t65.5 -49.5t27 -78.5 q0 -65 -51 -107t-131 -42q-120 0 -193 74z"/>
<glyph glyph-name="t" horiz-adv-x="349" unicode="t" d="M96 185v237h-66v79h68v144h95v-144h122v-79h-122v-226q0 -29 8 -50.5t19.5 -33.5t27 -19t28 -9t25.5 -2t23 2v-86q-24 -3 -34 -3q-23 0 -45.5 3.5t-50.5 15t-48.5 31t-35 56t-14.5 84.5z"/>
<glyph glyph-name="u" horiz-adv-x="597" unicode="u" d="M69 182v324h97v-302q0 -60 20 -93t75 -33q75 0 120 56t45 135v237h96v-506h-94v70l4 37h-2q-20 -45 -70 -82t-118 -37q-173 0 -173 194z"/>
<glyph glyph-name="v" horiz-adv-x="528" unicode="v" d="M209 0l-190 506h103l123 -342l18 -69h2q8 41 17 69l123 342h102l-187 -506h-111z"/>
<glyph glyph-name="w" horiz-adv-x="828" unicode="w" d="M187 0l-163 506h103l105 -355l13 -54h2q6 28 14 54l109 354h90l109 -354l13 -54h2q5 28 13 54l106 355h101l-162 -506h-108l-104 325l-15 55h-2q-6 -29 -14 -55l-104 -325h-108z"/>
<glyph glyph-name="x" horiz-adv-x="499" unicode="x" d="M17 0l173 260l-163 246h111l94 -154l16 -30h2q10 17 17 30l94 154h111l-163 -246l173 -260h-110l-106 169l-16 27h-2q-7 -15 -15 -27l-106 -169h-110z"/>
<glyph glyph-name="y" horiz-adv-x="535" unicode="y" d="M50 -105q28 -22 58 -22q61 0 92 75l25 58l-212 500h109l127 -331l19 -61h2q8 34 17 60l123 332h105l-238 -597q-22 -58 -65.5 -88.5t-98.5 -30.5q-25 0 -49 8t-36 16l-12 7z"/>
<glyph glyph-name="z" horiz-adv-x="511" unicode="z" d="M36 0v56l256 320l41 47v2q-16 -2 -49 -2h-237v83h417v-56l-255 -320q-9 -12 -20 -23.5t-17 -17.5l-6 -6v-2q17 3 50 3h257v-84h-437z"/>
<glyph glyph-name="braceleft" horiz-adv-x="355" unicode="{" d="M126 77v96q0 44 -21.5 73t-63.5 36v86q40 8 62.5 36.5t22.5 74.5v84q0 45 12.5 78.5t30 51t42 28.5t42 13.5t35.5 2.5l23 -1v-74h-13q-13 0 -25 -3.5t-27.5 -13t-25 -32t-9.5 -56.5v-103q0 -44 -22 -78t-59 -49v-2q81 -32 81 -127v-115q0 -34 9.5 -57t25 -32.5 t27.5 -12.5t25 -3h13v-74q-9 -2 -23 -2q-18 0 -35.5 2.5t-42 13.5t-42 28.5t-30 51.5t-12.5 79z"/>
<glyph glyph-name="bar" horiz-adv-x="254" unicode="|" d="M84 -159v951h85v-951h-85z"/>
<glyph glyph-name="braceright" horiz-adv-x="355" unicode="}" d="M44 -22h14q13 0 24.5 3t27 12.5t25 32.5t9.5 57v115q0 45 21 79t60 48v2q-34 13 -57.5 47t-23.5 80v103q0 34 -9.5 56.5t-25 32t-27 13t-24.5 3.5h-14v74q9 1 23 1q18 0 35.5 -2.5t42 -13.5t42 -28.5t30 -51t12.5 -78.5v-84q0 -44 22 -74t63 -37v-86q-40 -5 -62.5 -35.5 t-22.5 -73.5v-96q0 -45 -12.5 -79t-30 -51.5t-42 -28.5t-42 -13.5t-35.5 -2.5l-23 2v74z"/>
<glyph glyph-name="asciitilde" horiz-adv-x="611" unicode="~" d="M68 204q0 85 36.5 127t103.5 42q35 0 63.5 -15.5t43.5 -33.5t37 -33.5t47 -15.5q36 0 51.5 28t15.5 66h79q0 -169 -139 -169q-29 0 -52.5 10t-39 24t-30 28.5t-32.5 24.5t-39 10q-35 0 -50 -28t-15 -65h-80z"/>
<glyph glyph-name="uni00A0" horiz-adv-x="250" unicode=" "/>
<glyph glyph-name="exclamdown" horiz-adv-x="254" unicode="¡" d="M176 505v-99h-100v99h100zM170 311l6 -512h-100l7 512h87z"/>
<glyph glyph-name="cent" horiz-adv-x="577" unicode="¢" d="M264 -12v85q-97 13 -154 91.5t-57 188.5q0 111 57 189.5t154 91.5v84h71v-84q65 -10 113.5 -50.5t74.5 -104.5l-88 -34q-44 99 -133 99q-71 0 -110.5 -53.5t-39.5 -137.5q0 -86 39 -138t111 -52q89 0 133 98l88 -34q-26 -61 -74.5 -104t-113.5 -50v-85h-71z"/>
<glyph glyph-name="sterling" horiz-adv-x="577" unicode="£" d="M48 0v86h61v233h-44v70h44v136q0 83 61.5 138t155.5 55q95 0 167 -64l-58 -69q-46 43 -108 43q-54 0 -86 -30.5t-32 -76.5v-132h184v-70h-184v-233h325v-86h-486z"/>
<glyph glyph-name="currency" horiz-adv-x="610" unicode="¤" d="M223 390h117q64 0 99.5 32.5t35.5 86.5t-35 85.5t-98 31.5h-119v-236zM124 0v170h-70v70h70v70h-70v80h70v316h233q103 0 161.5 -54t58.5 -147q0 -91 -62.5 -143.5t-161.5 -52.5h-130v-69h250v-70h-250v-170h-99z"/>
<glyph glyph-name="yen" horiz-adv-x="577" unicode="¥" d="M75 199v64h163v36l-26 48h-137v63h103l-165 296h113l118 -220l43 -101h2q21 54 43 101l119 220h113l-165 -296h101v-63h-135l-27 -48v-36h162v-64h-162v-199h-100v199h-163z"/>
<glyph glyph-name="section" horiz-adv-x="447" unicode="§" d="M51 -11l44 67q43 -37 97 -37q46 0 76 27.5t30 77.5q0 20 -6 45l-66 376h79l70 -390q5 -27 5 -45q0 -76 -51 -124t-137 -48q-82 0 -141 51zM143 111l-71 390q-5 19 -5 46q0 75 50.5 123t137.5 48q84 0 141 -51l-46 -64q-42 34 -95 34q-47 0 -76.5 -26t-29.5 -75 q0 -21 5 -40l68 -385h-79z"/>
<glyph glyph-name="dieresis" horiz-adv-x="499" unicode="¨" d="M126 781v101h80v-101h-80zM294 781v101h79v-101h-79z"/>
<glyph glyph-name="copyright" horiz-adv-x="823" unicode="©" d="M221 352q0 82 54.5 141t142.5 59q51 0 95 -27t68 -72l-62 -33q-13 26 -40.5 44.5t-58.5 18.5q-56 0 -90 -38t-34 -93q0 -56 33 -93.5t91 -37.5q31 0 57 17.5t42 45.5l62 -33q-21 -41 -65.5 -70t-97.5 -29q-89 0 -143 58.5t-54 141.5zM128 353q0 -125 81.5 -211.5 t200.5 -86.5q121 0 203.5 86t82.5 212t-82.5 212t-203.5 86q-119 0 -200.5 -86.5t-81.5 -211.5zM55 353q0 152 104 258.5t251 106.5q150 0 254.5 -106.5t104.5 -258.5t-104.5 -258.5t-254.5 -106.5q-147 0 -251 106.5t-104 258.5z"/>
<glyph glyph-name="ordfeminine" horiz-adv-x="426" unicode="ª" d="M74 265v57h274v-57h-274zM198 441q32 0 53.5 27.5t21.5 61.5v8h-12q-114 0 -114 -54q0 -19 13.5 -31t37.5 -12zM183 383q-44 0 -76.5 25.5t-32.5 70.5q0 110 189 110h10v6q0 63 -64 63q-41 0 -83 -28l-29 49q49 37 121 37q62 0 94.5 -32.5t32.5 -93.5v-201h-68v46h-2 q-11 -22 -36 -37t-56 -15z"/>
<glyph glyph-name="guillemotleft" horiz-adv-x="561" unicode="«" d="M209 77l-164 205l164 206h97l-164 -206l164 -205h-97zM247 282l164 206h97l-164 -206l164 -205h-97z"/>
<glyph glyph-name="logicalnot" horiz-adv-x="626" unicode="¬" d="M72 340v78h477v-268h-81v190h-396z"/>
<glyph glyph-name="uni00AD" horiz-adv-x="432" unicode="­" d="M70 242v86h292v-86h-292z"/>
<glyph glyph-name="registered" horiz-adv-x="823" unicode="®" d="M359 364h60q29 0 45 17t16 47q0 29 -16 45t-44 16h-61v-125zM288 166v378h146q53 0 85.5 -32t32.5 -84q0 -40 -21 -66.5t-48 -33.5v-2q4 -4 13 -21l73 -139h-79l-69 146h-62v-146h-71zM128 353q0 -125 81.5 -211.5t200.5 -86.5q121 0 203.5 86t82.5 212t-82.5 212 t-203.5 86q-119 0 -200.5 -86.5t-81.5 -211.5zM55 353q0 152 104 258.5t251 106.5q150 0 254.5 -106.5t104.5 -258.5t-104.5 -258.5t-254.5 -106.5q-147 0 -251 106.5t-104 258.5z"/>
<glyph glyph-name="macron" horiz-adv-x="499" unicode="¯" d="M123 784v71h254v-71h-254z"/>
<glyph glyph-name="degree" horiz-adv-x="409" unicode="°" d="M204 495q32 0 53.5 21.5t21.5 53.5q0 31 -22 53t-53 22t-52 -22t-21 -53q0 -32 21 -53.5t52 -21.5zM204 422q-63 0 -107 43t-44 105q0 61 44 104.5t107 43.5t108 -43.5t45 -104.5t-45 -104.5t-108 -43.5z"/>
<glyph glyph-name="plusminus" horiz-adv-x="577" unicode="±" d="M40 -95h497v-77h-497v77zM24 246v78h224v246h82v-246h223v-78h-223v-246h-82v246h-224z"/>
<glyph glyph-name="twosuperior" d="M47 423q-3 18 -3 36q0 47 22 83.5t53 59t62 42t53 42.5t22 50q0 28 -20.5 46.5t-51.5 18.5q-45 0 -85 -48l-49 45q21 31 58.5 51.5t78.5 20.5q62 0 103 -36.5t41 -94.5q0 -40 -20.5 -72t-50 -52.5t-59.5 -38.5t-52 -39.5t-24 -47.5h213v-66h-291z" unicode="²"/>
<glyph glyph-name="threesuperior" d="M182 413q-42 0 -82 17t-65 49l42 53q15 -21 43 -35.5t59 -14.5q34 0 58.5 22t24.5 54q0 33 -26 52t-62 19h-34l-17 38l89 103l25 24v2q-19 -3 -37 -3h-141v67h271v-48l-109 -126q50 -7 83.5 -39.5t33.5 -88.5q0 -59 -44 -102t-112 -43z" unicode="³"/>
<glyph glyph-name="acute" horiz-adv-x="499" unicode="´" d="M161 755l72 127h105l-96 -127h-81z"/>
<glyph glyph-name="mu" horiz-adv-x="601" unicode="µ" d="M162 20q8 -50 8 -80v-140h-86v706h97v-302q0 -61 19 -93.5t74 -32.5q76 0 120.5 56t44.5 135v237h97v-506h-93v69l2 36h-3q-2 -5 -6 -13t-19.5 -28t-34.5 -35.5t-53.5 -28t-73.5 -12.5q-63 0 -91 32h-2z"/>
<glyph glyph-name="mu" horiz-adv-x="601" unicode="μ" d="M162 20q8 -50 8 -80v-140h-86v706h97v-302q0 -61 19 -93.5t74 -32.5q76 0 120.5 56t44.5 135v237h97v-506h-93v69l2 36h-3q-2 -5 -6 -13t-19.5 -28t-34.5 -35.5t-53.5 -28t-73.5 -12.5q-63 0 -91 32h-2z"/>
<glyph glyph-name="paragraph" horiz-adv-x="597" unicode="¶" d="M411 -50v613h75v-613h-75zM275 -50v291q-97 0 -167 67.5t-70 165.5q0 97 69.5 164.5t167.5 67.5h271v-86h-197v-670h-74z"/>
<glyph glyph-name="periodcentered" horiz-adv-x="242" unicode="·" d="M70 238v105h101v-105h-101z"/>
<glyph glyph-name="cedilla" horiz-adv-x="499" unicode="¸" d="M190 -88l29 111l49 -11v-7l-12 -55q32 -4 52 -23t20 -50q0 -43 -29.5 -63.5t-72.5 -20.5q-28 0 -55 6v59q17 -7 42 -7q48 0 48 31t-53 31z"/>
<glyph glyph-name="onesuperior" d="M72 423v66h93v249l2 26h-2q-4 -9 -17 -22l-36 -34l-45 49l106 103h67v-371h92v-66h-260z" unicode="¹"/>
<glyph glyph-name="ordmasculine" horiz-adv-x="483" unicode="º" d="M86 265v57h312v-57h-312zM241 449q41 0 69.5 29t28.5 74q0 44 -28.5 72.5t-69.5 28.5q-42 0 -70.5 -28.5t-28.5 -72.5q0 -45 28.5 -74t70.5 -29zM241 384q-72 0 -121.5 47.5t-49.5 120.5q0 70 49.5 117.5t120.5 47.5q73 0 122.5 -47t49.5 -118q0 -73 -49.5 -120.5 t-121.5 -47.5z"/>
<glyph glyph-name="guillemotright" horiz-adv-x="561" unicode="»" d="M53 77l164 205l-164 206h97l164 -206l-164 -205h-97zM254 77l164 205l-164 206h97l164 -206l-164 -205h-97z"/>
<glyph glyph-name="onequarter" horiz-adv-x="954" unicode="¼" d="M60 270v66h93v249l2 26h-2q-4 -9 -17 -22l-36 -34l-45 49l106 103h67v-371h92v-66h-260zM336 0h-75l336 706h74zM652 173h126v123l3 58h-2q-13 -27 -29 -48l-98 -131v-2zM778 0v107h-207v50l200 280h81v-264h62v-66h-62v-107h-74z"/>
<glyph glyph-name="onehalf" horiz-adv-x="943" unicode="½" d="M59 270v66h93v249l2 26h-2q-4 -9 -17 -22l-36 -34l-45 49l106 103h67v-371h92v-66h-260zM336 0h-75l336 706h74zM602 0q-3 18 -3 36q0 47 22 83.5t53 59t62 42t53 42.5t22 50q0 28 -20.5 46.5t-51.5 18.5q-45 0 -85 -48l-49 45q21 31 58.5 51.5t78.5 20.5q62 0 103 -36.5 t41 -94.5q0 -40 -20.5 -72t-50 -52.5t-59.5 -38.5t-52 -39.5t-24 -47.5h213v-66h-291z"/>
<glyph glyph-name="threequarters" horiz-adv-x="970" unicode="¾" d="M351 0h-75l336 706h74zM190 260q-42 0 -82 17t-65 49l42 53q15 -21 43 -35.5t59 -14.5q34 0 58.5 22t24.5 54q0 33 -26 52t-62 19h-34l-17 38l89 103l25 24v2q-19 -3 -37 -3h-141v67h271v-48l-109 -126q50 -7 83.5 -39.5t33.5 -88.5q0 -59 -44 -102t-112 -43zM667 173 h126v123l3 58h-2q-13 -27 -29 -48l-98 -131v-2zM793 0v107h-207v50l200 280h81v-264h62v-66h-62v-107h-74z"/>
<glyph glyph-name="questiondown" horiz-adv-x="457" unicode="¿" d="M312 505v-99h-100v99h100zM309 311v-47q0 -42 -17.5 -76t-42.5 -57.5t-49.5 -45t-42 -49.5t-17.5 -61q0 -42 32.5 -70.5t81.5 -28.5q61 0 113 42l54 -69q-72 -64 -174 -64q-87 0 -148 51t-61 132q0 46 18 82.5t44 61t52.5 47t44.5 50.5t18 61v41h94z"/>
<glyph glyph-name="Agrave" horiz-adv-x="641" unicode="À" d="M281 755l-95 127h104l73 -127h-82zM213 285h214l-78 223l-28 101h-2q-15 -64 -27 -101zM15 0l253 706h105l253 -706h-102l-71 203h-266l-71 -203h-101z"/>
<glyph glyph-name="Aacute" horiz-adv-x="641" unicode="Á" d="M277 755l72 127h105l-96 -127h-81zM213 285h214l-78 223l-28 101h-2q-15 -64 -27 -101zM15 0l253 706h105l253 -706h-102l-71 203h-266l-71 -203h-101z"/>
<glyph glyph-name="Acircumflex" horiz-adv-x="641" unicode="Â" d="M181 755l88 127h100l89 -127h-85l-53 80h-2l-52 -80h-85zM213 285h214l-78 223l-28 101h-2q-15 -64 -27 -101zM15 0l253 706h105l253 -706h-102l-71 203h-266l-71 -203h-101z"/>
<glyph glyph-name="Atilde" horiz-adv-x="641" unicode="Ã" d="M151 756q0 127 102 127q29 0 51 -17t40 -34t35 -17q20 0 29.5 19.5t9.5 45.5h70q0 -127 -102 -127q-29 0 -51 17t-40 34t-35 17q-39 0 -39 -65h-70zM213 285h214l-78 223l-28 101h-2q-15 -64 -27 -101zM15 0l253 706h105l253 -706h-102l-71 203h-266l-71 -203h-101z"/>
<glyph glyph-name="Adieresis" horiz-adv-x="641" unicode="Ä" d="M196 781v101h80v-101h-80zM364 781v101h79v-101h-79zM213 285h214l-78 223l-28 101h-2q-15 -64 -27 -101zM15 0l253 706h105l253 -706h-102l-71 203h-266l-71 -203h-101z"/>
<glyph glyph-name="Aring" horiz-adv-x="641" unicode="Å" d="M320 784q14 0 23.5 9.5t9.5 23.5q0 16 -9.5 25.5t-23.5 9.5q-15 0 -24 -9.5t-9 -25.5q0 -14 9 -23.5t24 -9.5zM320 743q-35 0 -60 20.5t-25 53.5q0 34 25 54.5t60 20.5t59.5 -20.5t24.5 -54.5q0 -33 -25 -53.5t-59 -20.5zM213 285h214l-78 223l-28 101h-2 q-15 -64 -27 -101zM15 0l253 706h105l253 -706h-102l-71 203h-266l-71 -203h-101z"/>
<glyph glyph-name="AE" horiz-adv-x="877" unicode="Æ" d="M270 396h138v224h-47zM9 0l292 706h517v-86h-312v-221h253v-86h-253v-227h328v-86h-426v314h-171l-125 -314h-103z"/>
<glyph glyph-name="Ccedilla" horiz-adv-x="717" unicode="Ç" d="M352 -88l20 78q-145 13 -233.5 116t-88.5 251q0 155 101.5 258t257.5 103q161 0 258 -93l-50 -74q-39 35 -94.5 56t-109.5 21q-120 0 -190.5 -77t-70.5 -193q0 -117 72 -198t191 -81q59 0 116.5 24.5t100.5 67.5l53 -71q-106 -106 -259 -111l-8 -39q32 -4 52 -23t20 -50 q0 -43 -29.5 -63.5t-72.5 -20.5q-28 0 -55 6v59q17 -7 42 -7q48 0 48 31t-53 31z"/>
<glyph glyph-name="Egrave" horiz-adv-x="564" unicode="È" d="M270 755l-95 127h104l73 -127h-82zM93 0v706h411v-86h-312v-221h253v-86h-253v-227h329v-86h-428z"/>
<glyph glyph-name="Eacute" horiz-adv-x="564" unicode="É" d="M93 0v706h411v-86h-312v-221h253v-86h-253v-227h329v-86h-428zM265 755l72 127h105l-96 -127h-81z"/>
<glyph glyph-name="Ecircumflex" horiz-adv-x="564" unicode="Ê" d="M93 0v706h411v-86h-312v-221h253v-86h-253v-227h329v-86h-428zM170 755l88 127h100l89 -127h-85l-53 80h-2l-52 -80h-85z"/>
<glyph glyph-name="Edieresis" horiz-adv-x="564" unicode="Ë" d="M93 0v706h411v-86h-312v-221h253v-86h-253v-227h329v-86h-428zM186 781v101h80v-101h-80zM354 781v101h79v-101h-79z"/>
<glyph glyph-name="Igrave" horiz-adv-x="286" unicode="Ì" d="M105 755l-95 127h104l73 -127h-82zM93 0v706h99v-706h-99z"/>
<glyph glyph-name="Iacute" horiz-adv-x="286" unicode="Í" d="M101 755l72 127h105l-96 -127h-81zM93 0v706h99v-706h-99z"/>
<glyph glyph-name="Icircumflex" horiz-adv-x="286" unicode="Î" d="M6 755l88 127h100l89 -127h-85l-53 80h-2l-52 -80h-85zM93 0v706h99v-706h-99z"/>
<glyph glyph-name="Idieresis" horiz-adv-x="286" unicode="Ï" d="M21 781v101h80v-101h-80zM189 781v101h79v-101h-79zM93 0v706h99v-706h-99z"/>
<glyph glyph-name="Eth" horiz-adv-x="743" unicode="Ð" d="M197 86h130q121 0 191.5 69.5t70.5 198.5q0 127 -71 196.5t-191 69.5h-130v-226h150v-82h-150v-226zM99 0v312h-58v82h58v312h235q163 0 260 -93.5t97 -258.5q0 -166 -97 -260t-260 -94h-235z"/>
<glyph glyph-name="Ntilde" horiz-adv-x="752" unicode="Ñ" d="M207 756q0 127 102 127q29 0 51 -17t40 -34t35 -17q20 0 29.5 19.5t9.5 45.5h70q0 -127 -102 -127q-29 0 -51 17t-40 34t-35 17q-39 0 -39 -65h-70zM93 0v706h98l315 -458l58 -103h2q-6 63 -6 103v458h98v-706h-97l-315 458l-58 103h-2q6 -63 6 -103v-458h-99z"/>
<glyph glyph-name="Ograve" horiz-adv-x="823" unicode="Ò" d="M372 755l-95 127h104l73 -127h-82zM151 358q0 -119 74 -199t187 -80q112 0 186 80t74 199q0 115 -74 192.5t-186 77.5q-113 0 -187 -77.5t-74 -192.5zM49 358q0 153 103 256.5t260 103.5q156 0 259 -103.5t103 -256.5q0 -157 -103 -263.5t-259 -106.5t-259.5 106.5 t-103.5 263.5z"/>
<glyph glyph-name="Oacute" horiz-adv-x="823" unicode="Ó" d="M151 358q0 -119 74 -199t187 -80q112 0 186 80t74 199q0 115 -74 192.5t-186 77.5q-113 0 -187 -77.5t-74 -192.5zM49 358q0 153 103 256.5t260 103.5q156 0 259 -103.5t103 -256.5q0 -157 -103 -263.5t-259 -106.5t-259.5 106.5t-103.5 263.5zM368 755l72 127h105 l-96 -127h-81z"/>
<glyph glyph-name="Ocircumflex" horiz-adv-x="823" unicode="Ô" d="M151 358q0 -119 74 -199t187 -80q112 0 186 80t74 199q0 115 -74 192.5t-186 77.5q-113 0 -187 -77.5t-74 -192.5zM49 358q0 153 103 256.5t260 103.5q156 0 259 -103.5t103 -256.5q0 -157 -103 -263.5t-259 -106.5t-259.5 106.5t-103.5 263.5zM273 755l88 127h100 l89 -127h-85l-53 80h-2l-52 -80h-85z"/>
<glyph glyph-name="Otilde" horiz-adv-x="823" unicode="Õ" d="M243 756q0 127 102 127q29 0 51 -17t40 -34t35 -17q20 0 29.5 19.5t9.5 45.5h70q0 -127 -102 -127q-29 0 -51 17t-40 34t-35 17q-39 0 -39 -65h-70zM151 358q0 -119 74 -199t187 -80q112 0 186 80t74 199q0 115 -74 192.5t-186 77.5q-113 0 -187 -77.5t-74 -192.5z M49 358q0 153 103 256.5t260 103.5q156 0 259 -103.5t103 -256.5q0 -157 -103 -263.5t-259 -106.5t-259.5 106.5t-103.5 263.5z"/>
<glyph glyph-name="Odieresis" horiz-adv-x="823" unicode="Ö" d="M151 358q0 -119 74 -199t187 -80q112 0 186 80t74 199q0 115 -74 192.5t-186 77.5q-113 0 -187 -77.5t-74 -192.5zM49 358q0 153 103 256.5t260 103.5q156 0 259 -103.5t103 -256.5q0 -157 -103 -263.5t-259 -106.5t-259.5 106.5t-103.5 263.5zM288 781v101h80v-101h-80z M456 781v101h79v-101h-79z"/>
<glyph glyph-name="multiply" horiz-adv-x="577" unicode="×" d="M28 55l207 230l-207 230l56 55l204 -227l204 227l56 -55l-207 -230l207 -230l-56 -55l-204 227l-204 -227z"/>
<glyph glyph-name="Oslash" horiz-adv-x="822" unicode="Ø" d="M275 119q62 -40 136 -40q109 0 185 80t76 198q0 120 -83 198zM230 158l311 433q-60 37 -129 37q-109 0 -185 -78t-76 -193q0 -118 79 -199zM123 9l49 68q-57 51 -90 124t-33 156q0 153 105 257t258 104q100 0 185 -49l46 63l49 -34l-45 -63q60 -51 93.5 -122.5 t33.5 -155.5q0 -155 -104.5 -262t-257.5 -107q-106 0 -192 54l-47 -67z"/>
<glyph glyph-name="Ugrave" horiz-adv-x="726" unicode="Ù" d="M323 755l-95 127h104l73 -127h-82zM85 250v456h99v-455q0 -81 48.5 -126.5t130.5 -45.5t130 45.5t48 127.5v454h99v-456q0 -118 -76 -190t-200 -72q-125 0 -202 72t-77 190z"/>
<glyph glyph-name="Uacute" horiz-adv-x="726" unicode="Ú" d="M85 250v456h99v-455q0 -81 48.5 -126.5t130.5 -45.5t130 45.5t48 127.5v454h99v-456q0 -118 -76 -190t-200 -72q-125 0 -202 72t-77 190zM319 755l72 127h105l-96 -127h-81z"/>
<glyph glyph-name="Ucircumflex" horiz-adv-x="726" unicode="Û" d="M85 250v456h99v-455q0 -81 48.5 -126.5t130.5 -45.5t130 45.5t48 127.5v454h99v-456q0 -118 -76 -190t-200 -72q-125 0 -202 72t-77 190zM224 755l88 127h100l89 -127h-85l-53 80h-2l-52 -80h-85z"/>
<glyph glyph-name="Udieresis" horiz-adv-x="726" unicode="Ü" d="M85 250v456h99v-455q0 -81 48.5 -126.5t130.5 -45.5t130 45.5t48 127.5v454h99v-456q0 -118 -76 -190t-200 -72q-125 0 -202 72t-77 190zM239 781v101h80v-101h-80zM407 781v101h79v-101h-79z"/>
<glyph glyph-name="Yacute" horiz-adv-x="592" unicode="Ý" d="M252 755l72 127h105l-96 -127h-81zM247 0v299l-237 407h112l130 -232l43 -89h2q21 48 43 89l130 232h112l-237 -407v-299h-98z"/>
<glyph glyph-name="Thorn" horiz-adv-x="608" unicode="Þ" d="M192 227h144q63 0 100 37t37 101q0 63 -36.5 99t-99.5 36h-145v-273zM93 0v706h99v-120h160q98 0 159.5 -60.5t61.5 -160.5t-62 -162t-160 -62h-159v-141h-99z"/>
<glyph glyph-name="germandbls" horiz-adv-x="588" unicode="ß" d="M75 0v530q0 87 64.5 137.5t151.5 50.5q82 0 136 -46.5t54 -114.5q0 -33 -15.5 -61.5t-34.5 -45.5t-34.5 -38t-15.5 -41q0 -17 18.5 -35t45 -36t52.5 -38.5t44.5 -51t18.5 -65.5q0 -73 -49.5 -112.5t-121.5 -39.5q-87 0 -142 29v86q60 -31 130 -31q36 0 60 18t24 54 q0 27 -28 53.5t-61.5 46t-61.5 51.5t-28 68q0 28 16 54t34.5 43.5t34.5 42t16 48.5q0 31 -25.5 54.5t-69.5 23.5q-48 0 -82 -29t-34 -82v-523h-97z"/>
<glyph glyph-name="agrave" horiz-adv-x="527" unicode="à" d="M223 580l-95 127h104l73 -127h-82zM130 146q0 -33 25 -57t70 -24q60 0 98 50t38 111v19h-25q-206 0 -206 -99zM33 138q0 56 31 94t82.5 54.5t95.5 22.5t93 6h26v10q0 111 -111 111q-73 0 -142 -49l-39 71q31 26 84 43t105 17q96 0 148 -51t52 -147v-320h-91v51l3 40h-2 q-23 -45 -67.5 -74t-98.5 -29q-69 0 -119 41t-50 109z"/>
<glyph glyph-name="aacute" horiz-adv-x="527" unicode="á" d="M216 580l72 127h105l-96 -127h-81zM130 146q0 -33 25 -57t70 -24q60 0 98 50t38 111v19h-25q-206 0 -206 -99zM33 138q0 56 31 94t82.5 54.5t95.5 22.5t93 6h26v10q0 111 -111 111q-73 0 -142 -49l-39 71q31 26 84 43t105 17q96 0 148 -51t52 -147v-320h-91v51l3 40h-2 q-23 -45 -67.5 -74t-98.5 -29q-69 0 -119 41t-50 109z"/>
<glyph glyph-name="acircumflex" horiz-adv-x="527" unicode="â" d="M121 580l88 127h100l89 -127h-85l-53 80h-2l-52 -80h-85zM130 146q0 -33 25 -57t70 -24q60 0 98 50t38 111v19h-25q-206 0 -206 -99zM33 138q0 56 31 94t82.5 54.5t95.5 22.5t93 6h26v10q0 111 -111 111q-73 0 -142 -49l-39 71q31 26 84 43t105 17q96 0 148 -51t52 -147 v-320h-91v51l3 40h-2q-23 -45 -67.5 -74t-98.5 -29q-69 0 -119 41t-50 109z"/>
<glyph glyph-name="atilde" horiz-adv-x="527" unicode="ã" d="M92 581q0 127 102 127q29 0 51 -17t40 -34t35 -17q20 0 29.5 19.5t9.5 45.5h70q0 -127 -102 -127q-29 0 -51 17t-40 34t-35 17q-39 0 -39 -65h-70zM130 146q0 -33 25 -57t70 -24q60 0 98 50t38 111v19h-25q-206 0 -206 -99zM33 138q0 56 31 94t82.5 54.5t95.5 22.5t93 6 h26v10q0 111 -111 111q-73 0 -142 -49l-39 71q31 26 84 43t105 17q96 0 148 -51t52 -147v-320h-91v51l3 40h-2q-23 -45 -67.5 -74t-98.5 -29q-69 0 -119 41t-50 109z"/>
<glyph glyph-name="adieresis" horiz-adv-x="527" unicode="ä" d="M137 606v101h80v-101h-80zM305 606v101h79v-101h-79zM130 146q0 -33 25 -57t70 -24q60 0 98 50t38 111v19h-25q-206 0 -206 -99zM33 138q0 56 31 94t82.5 54.5t95.5 22.5t93 6h26v10q0 111 -111 111q-73 0 -142 -49l-39 71q31 26 84 43t105 17q96 0 148 -51t52 -147v-320 h-91v51l3 40h-2q-23 -45 -67.5 -74t-98.5 -29q-69 0 -119 41t-50 109z"/>
<glyph glyph-name="aring" horiz-adv-x="527" unicode="å" d="M260 609q14 0 23.5 9.5t9.5 23.5q0 16 -9.5 25.5t-23.5 9.5q-15 0 -24 -9.5t-9 -25.5q0 -14 9 -23.5t24 -9.5zM260 568q-35 0 -60 20.5t-25 53.5q0 34 25 54.5t60 20.5t59.5 -20.5t24.5 -54.5q0 -33 -25 -53.5t-59 -20.5zM130 146q0 -33 25 -57t70 -24q60 0 98 50t38 111 v19h-25q-206 0 -206 -99zM33 138q0 56 31 94t82.5 54.5t95.5 22.5t93 6h26v10q0 111 -111 111q-73 0 -142 -49l-39 71q31 26 84 43t105 17q96 0 148 -51t52 -147v-320h-91v51l3 40h-2q-23 -45 -67.5 -74t-98.5 -29q-69 0 -119 41t-50 109z"/>
<glyph glyph-name="ae" horiz-adv-x="863" unicode="æ" d="M132 147q0 -34 25 -57.5t71 -23.5q59 0 96.5 50.5t37.5 111.5v14h-48q-182 0 -182 -95zM458 313h264q-2 60 -36.5 93.5t-83.5 33.5q-57 0 -95.5 -33t-48.5 -94zM34 142q0 39 14.5 69t41.5 48t55 29.5t66.5 16.5t65 6.5t59.5 1.5h25v12q0 111 -114 111q-72 0 -140 -49 l-39 71q32 27 83.5 43.5t101.5 16.5q128 0 169 -89h2q60 89 179 89q101 0 159 -67t58 -168q0 -13 -2 -41h-364q4 -81 51 -125.5t118 -44.5q84 0 150 58l40 -70q-35 -32 -89 -52t-107 -20q-75 0 -131 33t-86 93h-2q-5 -14 -16.5 -31t-33 -40t-59 -38.5t-82.5 -15.5 q-73 0 -123 41t-50 112z"/>
<glyph glyph-name="ccedilla" horiz-adv-x="546" unicode="ç" d="M251 -88l20 79q-103 14 -166 86t-63 176q0 113 76.5 189t194.5 76q120 0 190 -74l-46 -68q-58 58 -140 58q-76 0 -126 -51.5t-50 -128.5q0 -78 50.5 -130t128.5 -52q42 0 84.5 18.5t71.5 49.5l39 -71q-71 -76 -190 -81l-8 -38q32 -4 52 -23t20 -50q0 -43 -29.5 -63.5 t-72.5 -20.5q-28 0 -55 6v59q18 -7 42 -7q48 0 48 31t-53 31z"/>
<glyph glyph-name="egrave" horiz-adv-x="557" unicode="è" d="M257 580l-95 127h104l73 -127h-82zM146 310h271q-2 63 -36.5 98t-86.5 35q-57 0 -97.5 -35.5t-50.5 -97.5zM42 253q0 119 72 192t182 73q103 0 161 -67.5t58 -169.5q0 -13 -4 -41h-368q4 -79 53.5 -123.5t120.5 -44.5q83 0 149 59l41 -71q-36 -33 -89.5 -52.5 t-106.5 -19.5q-118 0 -193.5 75.5t-75.5 189.5z"/>
<glyph glyph-name="eacute" horiz-adv-x="557" unicode="é" d="M146 310h271q-2 63 -36.5 98t-86.5 35q-57 0 -97.5 -35.5t-50.5 -97.5zM42 253q0 119 72 192t182 73q103 0 161 -67.5t58 -169.5q0 -13 -4 -41h-368q4 -79 53.5 -123.5t120.5 -44.5q83 0 149 59l41 -71q-36 -33 -89.5 -52.5t-106.5 -19.5q-118 0 -193.5 75.5t-75.5 189.5 zM251 580l72 127h105l-96 -127h-81z"/>
<glyph glyph-name="ecircumflex" horiz-adv-x="557" unicode="ê" d="M146 310h271q-2 63 -36.5 98t-86.5 35q-57 0 -97.5 -35.5t-50.5 -97.5zM42 253q0 119 72 192t182 73q103 0 161 -67.5t58 -169.5q0 -13 -4 -41h-368q4 -79 53.5 -123.5t120.5 -44.5q83 0 149 59l41 -71q-36 -33 -89.5 -52.5t-106.5 -19.5q-118 0 -193.5 75.5t-75.5 189.5 zM156 580l88 127h100l89 -127h-85l-53 80h-2l-52 -80h-85z"/>
<glyph glyph-name="edieresis" horiz-adv-x="557" unicode="ë" d="M146 310h271q-2 63 -36.5 98t-86.5 35q-57 0 -97.5 -35.5t-50.5 -97.5zM42 253q0 119 72 192t182 73q103 0 161 -67.5t58 -169.5q0 -13 -4 -41h-368q4 -79 53.5 -123.5t120.5 -44.5q83 0 149 59l41 -71q-36 -33 -89.5 -52.5t-106.5 -19.5q-118 0 -193.5 75.5t-75.5 189.5 zM172 606v101h80v-101h-80zM340 606v101h79v-101h-79z"/>
<glyph glyph-name="igrave" horiz-adv-x="246" unicode="ì" d="M86 580l-95 127h104l73 -127h-82zM75 0v506h97v-506h-97z"/>
<glyph glyph-name="iacute" horiz-adv-x="246" unicode="í" d="M75 0v506h97v-506h-97zM81 580l72 127h105l-96 -127h-81z"/>
<glyph glyph-name="icircumflex" horiz-adv-x="246" unicode="î" d="M75 0v506h97v-506h-97zM-14 580l88 127h100l89 -127h-85l-53 80h-2l-52 -80h-85z"/>
<glyph glyph-name="idieresis" horiz-adv-x="246" unicode="ï" d="M75 0v506h97v-506h-97zM2 606v101h80v-101h-80zM170 606v101h79v-101h-79z"/>
<glyph glyph-name="eth" horiz-adv-x="581" unicode="ð" d="M143 233q0 -66 37 -114t104 -48q75 0 113.5 56.5t38.5 130.5q0 57 -38.5 93.5t-102.5 36.5q-73 0 -112.5 -45.5t-39.5 -109.5zM44 235q0 94 63.5 162.5t173.5 68.5q36 0 66.5 -10.5t43.5 -21.5l13 -10h2q-30 80 -109 133l-181 -80l-10 62l124 55q-56 29 -129 46l27 79 q121 -29 207 -80l139 61l9 -61l-92 -42q144 -120 144 -322q0 -53 -14.5 -102t-43.5 -91.5t-80 -68t-116 -25.5q-108 0 -172.5 73.5t-64.5 173.5z"/>
<glyph glyph-name="ntilde" horiz-adv-x="603" unicode="ñ" d="M143 581q0 127 102 127q29 0 51 -17t40 -34t35 -17q20 0 29.5 19.5t9.5 45.5h70q0 -127 -102 -127q-29 0 -51 17t-40 34t-35 17q-39 0 -39 -65h-70zM75 0v506h94v-69l-3 -38h2q19 43 68.5 81t123.5 38q173 0 173 -194v-324h-97v302q0 61 -19.5 94t-75.5 33 q-73 0 -121 -53.5t-48 -132.5v-243h-97z"/>
<glyph glyph-name="ograve" horiz-adv-x="629" unicode="ò" d="M275 580l-95 127h104l73 -127h-82zM141 254q0 -79 50.5 -130.5t123.5 -51.5q72 0 123 52t51 130t-51 129t-123 51q-73 0 -123.5 -51t-50.5 -129zM42 254q0 113 79 188.5t193 75.5q115 0 194 -75t79 -189t-79 -190t-193 -76t-193.5 76t-79.5 190z"/>
<glyph glyph-name="oacute" horiz-adv-x="629" unicode="ó" d="M141 254q0 -79 50.5 -130.5t123.5 -51.5q72 0 123 52t51 130t-51 129t-123 51q-73 0 -123.5 -51t-50.5 -129zM42 254q0 113 79 188.5t193 75.5q115 0 194 -75t79 -189t-79 -190t-193 -76t-193.5 76t-79.5 190zM271 580l72 127h105l-96 -127h-81z"/>
<glyph glyph-name="ocircumflex" horiz-adv-x="629" unicode="ô" d="M141 254q0 -79 50.5 -130.5t123.5 -51.5q72 0 123 52t51 130t-51 129t-123 51q-73 0 -123.5 -51t-50.5 -129zM42 254q0 113 79 188.5t193 75.5q115 0 194 -75t79 -189t-79 -190t-193 -76t-193.5 76t-79.5 190zM176 580l88 127h100l89 -127h-85l-53 80h-2l-52 -80h-85z "/>
<glyph glyph-name="otilde" horiz-adv-x="629" unicode="õ" d="M146 581q0 127 102 127q29 0 51 -17t40 -34t35 -17q20 0 29.5 19.5t9.5 45.5h70q0 -127 -102 -127q-29 0 -51 17t-40 34t-35 17q-39 0 -39 -65h-70zM141 254q0 -79 50.5 -130.5t123.5 -51.5q72 0 123 52t51 130t-51 129t-123 51q-73 0 -123.5 -51t-50.5 -129zM42 254 q0 113 79 188.5t193 75.5q115 0 194 -75t79 -189t-79 -190t-193 -76t-193.5 76t-79.5 190z"/>
<glyph glyph-name="odieresis" horiz-adv-x="629" unicode="ö" d="M141 254q0 -79 50.5 -130.5t123.5 -51.5q72 0 123 52t51 130t-51 129t-123 51q-73 0 -123.5 -51t-50.5 -129zM42 254q0 113 79 188.5t193 75.5q115 0 194 -75t79 -189t-79 -190t-193 -76t-193.5 76t-79.5 190zM191 606v101h80v-101h-80zM359 606v101h79v-101h-79z"/>
<glyph glyph-name="divide" horiz-adv-x="577" unicode="÷" d="M241 44v91h94v-91h-94zM36 246v78h505v-78h-505zM241 435v91h94v-91h-94z"/>
<glyph glyph-name="oslash" horiz-adv-x="630" unicode="ø" d="M239 90q38 -18 76 -18q73 0 123.5 51.5t50.5 130.5q0 72 -46 120zM192 125l206 287q-38 22 -83 22q-72 0 -123 -51t-51 -129q0 -76 51 -129zM100 -4l38 53q-96 78 -96 205q0 114 79 189t194 75q72 0 135 -33l40 55l47 -34l-39 -54q90 -77 90 -198q0 -114 -79.5 -190 t-193.5 -76q-71 0 -128 30l-39 -56z"/>
<glyph glyph-name="ugrave" horiz-adv-x="597" unicode="ù" d="M257 580l-95 127h104l73 -127h-82zM69 182v324h97v-302q0 -60 20 -93t75 -33q75 0 120 56t45 135v237h96v-506h-94v70l4 37h-2q-20 -45 -70 -82t-118 -37q-173 0 -173 194z"/>
<glyph glyph-name="uacute" horiz-adv-x="597" unicode="ú" d="M69 182v324h97v-302q0 -60 20 -93t75 -33q75 0 120 56t45 135v237h96v-506h-94v70l4 37h-2q-20 -45 -70 -82t-118 -37q-173 0 -173 194zM252 580l72 127h105l-96 -127h-81z"/>
<glyph glyph-name="ucircumflex" horiz-adv-x="597" unicode="û" d="M69 182v324h97v-302q0 -60 20 -93t75 -33q75 0 120 56t45 135v237h96v-506h-94v70l4 37h-2q-20 -45 -70 -82t-118 -37q-173 0 -173 194zM156 580l88 127h100l89 -127h-85l-53 80h-2l-52 -80h-85z"/>
<glyph glyph-name="udieresis" horiz-adv-x="597" unicode="ü" d="M69 182v324h97v-302q0 -60 20 -93t75 -33q75 0 120 56t45 135v237h96v-506h-94v70l4 37h-2q-20 -45 -70 -82t-118 -37q-173 0 -173 194zM172 606v101h80v-101h-80zM340 606v101h79v-101h-79z"/>
<glyph glyph-name="yacute" horiz-adv-x="535" unicode="ý" d="M225 580l72 127h105l-96 -127h-81zM50 -105q28 -22 58 -22q61 0 92 75l25 58l-212 500h109l127 -331l19 -61h2q8 34 17 60l123 332h105l-238 -597q-22 -58 -65.5 -88.5t-98.5 -30.5q-25 0 -49 8t-36 16l-12 7z"/>
<glyph glyph-name="thorn" horiz-adv-x="600" unicode="þ" d="M169 252q0 -80 39.5 -130.5t105.5 -50.5q62 0 103 50.5t41 131.5q0 80 -39.5 130.5t-102.5 50.5t-105 -45t-42 -137zM75 -200v906h97v-231l-2 -41h2q21 38 62.5 61t97.5 23q102 0 163 -74t61 -191t-63.5 -191t-163.5 -74q-48 0 -91.5 21.5t-65.5 61.5h-2q2 -18 2 -44 v-227h-97z"/>
<glyph glyph-name="ydieresis" horiz-adv-x="535" unicode="ÿ" d="M145 606v101h80v-101h-80zM313 606v101h79v-101h-79zM50 -105q28 -22 58 -22q61 0 92 75l25 58l-212 500h109l127 -331l19 -61h2q8 34 17 60l123 332h105l-238 -597q-22 -58 -65.5 -88.5t-98.5 -30.5q-25 0 -49 8t-36 16l-12 7z"/>
<glyph glyph-name="Amacron" horiz-adv-x="641" unicode="Ā" d="M193 784v71h254v-71h-254zM213 285h214l-78 223l-28 101h-2q-15 -64 -27 -101zM15 0l253 706h105l253 -706h-102l-71 203h-266l-71 -203h-101z"/>
<glyph glyph-name="amacron" horiz-adv-x="527" unicode="ā" d="M134 609v71h254v-71h-254zM130 146q0 -33 25 -57t70 -24q60 0 98 50t38 111v19h-25q-206 0 -206 -99zM33 138q0 56 31 94t82.5 54.5t95.5 22.5t93 6h26v10q0 111 -111 111q-73 0 -142 -49l-39 71q31 26 84 43t105 17q96 0 148 -51t52 -147v-320h-91v51l3 40h-2 q-23 -45 -67.5 -74t-98.5 -29q-69 0 -119 41t-50 109z"/>
<glyph glyph-name="Abreve" horiz-adv-x="641" unicode="Ă" d="M320 751q-55 0 -93.5 31t-38.5 86v14h72v-13q0 -30 17.5 -45t42.5 -15q24 0 41.5 15.5t17.5 45.5v12h72v-14q0 -55 -38.5 -86t-92.5 -31zM213 285h214l-78 223l-28 101h-2q-15 -64 -27 -101zM15 0l253 706h105l253 -706h-102l-71 203h-266l-71 -203h-101z"/>
<glyph glyph-name="abreve" horiz-adv-x="527" unicode="ă" d="M260 576q-55 0 -93.5 31t-38.5 86v14h72v-13q0 -30 17.5 -45t42.5 -15q24 0 41.5 15.5t17.5 45.5v12h72v-14q0 -55 -38.5 -86t-92.5 -31zM130 146q0 -33 25 -57t70 -24q60 0 98 50t38 111v19h-25q-206 0 -206 -99zM33 138q0 56 31 94t82.5 54.5t95.5 22.5t93 6h26v10 q0 111 -111 111q-73 0 -142 -49l-39 71q31 26 84 43t105 17q96 0 148 -51t52 -147v-320h-91v51l3 40h-2q-23 -45 -67.5 -74t-98.5 -29q-69 0 -119 41t-50 109z"/>
<glyph glyph-name="Aogonek" horiz-adv-x="641" unicode="Ą" d="M213 285h214l-78 223l-28 101h-2q-15 -64 -27 -101zM15 0l253 706h105l253 -706q-64 -51 -64 -89q0 -17 14 -27.5t28 -13.5l13 -2l-23 -75q-5 0 -12.5 1.5t-27.5 7.5t-35.5 15.5t-28 28t-12.5 42.5q0 60 66 112h-20l-71 203h-266l-71 -203h-101z"/>
<glyph glyph-name="aogonek" horiz-adv-x="527" unicode="ą" d="M130 146q0 -33 25 -57t70 -24q60 0 98 50t38 111v19h-25q-206 0 -206 -99zM33 138q0 56 31 94t82.5 54.5t95.5 22.5t93 6h26v10q0 111 -111 111q-73 0 -142 -49l-39 71q31 26 84 43t105 17q96 0 148 -51t52 -147v-320q-65 -50 -65 -89q0 -17 13.5 -27.5t27.5 -13.5l14 -2 l-22 -75q-5 0 -13 1.5t-28 7.5t-35.5 15.5t-28 28t-12.5 42.5q0 57 69 112h-11v51l3 40h-2q-23 -45 -67.5 -74t-98.5 -29q-69 0 -119 41t-50 109z"/>
<glyph glyph-name="Cacute" horiz-adv-x="717" unicode="Ć" d="M50 357q0 155 101.5 258t257.5 103q161 0 258 -93l-50 -74q-39 35 -94.5 56t-109.5 21q-120 0 -190.5 -77t-70.5 -193q0 -117 72 -198t191 -81q59 0 116.5 24.5t100.5 67.5l53 -71q-112 -112 -273 -112t-261.5 105.5t-100.5 263.5zM358 755l72 127h105l-96 -127h-81z"/>
<glyph glyph-name="cacute" horiz-adv-x="545" unicode="ć" d="M42 253q0 113 76.5 189t194.5 76q120 0 190 -74l-46 -68q-58 58 -140 58q-76 0 -126 -51.5t-50 -128.5q0 -78 50.5 -130t128.5 -52q42 0 84.5 18.5t71.5 49.5l39 -71q-35 -37 -89 -59t-113 -22q-119 0 -195 75t-76 190zM249 580l72 127h105l-96 -127h-81z"/>
<glyph glyph-name="Ccircumflex" horiz-adv-x="717" unicode="Ĉ" d="M50 357q0 155 101.5 258t257.5 103q161 0 258 -93l-50 -74q-39 35 -94.5 56t-109.5 21q-120 0 -190.5 -77t-70.5 -193q0 -117 72 -198t191 -81q59 0 116.5 24.5t100.5 67.5l53 -71q-112 -112 -273 -112t-261.5 105.5t-100.5 263.5zM263 755l88 127h100l89 -127h-85 l-53 80h-2l-52 -80h-85z"/>
<glyph glyph-name="ccircumflex" horiz-adv-x="545" unicode="ĉ" d="M42 253q0 113 76.5 189t194.5 76q120 0 190 -74l-46 -68q-58 58 -140 58q-76 0 -126 -51.5t-50 -128.5q0 -78 50.5 -130t128.5 -52q42 0 84.5 18.5t71.5 49.5l39 -71q-35 -37 -89 -59t-113 -22q-119 0 -195 75t-76 190zM154 580l88 127h100l89 -127h-85l-53 80h-2 l-52 -80h-85z"/>
<glyph glyph-name="Cdotaccent" horiz-adv-x="717" unicode="Ċ" d="M359 784v98h86v-98h-86zM50 357q0 155 101.5 258t257.5 103q161 0 258 -93l-50 -74q-39 35 -94.5 56t-109.5 21q-120 0 -190.5 -77t-70.5 -193q0 -117 72 -198t191 -81q59 0 116.5 24.5t100.5 67.5l53 -71q-112 -112 -273 -112t-261.5 105.5t-100.5 263.5z"/>
<glyph glyph-name="cdotaccent" horiz-adv-x="545" unicode="ċ" d="M251 609v98h86v-98h-86zM42 253q0 113 76.5 189t194.5 76q120 0 190 -74l-46 -68q-58 58 -140 58q-76 0 -126 -51.5t-50 -128.5q0 -78 50.5 -130t128.5 -52q42 0 84.5 18.5t71.5 49.5l39 -71q-35 -37 -89 -59t-113 -22q-119 0 -195 75t-76 190z"/>
<glyph glyph-name="Ccaron" horiz-adv-x="717" unicode="Č" d="M50 357q0 155 101.5 258t257.5 103q161 0 258 -93l-50 -74q-39 35 -94.5 56t-109.5 21q-120 0 -190.5 -77t-70.5 -193q0 -117 72 -198t191 -81q59 0 116.5 24.5t100.5 67.5l53 -71q-112 -112 -273 -112t-261.5 105.5t-100.5 263.5zM351 755l-88 127h85l52 -81h2l53 81h85 l-89 -127h-100z"/>
<glyph glyph-name="ccaron" horiz-adv-x="545" unicode="č" d="M42 253q0 113 76.5 189t194.5 76q120 0 190 -74l-46 -68q-58 58 -140 58q-76 0 -126 -51.5t-50 -128.5q0 -78 50.5 -130t128.5 -52q42 0 84.5 18.5t71.5 49.5l39 -71q-35 -37 -89 -59t-113 -22q-119 0 -195 75t-76 190zM242 580l-88 127h85l52 -81h2l53 81h85l-89 -127 h-100z"/>
<glyph glyph-name="Dcaron" horiz-adv-x="737" unicode="Ď" d="M192 86h129q121 0 191.5 69.5t70.5 198.5q0 127 -71 196.5t-191 69.5h-129v-534zM93 0v706h235q163 0 260 -93.5t97 -258.5q0 -166 -97 -260t-260 -94h-235zM291 755l-88 127h85l52 -81h2l53 81h85l-89 -127h-100z"/>
<glyph glyph-name="dcaron" horiz-adv-x="610" unicode="ď" d="M143 253q0 -82 39.5 -131.5t103.5 -49.5q62 0 104 46t42 136q0 74 -37.5 126.5t-106.5 52.5q-62 0 -103.5 -48.5t-41.5 -131.5zM44 253q0 120 64 192.5t165 72.5q49 0 91 -21.5t66 -61.5h2q-2 15 -2 34v237h96v-706h-92v51l3 34h-2q-23 -43 -66.5 -70t-101.5 -27 q-101 0 -162 73t-61 192zM583 705h85q7 -27 7 -51q0 -41 -25 -94h-74q19 54 19 84t-12 61z"/>
<glyph glyph-name="Dcroat" horiz-adv-x="743" unicode="Đ" d="M197 86h130q121 0 191.5 69.5t70.5 198.5q0 127 -71 196.5t-191 69.5h-130v-226h150v-82h-150v-226zM99 0v312h-58v82h58v312h235q163 0 260 -93.5t97 -258.5q0 -166 -97 -260t-260 -94h-235z"/>
<glyph glyph-name="dcroat" horiz-adv-x="601" unicode="đ" d="M143 253q0 -82 39.5 -131.5t103.5 -49.5q62 0 104 46t42 136q0 74 -37.5 127t-106.5 53q-62 0 -103.5 -49t-41.5 -132zM44 253q0 120 64 192.5t165 72.5q48 0 90.5 -20.5t65.5 -59.5h2q-1 15 -1 34v91h-131v63h131v80h96v-80h76v-63h-76v-563h-92v48l1 34h-2 q-23 -43 -66 -68.5t-100 -25.5q-101 0 -162 73t-61 192z"/>
<glyph glyph-name="Emacron" horiz-adv-x="564" unicode="Ē" d="M183 784v71h254v-71h-254zM93 0v706h411v-86h-312v-221h253v-86h-253v-227h329v-86h-428z"/>
<glyph glyph-name="emacron" horiz-adv-x="557" unicode="ē" d="M169 609v71h254v-71h-254zM146 310h271q-2 63 -36.5 98t-86.5 35q-57 0 -97.5 -35.5t-50.5 -97.5zM42 253q0 119 72 192t182 73q103 0 161 -67.5t58 -169.5q0 -13 -4 -41h-368q4 -79 53.5 -123.5t120.5 -44.5q83 0 149 59l41 -71q-36 -33 -89.5 -52.5t-106.5 -19.5 q-118 0 -193.5 75.5t-75.5 189.5z"/>
<glyph glyph-name="Ebreve" horiz-adv-x="564" unicode="Ĕ" d="M309 751q-55 0 -93.5 31t-38.5 86v14h72v-13q0 -30 17.5 -45t42.5 -15q24 0 41.5 15.5t17.5 45.5v12h72v-14q0 -55 -38.5 -86t-92.5 -31zM93 0v706h411v-86h-312v-221h253v-86h-253v-227h329v-86h-428z"/>
<glyph glyph-name="ebreve" horiz-adv-x="557" unicode="ĕ" d="M295 576q-55 0 -93.5 31t-38.5 86v14h72v-13q0 -30 17.5 -45t42.5 -15q24 0 41.5 15.5t17.5 45.5v12h72v-14q0 -55 -38.5 -86t-92.5 -31zM146 310h271q-2 63 -36.5 98t-86.5 35q-57 0 -97.5 -35.5t-50.5 -97.5zM42 253q0 119 72 192t182 73q103 0 161 -67.5t58 -169.5 q0 -13 -4 -41h-368q4 -79 53.5 -123.5t120.5 -44.5q83 0 149 59l41 -71q-36 -33 -89.5 -52.5t-106.5 -19.5q-118 0 -193.5 75.5t-75.5 189.5z"/>
<glyph glyph-name="Edotaccent" horiz-adv-x="564" unicode="Ė" d="M266 784v98h86v-98h-86zM93 0v706h411v-86h-312v-221h253v-86h-253v-227h329v-86h-428z"/>
<glyph glyph-name="edotaccent" horiz-adv-x="557" unicode="ė" d="M252 609v98h86v-98h-86zM146 310h271q-2 63 -36.5 98t-86.5 35q-57 0 -97.5 -35.5t-50.5 -97.5zM42 253q0 119 72 192t182 73q103 0 161 -67.5t58 -169.5q0 -13 -4 -41h-368q4 -79 53.5 -123.5t120.5 -44.5q83 0 149 59l41 -71q-36 -33 -89.5 -52.5t-106.5 -19.5 q-118 0 -193.5 75.5t-75.5 189.5z"/>
<glyph glyph-name="Eogonek" horiz-adv-x="564" unicode="Ę" d="M93 0v706h411v-86h-312v-221h253v-86h-253v-227h329v-86q-65 -50 -65 -89q0 -17 14 -27.5t28 -13.5l14 -2l-23 -75q-5 0 -12.5 1.5t-27.5 7.5t-35.5 15.5t-28 28t-12.5 42.5q0 59 71 112h-351z"/>
<glyph glyph-name="eogonek" horiz-adv-x="557" unicode="ę" d="M146 310h271q-2 63 -36.5 98t-86.5 35q-57 0 -97.5 -36t-50.5 -97zM42 253q0 119 72 192t182 73q103 0 161 -67.5t58 -169.5l-4 -41h-368q4 -79 53.5 -123.5t120.5 -44.5q82 0 149 59l40 -71q-10 -10 -48.5 -38t-62 -55t-23.5 -56q0 -17 14 -27.5t28 -13.5l13 -2l-22 -75 q-5 0 -13 1.5t-28 7.5t-35.5 15.5t-28 28t-12.5 42.5q0 53 61 104q-22 -4 -38 -4q-118 0 -193.5 75.5t-75.5 189.5z"/>
<glyph glyph-name="Ecaron" horiz-adv-x="564" unicode="Ě" d="M93 0v706h411v-86h-312v-221h253v-86h-253v-227h329v-86h-428zM258 755l-88 127h85l52 -81h2l53 81h85l-89 -127h-100z"/>
<glyph glyph-name="ecaron" horiz-adv-x="557" unicode="ě" d="M146 310h271q-2 63 -36.5 98t-86.5 35q-57 0 -97.5 -35.5t-50.5 -97.5zM42 253q0 119 72 192t182 73q103 0 161 -67.5t58 -169.5q0 -13 -4 -41h-368q4 -79 53.5 -123.5t120.5 -44.5q83 0 149 59l41 -71q-36 -33 -89.5 -52.5t-106.5 -19.5q-118 0 -193.5 75.5t-75.5 189.5 zM244 580l-88 127h85l52 -81h2l53 81h85l-89 -127h-100z"/>
<glyph glyph-name="Gcircumflex" horiz-adv-x="762" unicode="Ĝ" d="M50 354q0 154 103 259t257 105q155 0 257 -86l-50 -73q-36 30 -91.5 49.5t-108.5 19.5q-120 0 -192.5 -78t-72.5 -194q0 -121 74 -199t185 -78q115 0 200 88v102h-114v86h205v-355h-87v44l1 30h-2q-37 -39 -95 -62.5t-122 -23.5q-145 0 -246 103.5t-101 262.5zM260 755 l88 127h100l89 -127h-85l-53 80h-2l-52 -80h-85z"/>
<glyph glyph-name="gcircumflex" horiz-adv-x="594" unicode="ĝ" d="M143 267q0 -80 39.5 -128.5t107.5 -48.5q59 0 96.5 41t37.5 133q0 170 -143 170q-65 0 -101.5 -44.5t-36.5 -122.5zM123 -92q68 -34 139 -34t115.5 34.5t44.5 106.5v41l3 32h-2q-49 -82 -152 -82t-164.5 73t-61.5 185t59 183t162 71q51 0 94 -19t66 -58h3q-3 6 -3 15v50 h93v-485q0 -60 -21.5 -106t-58.5 -72.5t-81 -39.5t-94 -13q-89 0 -173 42zM150 580l88 127h100l89 -127h-85l-53 80h-2l-52 -80h-85z"/>
<glyph glyph-name="Gbreve" horiz-adv-x="762" unicode="Ğ" d="M400 751q-55 0 -93.5 31t-38.5 86v14h72v-13q0 -30 17.5 -45t42.5 -15q24 0 41.5 15.5t17.5 45.5v12h72v-14q0 -55 -38.5 -86t-92.5 -31zM50 354q0 154 103 259t257 105q155 0 257 -86l-50 -73q-36 30 -91.5 49.5t-108.5 19.5q-120 0 -192.5 -78t-72.5 -194 q0 -121 74 -199t185 -78q115 0 200 88v102h-114v86h205v-355h-87v44l1 30h-2q-37 -39 -95 -62.5t-122 -23.5q-145 0 -246 103.5t-101 262.5z"/>
<glyph glyph-name="gbreve" horiz-adv-x="594" unicode="ğ" d="M289 576q-55 0 -93.5 31t-38.5 86v14h72v-13q0 -30 17.5 -45t42.5 -15q24 0 41.5 15.5t17.5 45.5v12h72v-14q0 -55 -38.5 -86t-92.5 -31zM143 267q0 -80 39.5 -128.5t107.5 -48.5q59 0 96.5 41t37.5 133q0 170 -143 170q-65 0 -101.5 -44.5t-36.5 -122.5zM123 -92 q68 -34 139 -34t115.5 34.5t44.5 106.5v41l3 32h-2q-49 -82 -152 -82t-164.5 73t-61.5 185t59 183t162 71q51 0 94 -19t66 -58h3q-3 6 -3 15v50h93v-485q0 -60 -21.5 -106t-58.5 -72.5t-81 -39.5t-94 -13q-89 0 -173 42z"/>
<glyph glyph-name="Gdotaccent" horiz-adv-x="762" unicode="Ġ" d="M357 784v98h86v-98h-86zM50 354q0 154 103 259t257 105q155 0 257 -86l-50 -73q-36 30 -91.5 49.5t-108.5 19.5q-120 0 -192.5 -78t-72.5 -194q0 -121 74 -199t185 -78q115 0 200 88v102h-114v86h205v-355h-87v44l1 30h-2q-37 -39 -95 -62.5t-122 -23.5 q-145 0 -246 103.5t-101 262.5z"/>
<glyph glyph-name="gdotaccent" horiz-adv-x="594" unicode="ġ" d="M246 609v98h86v-98h-86zM143 267q0 -80 39.5 -128.5t107.5 -48.5q59 0 96.5 41t37.5 133q0 170 -143 170q-65 0 -101.5 -44.5t-36.5 -122.5zM123 -92q68 -34 139 -34t115.5 34.5t44.5 106.5v41l3 32h-2q-49 -82 -152 -82t-164.5 73t-61.5 185t59 183t162 71q51 0 94 -19 t66 -58h3q-3 6 -3 15v50h93v-485q0 -60 -21.5 -106t-58.5 -72.5t-81 -39.5t-94 -13q-89 0 -173 42z"/>
<glyph glyph-name="Gcommaaccent" horiz-adv-x="762" unicode="Ģ" d="M50 354q0 154 103 259t257 105q155 0 257 -86l-50 -73q-36 30 -91.5 49.5t-108.5 19.5q-120 0 -192.5 -78t-72.5 -194q0 -121 74 -199t185 -78q115 0 200 88v102h-114v86h205v-355h-87v44l1 30h-2q-37 -39 -95 -62.5t-122 -23.5q-145 0 -246 103.5t-101 262.5zM351 -59 h85q7 -27 7 -51q0 -41 -25 -94h-74q19 54 19 84t-12 61z"/>
<glyph glyph-name="gcommaaccent" horiz-adv-x="594" unicode="ģ" d="M143 267q0 -80 39.5 -128.5t107.5 -48.5q59 0 96.5 41t37.5 133q0 170 -143 170q-65 0 -101.5 -44.5t-36.5 -122.5zM123 -92q68 -34 139 -34t115.5 34.5t44.5 106.5v41l3 32h-2q-49 -82 -152 -82t-164.5 73t-61.5 185t59 183t162 71q51 0 94 -19t66 -58h3q-3 6 -3 15v50 h93v-485q0 -60 -21.5 -106t-58.5 -72.5t-81 -39.5t-94 -13q-89 0 -173 42zM333 563h-84q-7 27 -7 50q0 40 25 93h73q-19 -54 -19 -83t12 -60z"/>
<glyph glyph-name="Hcircumflex" horiz-adv-x="750" unicode="Ĥ" d="M93 0v706h99v-310h367v310h98v-706h-98v310h-367v-310h-99zM236 755l88 127h100l89 -127h-85l-53 80h-2l-52 -80h-85z"/>
<glyph glyph-name="hcircumflex" horiz-adv-x="603" unicode="ĥ" d="M75 0v706h97v-262l-4 -42h2q21 44 71 80t119 36q173 0 173 -194v-324h-97v302q0 61 -19.5 94t-75.5 33q-73 0 -121 -53.5t-48 -135.5v-240h-97zM-13 755l88 127h100l89 -127h-85l-53 80h-2l-52 -80h-85z"/>
<glyph glyph-name="Hbar" horiz-adv-x="759" unicode="Ħ" d="M200 396h359v118h-359v-118zM100 0v514h-66v67h66v125h100v-125h359v125h100v-125h65v-67h-65v-514h-100v310h-359v-310h-100z"/>
<glyph glyph-name="hbar" horiz-adv-x="603" unicode="ħ" d="M75 0v563h-72v63h72v80h97v-80h133v-63h-133v-116l-2 -42h2q20 43 69.5 78t118.5 35q173 0 173 -194v-324h-97v302q0 61 -19.5 94t-75.5 33q-75 0 -122 -54.5t-47 -131.5v-243h-97z"/>
<glyph glyph-name="Itilde" horiz-adv-x="286" unicode="Ĩ" d="M-24 756q0 127 102 127q29 0 51 -17t40 -34t35 -17q20 0 29.5 19.5t9.5 45.5h70q0 -127 -102 -127q-29 0 -51 17t-40 34t-35 17q-39 0 -39 -65h-70zM93 0v706h99v-706h-99z"/>
<glyph glyph-name="itilde" horiz-adv-x="246" unicode="ĩ" d="M-43 581q0 127 102 127q29 0 51 -17t40 -34t35 -17q20 0 29.5 19.5t9.5 45.5h70q0 -127 -102 -127q-29 0 -51 17t-40 34t-35 17q-39 0 -39 -65h-70zM75 0v506h97v-506h-97z"/>
<glyph glyph-name="Imacron" horiz-adv-x="286" unicode="Ī" d="M18 784v71h254v-71h-254zM93 0v706h99v-706h-99z"/>
<glyph glyph-name="imacron" horiz-adv-x="246" unicode="ī" d="M-2 609v71h254v-71h-254zM75 0v506h97v-506h-97z"/>
<glyph glyph-name="Ibreve" horiz-adv-x="286" unicode="Ĭ" d="M145 751q-55 0 -93.5 31t-38.5 86v14h72v-13q0 -30 17.5 -45t42.5 -15q24 0 41.5 15.5t17.5 45.5v12h72v-14q0 -55 -38.5 -86t-92.5 -31zM93 0v706h99v-706h-99z"/>
<glyph glyph-name="ibreve" horiz-adv-x="246" unicode="ĭ" d="M125 576q-55 0 -93.5 31t-38.5 86v14h72v-13q0 -30 17.5 -45t42.5 -15q24 0 41.5 15.5t17.5 45.5v12h72v-14q0 -55 -38.5 -86t-92.5 -31zM75 0v506h97v-506h-97z"/>
<glyph glyph-name="Iogonek" horiz-adv-x="286" unicode="Į" d="M93 0v706h99v-706q-64 -51 -64 -89q0 -17 14 -27.5t28 -13.5l13 -2l-23 -75q-5 0 -12.5 1.5t-27.5 7.5t-35.5 15.5t-28 28t-12.5 42.5q0 58 68 112h-19z"/>
<glyph glyph-name="iogonek" horiz-adv-x="247" unicode="į" d="M73 608v98h100v-98h-100zM75 0v506h97v-506q-64 -51 -64 -89q0 -17 14 -27.5t28 -13.5l13 -2l-22 -75q-5 0 -13 1.5t-28 7.5t-35.5 15.5t-28 28t-12.5 42.5q0 57 69 112h-18z"/>
<glyph glyph-name="Idotaccent" horiz-adv-x="286" unicode="İ" d="M102 784v98h86v-98h-86zM93 0v706h99v-706h-99z"/>
<glyph glyph-name="dotlessi" horiz-adv-x="246" unicode="ı" d="M75 0v506h97v-506h-97z"/>
<glyph glyph-name="IJ" horiz-adv-x="608" unicode="Ĳ" d="M93 0v706h99v-706h-99zM284 -4v90q25 0 46.5 6t43.5 21.5t35 47.5t13 79v466h100v-467q0 -243 -238 -243z"/>
<glyph glyph-name="ij" horiz-adv-x="493" unicode="ĳ" d="M321 -11v517h97v-523q0 -48 -14.5 -84t-35 -55.5t-49 -31.5t-50.5 -15t-45 -3q-10 0 -34 2v83q10 -2 22 -2q18 0 34 4t34.5 14.5t29.5 34.5t11 59zM319 608v98h100v-98h-100zM75 0v506h97v-506h-97zM73 608v98h100v-98h-100z"/>
<glyph glyph-name="Jcircumflex" horiz-adv-x="533" unicode="Ĵ" d="M28 203v35h98v-30q0 -56 27.5 -92.5t83.5 -36.5q48 0 79.5 30.5t31.5 94.5v416h-178v86h276v-503q0 -107 -61.5 -161t-147.5 -54t-147.5 54.5t-61.5 160.5zM167 755l88 127h100l89 -127h-85l-53 80h-2l-52 -80h-85z"/>
<glyph glyph-name="jcircumflex" horiz-adv-x="246" unicode="ĵ" d="M75 -11v517h97v-523q0 -48 -14.5 -84t-35 -55.5t-49 -31.5t-50.5 -15t-45 -3q-22 0 -34 2v83q14 -2 22 -2q18 0 34 4t34.5 14.5t29.5 34.5t11 59zM-14 579l88 127h94l88 -127h-81l-53 81h-2l-52 -81h-82z"/>
<glyph glyph-name="Kcommaaccent" horiz-adv-x="614" unicode="Ķ" d="M93 0v706h99v-297h105l179 297h109l-206 -335v-2l219 -369h-113l-188 323h-105v-323h-99zM272 -59h85q7 -27 7 -51q0 -41 -25 -94h-74q19 54 19 84t-12 61z"/>
<glyph glyph-name="kcommaaccent" horiz-adv-x="522" unicode="ķ" d="M75 0v706h97v-386h72l137 186h110l-168 -223v-2l187 -281h-113l-151 237h-74v-237h-97zM227 -59h85q7 -27 7 -51q0 -41 -25 -94h-74q19 54 19 84t-12 61z"/>
<glyph glyph-name="kgreenlandic" horiz-adv-x="520" unicode="ĸ" d="M75 0v506h97v-199h70l145 199h112l-176 -235v-2l179 -269h-116l-142 225h-72v-225h-97z"/>
<glyph glyph-name="Lacute" horiz-adv-x="526" unicode="Ĺ" d="M93 0v706h99v-620h317v-86h-416zM101 755l72 127h105l-96 -127h-81z"/>
<glyph glyph-name="lacute" horiz-adv-x="267" unicode="ĺ" d="M75 139v567h96v-551q0 -41 14.5 -56.5t40.5 -15.5q11 0 17 1v-86q-21 -3 -32 -3q-136 0 -136 144zM82 755l72 127h105l-96 -127h-81z"/>
<glyph glyph-name="Lcommaaccent" horiz-adv-x="526" unicode="Ļ" d="M93 0v706h99v-620h317v-86h-416zM262 -59h85q7 -27 7 -51q0 -41 -25 -94h-74q19 54 19 84t-12 61z"/>
<glyph glyph-name="lcommaaccent" horiz-adv-x="267" unicode="ļ" d="M75 139v567h96v-551q0 -41 14.5 -56.5t40.5 -15.5q11 0 17 1v-86q-21 -3 -32 -3q-136 0 -136 144zM115 -59h85q7 -27 7 -51q0 -41 -25 -94h-74q19 54 19 84t-12 61z"/>
<glyph glyph-name="Lcaron" horiz-adv-x="527" unicode="Ľ" d="M93 0v706h99v-620h317v-86h-416zM276 705h85q7 -27 7 -51q0 -41 -25 -94h-74q19 54 19 84t-12 61z"/>
<glyph glyph-name="lcaron" horiz-adv-x="275" unicode="ľ" d="M75 139v567h96v-551q0 -41 14.5 -56.5t40.5 -15.5q11 0 17 1v-86q-21 -3 -32 -3q-136 0 -136 144zM229 705h85q7 -27 7 -51q0 -41 -25 -94h-74q19 54 19 84t-12 61z"/>
<glyph glyph-name="Ldot" horiz-adv-x="527" unicode="Ŀ" d="M308 326v105h101v-105h-101zM93 0v706h99v-620h317v-86h-416z"/>
<glyph glyph-name="ldot" horiz-adv-x="343" unicode="ŀ" d="M243 326v105h101v-105h-101zM75 139v567h96v-551q0 -41 14.5 -56.5t40.5 -15.5q11 0 17 1v-86q-21 -3 -32 -3q-136 0 -136 144z"/>
<glyph glyph-name="Lslash" horiz-adv-x="531" unicode="Ł" d="M99 0v301l-60 -34v97l60 34v308h98v-252l109 63v-97l-109 -63v-271h316v-86h-414z"/>
<glyph glyph-name="lslash" horiz-adv-x="286" unicode="ł" d="M16 275v97l73 42v292h97v-236l82 47v-97l-82 -48v-217q0 -72 54 -72l18 1v-86q-15 -3 -33 -3q-136 0 -136 144v178z"/>
<glyph glyph-name="Nacute" horiz-adv-x="752" unicode="Ń" d="M93 0v706h98l315 -458l58 -103h2q-6 63 -6 103v458h98v-706h-97l-315 458l-58 103h-2q6 -63 6 -103v-458h-99zM332 755l72 127h105l-96 -127h-81z"/>
<glyph glyph-name="nacute" horiz-adv-x="603" unicode="ń" d="M75 0v506h94v-69l-3 -38h2q19 43 68.5 81t123.5 38q173 0 173 -194v-324h-97v302q0 61 -19.5 94t-75.5 33q-73 0 -121 -53.5t-48 -132.5v-243h-97zM268 580l72 127h105l-96 -127h-81z"/>
<glyph glyph-name="Ncommaaccent" horiz-adv-x="752" unicode="Ņ" d="M93 0v706h98l315 -458l58 -103h2q-6 63 -6 103v458h98v-706h-97l-315 458l-58 103h-2q6 -63 6 -103v-458h-99zM330 -59h85q7 -27 7 -51q0 -41 -25 -94h-74q19 54 19 84t-12 61z"/>
<glyph glyph-name="ncommaaccent" horiz-adv-x="603" unicode="ņ" d="M75 0v506h94v-69l-3 -38h2q19 43 68.5 81t123.5 38q173 0 173 -194v-324h-97v302q0 61 -19.5 94t-75.5 33q-73 0 -121 -53.5t-48 -132.5v-243h-97zM257 -59h85q7 -27 7 -51q0 -41 -25 -94h-74q19 54 19 84t-12 61z"/>
<glyph glyph-name="Ncaron" horiz-adv-x="752" unicode="Ň" d="M93 0v706h98l315 -458l58 -103h2q-6 63 -6 103v458h98v-706h-97l-315 458l-58 103h-2q6 -63 6 -103v-458h-99zM325 755l-88 127h85l52 -81h2l53 81h85l-89 -127h-100z"/>
<glyph glyph-name="ncaron" horiz-adv-x="603" unicode="ň" d="M75 0v506h94v-69l-3 -38h2q19 43 68.5 81t123.5 38q173 0 173 -194v-324h-97v302q0 61 -19.5 94t-75.5 33q-73 0 -121 -53.5t-48 -132.5v-243h-97zM261 580l-88 127h85l52 -81h2l53 81h85l-89 -127h-100z"/>
<glyph glyph-name="napostrophe" horiz-adv-x="603" unicode="ŉ" d="M75 0v506h94v-69l-3 -38h2q19 43 68.5 81t123.5 38q173 0 173 -194v-324h-97v302q0 61 -19.5 94t-75.5 33q-73 0 -121 -53.5t-48 -132.5v-243h-97zM3 705h85q7 -27 7 -51q0 -41 -25 -94h-74q19 54 19 84t-12 61z"/>
<glyph glyph-name="Eng" horiz-adv-x="751" unicode="Ŋ" d="M93 0v706h98l315 -458l58 -103h2q-6 63 -6 103v458h98v-679q0 -65 -20.5 -112.5t-55.5 -72.5t-73.5 -36t-82.5 -11v91q47 0 87 30t44 91l-311 451l-58 103h-2q6 -63 6 -103v-458h-99z"/>
<glyph glyph-name="eng" horiz-adv-x="603" unicode="ŋ" d="M75 0v506h94v-75l-2 -29h2q20 43 68.5 79.5t122.5 36.5q173 0 173 -194v-344q0 -48 -14.5 -84t-35 -55.5t-49 -31.5t-50.5 -15t-45 -3l-34 2v83q9 -1 22 -1q18 0 34 4t34.5 14t29.5 34t11 59v316q0 61 -19.5 94t-75.5 33q-75 0 -122 -54.5t-47 -131.5v-243h-97z"/>
<glyph glyph-name="Omacron" horiz-adv-x="823" unicode="Ō" d="M151 358q0 -119 74 -199t187 -80q112 0 186 80t74 199q0 115 -74 192.5t-186 77.5q-113 0 -187 -77.5t-74 -192.5zM49 358q0 153 103 256.5t260 103.5q156 0 259 -103.5t103 -256.5q0 -157 -103 -263.5t-259 -106.5t-259.5 106.5t-103.5 263.5zM285 784v71h254v-71h-254z "/>
<glyph glyph-name="omacron" horiz-adv-x="629" unicode="ō" d="M141 254q0 -79 50.5 -130.5t123.5 -51.5q72 0 123 52t51 130t-51 129t-123 51q-73 0 -123.5 -51t-50.5 -129zM42 254q0 113 79 188.5t193 75.5q115 0 194 -75t79 -189t-79 -190t-193 -76t-193.5 76t-79.5 190zM188 609v71h254v-71h-254z"/>
<glyph glyph-name="Obreve" horiz-adv-x="823" unicode="Ŏ" d="M411 751q-55 0 -93.5 31t-38.5 86v14h72v-13q0 -30 17.5 -45t42.5 -15q24 0 41.5 15.5t17.5 45.5v12h72v-14q0 -55 -38.5 -86t-92.5 -31zM151 358q0 -119 74 -199t187 -80q112 0 186 80t74 199q0 115 -74 192.5t-186 77.5q-113 0 -187 -77.5t-74 -192.5zM49 358 q0 153 103 256.5t260 103.5q156 0 259 -103.5t103 -256.5q0 -157 -103 -263.5t-259 -106.5t-259.5 106.5t-103.5 263.5z"/>
<glyph glyph-name="obreve" horiz-adv-x="629" unicode="ŏ" d="M314 576q-55 0 -93.5 31t-38.5 86v14h72v-13q0 -30 17.5 -45t42.5 -15q24 0 41.5 15.5t17.5 45.5v12h72v-14q0 -55 -38.5 -86t-92.5 -31zM141 254q0 -79 50.5 -130.5t123.5 -51.5q72 0 123 52t51 130t-51 129t-123 51q-73 0 -123.5 -51t-50.5 -129zM42 254 q0 113 79 188.5t193 75.5q115 0 194 -75t79 -189t-79 -190t-193 -76t-193.5 76t-79.5 190z"/>
<glyph glyph-name="Ohungarumlaut" horiz-adv-x="823" unicode="Ő" d="M151 358q0 -119 74 -199t187 -80q112 0 186 80t74 199q0 115 -74 192.5t-186 77.5q-113 0 -187 -77.5t-74 -192.5zM49 358q0 153 103 256.5t260 103.5q156 0 259 -103.5t103 -256.5q0 -157 -103 -263.5t-259 -106.5t-259.5 106.5t-103.5 263.5zM279 755l68 127h88 l-71 -127h-85zM433 755l73 127h101l-96 -127h-78z"/>
<glyph glyph-name="ohungarumlaut" horiz-adv-x="629" unicode="ő" d="M141 254q0 -79 50.5 -130.5t123.5 -51.5q72 0 123 52t51 130t-51 129t-123 51q-73 0 -123.5 -51t-50.5 -129zM42 254q0 113 79 188.5t193 75.5q115 0 194 -75t79 -189t-79 -190t-193 -76t-193.5 76t-79.5 190zM182 580l68 127h88l-71 -127h-85zM336 580l73 127h101 l-96 -127h-78z"/>
<glyph glyph-name="OE" horiz-adv-x="956" unicode="Œ" d="M152 354q0 -118 73.5 -197.5t189.5 -79.5q18 0 35.5 2t26.5 4l9 2v536q-31 8 -71 8q-115 0 -189 -79t-74 -196zM50 354q0 153 104.5 257t260.5 104q26 0 66.5 -4.5t56.5 -4.5h358v-86h-312v-221h254v-86h-254v-227h329v-86h-375q-15 0 -56 -4.5t-67 -4.5 q-156 0 -260.5 104.5t-104.5 258.5z"/>
<glyph glyph-name="oe" horiz-adv-x="1003" unicode="œ" d="M141 252q0 -80 50.5 -130t122.5 -50q73 0 123.5 50.5t50.5 132.5q0 79 -51 129t-123 50t-122.5 -50.5t-50.5 -131.5zM591 310h270q-2 62 -36 96.5t-85 34.5q-57 0 -97.5 -35t-51.5 -96zM42 252q0 117 78.5 191.5t191.5 74.5q147 0 219 -120h2q63 120 208 120 q104 0 161.5 -67.5t57.5 -169.5l-3 -41h-369q6 -79 55.5 -123.5t118.5 -44.5q83 0 150 59l40 -71q-36 -33 -89 -52.5t-107 -19.5q-153 0 -221 123h-2q-71 -123 -221 -123q-113 0 -191.5 73.5t-78.5 190.5z"/>
<glyph glyph-name="Racute" horiz-adv-x="628" unicode="Ŕ" d="M192 367h142q58 0 92 35.5t34 94.5q0 83 -66 111q-27 12 -85 12h-117v-253zM93 0v706h224q89 0 131 -19q52 -23 82 -71t30 -114q0 -68 -34.5 -121.5t-91.5 -72.5v-2q8 -10 20 -32l150 -274h-112l-149 281h-151v-281h-99zM262 755l72 127h105l-96 -127h-81z"/>
<glyph glyph-name="racute" horiz-adv-x="376" unicode="ŕ" d="M75 0v506h94v-91l-3 -37h2q19 58 62 96t99 38q10 0 26 -2v-96q-8 2 -28 2q-76 0 -115.5 -61.5t-39.5 -144.5v-210h-97zM180 580l72 127h105l-96 -127h-81z"/>
<glyph glyph-name="Rcommaaccent" horiz-adv-x="628" unicode="Ŗ" d="M192 367h142q58 0 92 35.5t34 94.5q0 83 -66 111q-27 12 -85 12h-117v-253zM93 0v706h224q89 0 131 -19q52 -23 82 -71t30 -114q0 -68 -34.5 -121.5t-91.5 -72.5v-2q8 -10 20 -32l150 -274h-112l-149 281h-151v-281h-99zM280 -59h85q7 -27 7 -51q0 -41 -25 -94h-74 q19 54 19 84t-12 61z"/>
<glyph glyph-name="rcommaaccent" horiz-adv-x="376" unicode="ŗ" d="M75 0v506h94v-91l-3 -37h2q19 58 62 96t99 38q10 0 26 -2v-96q-8 2 -28 2q-76 0 -115.5 -61.5t-39.5 -144.5v-210h-97zM81 -59h85q7 -27 7 -51q0 -41 -25 -94h-74q19 54 19 84t-12 61z"/>
<glyph glyph-name="Rcaron" horiz-adv-x="628" unicode="Ř" d="M192 367h142q58 0 92 35.5t34 94.5q0 83 -66 111q-27 12 -85 12h-117v-253zM93 0v706h224q89 0 131 -19q52 -23 82 -71t30 -114q0 -68 -34.5 -121.5t-91.5 -72.5v-2q8 -10 20 -32l150 -274h-112l-149 281h-151v-281h-99zM254 755l-88 127h85l52 -81h2l53 81h85l-89 -127 h-100z"/>
<glyph glyph-name="rcaron" horiz-adv-x="376" unicode="ř" d="M75 0v506h94v-91l-3 -37h2q19 58 62 96t99 38q10 0 26 -2v-96q-8 2 -28 2q-76 0 -115.5 -61.5t-39.5 -144.5v-210h-97zM174 580l-88 127h85l52 -81h2l53 81h85l-89 -127h-100z"/>
<glyph glyph-name="Sacute" horiz-adv-x="545" unicode="Ś" d="M41 81l56 75q34 -33 82 -54.5t96 -21.5q56 0 90 27.5t34 73.5q0 43 -35 73.5t-85.5 51.5t-100.5 45t-85 67t-35 104q0 88 65.5 142t165.5 54q121 0 197 -72l-45 -81q-30 28 -72.5 45t-83.5 17q-55 0 -91 -27.5t-36 -72.5q0 -35 25 -62t63 -42.5t82 -36t82 -42.5t63 -62 t25 -93q0 -86 -60 -143.5t-165 -57.5q-137 0 -232 93zM230 755l72 127h105l-96 -127h-81z"/>
<glyph glyph-name="sacute" horiz-adv-x="447" unicode="ś" d="M32 62l46 66q61 -59 149 -59q39 0 62.5 17.5t23.5 48.5q0 26 -27 45t-65 33t-76 31t-65 49.5t-27 78.5q0 69 52 107.5t130 38.5q102 0 164 -56l-39 -70q-22 21 -57.5 33t-70.5 12q-39 0 -62.5 -16t-23.5 -47q0 -27 27 -46t65 -32.5t76.5 -30.5t65.5 -49.5t27 -78.5 q0 -65 -51 -107t-131 -42q-120 0 -193 74zM179 580l72 127h105l-96 -127h-81z"/>
<glyph glyph-name="Scircumflex" horiz-adv-x="545" unicode="Ŝ" d="M41 81l56 75q34 -33 82 -54.5t96 -21.5q56 0 90 27.5t34 73.5q0 43 -35 73.5t-85.5 51.5t-100.5 45t-85 67t-35 104q0 88 65.5 142t165.5 54q121 0 197 -72l-45 -81q-30 28 -72.5 45t-83.5 17q-55 0 -91 -27.5t-36 -72.5q0 -35 25 -62t63 -42.5t82 -36t82 -42.5t63 -62 t25 -93q0 -86 -60 -143.5t-165 -57.5q-137 0 -232 93zM136 755l88 127h100l89 -127h-85l-53 80h-2l-52 -80h-85z"/>
<glyph glyph-name="scircumflex" horiz-adv-x="447" unicode="ŝ" d="M32 62l46 66q61 -59 149 -59q39 0 62.5 17.5t23.5 48.5q0 26 -27 45t-65 33t-76 31t-65 49.5t-27 78.5q0 69 52 107.5t130 38.5q102 0 164 -56l-39 -70q-22 21 -57.5 33t-70.5 12q-39 0 -62.5 -16t-23.5 -47q0 -27 27 -46t65 -32.5t76.5 -30.5t65.5 -49.5t27 -78.5 q0 -65 -51 -107t-131 -42q-120 0 -193 74zM87 580l88 127h100l89 -127h-85l-53 80h-2l-52 -80h-85z"/>
<glyph glyph-name="Scedilla" horiz-adv-x="546" unicode="Ş" d="M226 -88l20 77q-123 10 -205 92l56 75q34 -33 82 -54.5t96 -21.5q56 0 90 27.5t34 73.5q0 43 -35 73.5t-85.5 51.5t-100.5 45t-85 67t-35 104q0 88 65.5 142t165.5 54q121 0 197 -72l-45 -81q-30 28 -72.5 45t-83.5 17q-55 0 -91 -27.5t-36 -72.5q0 -35 25 -62t63 -42.5 t82 -36t82 -42.5t63 -62t25 -93q0 -80 -52.5 -136t-145.5 -64l-8 -39q32 -4 52 -23t20 -50q0 -43 -29.5 -63.5t-72.5 -20.5q-28 0 -55 6v59q17 -7 42 -7q48 0 48 31t-53 31z"/>
<glyph glyph-name="scedilla" horiz-adv-x="449" unicode="ş" d="M174 -88l20 78q-101 10 -161 72l46 66q61 -59 149 -59q39 0 62.5 17.5t23.5 48.5q0 26 -27 45t-65 33t-76 31t-65 49.5t-27 78.5q0 69 52 107.5t130 38.5q102 0 164 -56l-39 -70q-22 21 -57.5 33t-70.5 12q-39 0 -62.5 -16t-23.5 -47q0 -27 27 -46t65.5 -32.5t76.5 -30.5 t65 -49.5t27 -78.5q0 -60 -44 -101t-116 -47l-8 -39q32 -4 52 -23t20 -50q0 -43 -29.5 -63.5t-72.5 -20.5q-28 0 -55 6v59q17 -7 42 -7q48 0 48 31t-53 31z"/>
<glyph glyph-name="Scaron" horiz-adv-x="545" unicode="Š" d="M41 81l56 75q34 -33 82 -54.5t96 -21.5q56 0 90 27.5t34 73.5q0 43 -35 73.5t-85.5 51.5t-100.5 45t-85 67t-35 104q0 88 65.5 142t165.5 54q121 0 197 -72l-45 -81q-30 28 -72.5 45t-83.5 17q-55 0 -91 -27.5t-36 -72.5q0 -35 25 -62t63 -42.5t82 -36t82 -42.5t63 -62 t25 -93q0 -86 -60 -143.5t-165 -57.5q-137 0 -232 93zM224 755l-88 127h85l52 -81h2l53 81h85l-89 -127h-100z"/>
<glyph glyph-name="scaron" horiz-adv-x="447" unicode="š" d="M32 62l46 66q61 -59 149 -59q39 0 62.5 17.5t23.5 48.5q0 26 -27 45t-65 33t-76 31t-65 49.5t-27 78.5q0 69 52 107.5t130 38.5q102 0 164 -56l-39 -70q-22 21 -57.5 33t-70.5 12q-39 0 -62.5 -16t-23.5 -47q0 -27 27 -46t65 -32.5t76.5 -30.5t65.5 -49.5t27 -78.5 q0 -65 -51 -107t-131 -42q-120 0 -193 74zM175 580l-88 127h85l52 -81h2l53 81h85l-89 -127h-100z"/>
<glyph glyph-name="Tcommaaccent" horiz-adv-x="615" unicode="Ţ" d="M258 0v620h-243v86h584v-86h-243v-620h-24l-11 -50q32 -4 52 -23t20 -50q0 -43 -29.5 -63.5t-72.5 -20.5q-28 0 -55 6v59q18 -7 42 -7q48 0 48 31t-53 31l-18 -1l23 88h-20z"/>
<glyph glyph-name="tcommaaccent" horiz-adv-x="349" unicode="ţ" d="M154 -88l28 107q-86 44 -86 166v237h-66v79h68v144h95v-144h122v-79h-122v-226q0 -29 8 -50.5t19.5 -33.5t27 -19t28 -9t25.5 -2t23 2v-86q-24 -3 -34 -3q-34 0 -59 6l-11 -51q32 -4 52 -23t20 -50q0 -43 -29.5 -63.5t-72.5 -20.5q-28 0 -55 6v59q17 -7 42 -7q48 0 48 31 t-53 31z"/>
<glyph glyph-name="Tcaron" horiz-adv-x="615" unicode="Ť" d="M258 0v620h-243v86h584v-86h-243v-620h-98zM256 755l-88 127h85l52 -81h2l53 81h85l-89 -127h-100z"/>
<glyph glyph-name="tcaron" horiz-adv-x="349" unicode="ť" d="M96 185v237h-66v79h68v144h95v-144h122v-79h-122v-226q0 -29 8 -50.5t19.5 -33.5t27 -19t28 -9t25.5 -2t23 2v-86q-24 -3 -34 -3q-23 0 -45.5 3.5t-50.5 15t-48.5 31t-35 56t-14.5 84.5zM252 706h85q7 -27 7 -50q0 -40 -25 -92h-74q19 54 19 82q0 29 -12 60z"/>
<glyph glyph-name="Tbar" horiz-adv-x="625" unicode="Ŧ" d="M263 0v310h-156v76h156v234h-243v86h584v-86h-243v-234h161v-76h-161v-310h-98z"/>
<glyph glyph-name="tbar" horiz-adv-x="353" unicode="ŧ" d="M28 259v68h71v95h-66v79h68v144h94v-144h122v-79h-122v-95h117v-68h-117v-67q0 -34 11 -57.5t29.5 -34t34.5 -14.5t33 -4l23 2v-86q-14 -3 -34 -3q-23 0 -45 3.5t-50.5 15t-49 31t-34.5 56t-14 84.5v74h-71z"/>
<glyph glyph-name="Utilde" horiz-adv-x="726" unicode="Ũ" d="M194 756q0 127 102 127q29 0 51 -17t40 -34t35 -17q20 0 29.5 19.5t9.5 45.5h70q0 -127 -102 -127q-29 0 -51 17t-40 34t-35 17q-39 0 -39 -65h-70zM85 250v456h99v-455q0 -81 48.5 -126.5t130.5 -45.5t130 45.5t48 127.5v454h99v-456q0 -118 -76 -190t-200 -72 q-125 0 -202 72t-77 190z"/>
<glyph glyph-name="utilde" horiz-adv-x="597" unicode="ũ" d="M127 581q0 127 102 127q29 0 51 -17t40 -34t35 -17q20 0 29.5 19.5t9.5 45.5h70q0 -127 -102 -127q-29 0 -51 17t-40 34t-35 17q-39 0 -39 -65h-70zM69 182v324h97v-302q0 -60 20 -93t75 -33q75 0 120 56t45 135v237h96v-506h-94v70l4 37h-2q-20 -45 -70 -82t-118 -37 q-173 0 -173 194z"/>
<glyph glyph-name="Umacron" horiz-adv-x="726" unicode="Ū" d="M236 784v71h254v-71h-254zM85 250v456h99v-455q0 -81 48.5 -126.5t130.5 -45.5t130 45.5t48 127.5v454h99v-456q0 -118 -76 -190t-200 -72q-125 0 -202 72t-77 190z"/>
<glyph glyph-name="umacron" horiz-adv-x="597" unicode="ū" d="M169 609v71h254v-71h-254zM69 182v324h97v-302q0 -60 20 -93t75 -33q75 0 120 56t45 135v237h96v-506h-94v70l4 37h-2q-20 -45 -70 -82t-118 -37q-173 0 -173 194z"/>
<glyph glyph-name="Ubreve" horiz-adv-x="726" unicode="Ŭ" d="M362 751q-55 0 -93.5 31t-38.5 86v14h72v-13q0 -30 17.5 -45t42.5 -15q24 0 41.5 15.5t17.5 45.5v12h72v-14q0 -55 -38.5 -86t-92.5 -31zM85 250v456h99v-455q0 -81 48.5 -126.5t130.5 -45.5t130 45.5t48 127.5v454h99v-456q0 -118 -76 -190t-200 -72q-125 0 -202 72 t-77 190z"/>
<glyph glyph-name="ubreve" horiz-adv-x="597" unicode="ŭ" d="M296 576q-55 0 -93.5 31t-38.5 86v14h72v-13q0 -30 17.5 -45t42.5 -15q24 0 41.5 15.5t17.5 45.5v12h72v-14q0 -55 -38.5 -86t-92.5 -31zM69 182v324h97v-302q0 -60 20 -93t75 -33q75 0 120 56t45 135v237h96v-506h-94v70l4 37h-2q-20 -45 -70 -82t-118 -37 q-173 0 -173 194z"/>
<glyph glyph-name="Uring" horiz-adv-x="726" unicode="Ů" d="M85 250v456h99v-455q0 -81 48.5 -126.5t130.5 -45.5t130 45.5t48 127.5v454h99v-456q0 -118 -76 -190t-200 -72q-125 0 -202 72t-77 190zM362 784q14 0 23.5 9.5t9.5 23.5q0 16 -9.5 25.5t-23.5 9.5q-15 0 -24 -9.5t-9 -25.5q0 -14 9 -23.5t24 -9.5zM362 743 q-35 0 -60 20.5t-25 53.5q0 34 25 54.5t60 20.5t59.5 -20.5t24.5 -54.5q0 -33 -25 -53.5t-59 -20.5z"/>
<glyph glyph-name="uring" horiz-adv-x="597" unicode="ů" d="M69 182v324h97v-302q0 -60 20 -93t75 -33q75 0 120 56t45 135v237h96v-506h-94v70l4 37h-2q-20 -45 -70 -82t-118 -37q-173 0 -173 194zM296 609q14 0 23.5 9.5t9.5 23.5q0 16 -9.5 25.5t-23.5 9.5q-15 0 -24 -9.5t-9 -25.5q0 -14 9 -23.5t24 -9.5zM296 568 q-35 0 -60 20.5t-25 53.5q0 34 25 54.5t60 20.5t59.5 -20.5t24.5 -54.5q0 -33 -25 -53.5t-59 -20.5z"/>
<glyph glyph-name="Uhungarumlaut" horiz-adv-x="726" unicode="Ű" d="M230 755l68 127h88l-71 -127h-85zM384 755l73 127h101l-96 -127h-78zM85 250v456h99v-455q0 -81 48.5 -126.5t130.5 -45.5t130 45.5t48 127.5v454h99v-456q0 -118 -76 -190t-200 -72q-125 0 -202 72t-77 190z"/>
<glyph glyph-name="uhungarumlaut" horiz-adv-x="597" unicode="ű" d="M164 580l68 127h88l-71 -127h-85zM318 580l73 127h101l-96 -127h-78zM69 182v324h97v-302q0 -60 20 -93t75 -33q75 0 120 56t45 135v237h96v-506h-94v70l4 37h-2q-20 -45 -70 -82t-118 -37q-173 0 -173 194z"/>
<glyph glyph-name="Uogonek" horiz-adv-x="726" unicode="Ų" d="M86 250v456h98v-455q0 -81 48.5 -126.5t130.5 -45.5t130.5 46t48.5 127v454h98v-456q0 -88 -35.5 -139t-96.5 -91q-66 -47 -82.5 -67.5t-16.5 -41.5q0 -17 13.5 -27.5t27.5 -13.5l14 -2l-23 -75q-5 0 -12.5 1.5t-27.5 7.5t-35.5 15.5t-28 28t-12.5 42.5q0 56 55 101 q-13 -1 -22 -1q-114 0 -193 70t-79 192z"/>
<glyph glyph-name="uogonek" horiz-adv-x="597" unicode="ų" d="M69 182v324h97v-302q0 -60 20 -93t75 -33q75 0 120 56t45 135v237h96v-506q-64 -51 -64 -89q0 -17 14 -27.5t28 -13.5l13 -2l-23 -75q-5 0 -12.5 1.5t-27.5 7.5t-35.5 15.5t-28 28t-12.5 42.5q0 57 69 112h-15v70l4 37h-2q-20 -45 -70 -82t-118 -37q-173 0 -173 194z"/>
<glyph glyph-name="Wcircumflex" horiz-adv-x="941" unicode="Ŵ" d="M209 0l-180 706h104l123 -518l14 -75h2q6 36 16 75l139 518h87l138 -518l16 -75h2q4 37 13 75l131 518h102l-186 -706h-113l-124 458l-21 99h-4q-9 -53 -22 -99l-123 -458h-114zM336 755l88 127h100l89 -127h-85l-53 80h-2l-52 -80h-85z"/>
<glyph glyph-name="wcircumflex" horiz-adv-x="828" unicode="ŵ" d="M187 0l-163 506h103l105 -355l13 -54h2q6 28 14 54l109 354h90l109 -354l13 -54h2q5 28 13 54l106 355h101l-162 -506h-108l-104 325l-15 55h-2q-6 -29 -14 -55l-104 -325h-108zM275 580l88 127h100l89 -127h-85l-53 80h-2l-52 -80h-85z"/>
<glyph glyph-name="Ycircumflex" horiz-adv-x="592" unicode="Ŷ" d="M157 755l88 127h100l89 -127h-85l-53 80h-2l-52 -80h-85zM247 0v299l-237 407h112l130 -232l43 -89h2q21 48 43 89l130 232h112l-237 -407v-299h-98z"/>
<glyph glyph-name="ycircumflex" horiz-adv-x="535" unicode="ŷ" d="M130 580l88 127h100l89 -127h-85l-53 80h-2l-52 -80h-85zM50 -105q28 -22 58 -22q61 0 92 75l25 58l-212 500h109l127 -331l19 -61h2q8 34 17 60l123 332h105l-238 -597q-22 -58 -65.5 -88.5t-98.5 -30.5q-25 0 -49 8t-36 16l-12 7z"/>
<glyph glyph-name="Ydieresis" horiz-adv-x="592" unicode="Ÿ" d="M169 781v101h80v-101h-80zM337 781v101h79v-101h-79zM247 0v299l-237 407h112l130 -232l43 -89h2q21 48 43 89l130 232h112l-237 -407v-299h-98z"/>
<glyph glyph-name="Zacute" horiz-adv-x="594" unicode="Ź" d="M36 0v66l339 490q12 18 25 34t20 23l6 7v2q-19 -2 -52 -2h-321v86h496v-65l-340 -491q-12 -17 -24.5 -33t-18.5 -23l-7 -8v-2q18 2 52 2h342v-86h-517zM264 755l72 127h105l-96 -127h-81z"/>
<glyph glyph-name="zacute" horiz-adv-x="511" unicode="ź" d="M36 0v56l256 320l41 47v2q-16 -2 -49 -2h-237v83h417v-56l-255 -320q-9 -12 -20 -23.5t-17 -17.5l-6 -6v-2q17 3 50 3h257v-84h-437zM208 580l72 127h105l-96 -127h-81z"/>
<glyph glyph-name="Zdotaccent" horiz-adv-x="594" unicode="Ż" d="M265 784v98h86v-98h-86zM36 0v66l339 490q12 18 25 34t20 23l6 7v2q-19 -2 -52 -2h-321v86h496v-65l-340 -491q-12 -17 -24.5 -33t-18.5 -23l-7 -8v-2q18 2 52 2h342v-86h-517z"/>
<glyph glyph-name="zdotaccent" horiz-adv-x="511" unicode="ż" d="M209 609v98h86v-98h-86zM36 0v56l256 320l41 47v2q-16 -2 -49 -2h-237v83h417v-56l-255 -320q-9 -12 -20 -23.5t-17 -17.5l-6 -6v-2q17 3 50 3h257v-84h-437z"/>
<glyph glyph-name="Zcaron" horiz-adv-x="594" unicode="Ž" d="M36 0v66l339 490q12 18 25 34t20 23l6 7v2q-19 -2 -52 -2h-321v86h496v-65l-340 -491q-12 -17 -24.5 -33t-18.5 -23l-7 -8v-2q18 2 52 2h342v-86h-517zM257 755l-88 127h85l52 -81h2l53 81h85l-89 -127h-100z"/>
<glyph glyph-name="zcaron" horiz-adv-x="511" unicode="ž" d="M36 0v56l256 320l41 47v2q-16 -2 -49 -2h-237v83h417v-56l-255 -320q-9 -12 -20 -23.5t-17 -17.5l-6 -6v-2q17 3 50 3h257v-84h-437zM202 580l-88 127h85l52 -81h2l53 81h85l-89 -127h-100z"/>
<glyph glyph-name="longs" horiz-adv-x="291" unicode="ſ" d="M99 0v422h-63v79h63v22q0 48 14 83.5t34.5 55t48 31t49.5 15t45 3.5l37 -3v-84q-10 2 -25 2q-13 0 -25.5 -2t-28 -8.5t-26.5 -17.5t-18.5 -31t-7.5 -47v-520h-97z"/>
<glyph glyph-name="florin" horiz-adv-x="577" unicode="ƒ" d="M33 -21q38 -6 66 -6q17 0 32.5 4t34 14.5t31 34.5t15.5 58l24 266h-82v78h88l10 102q4 48 21.5 83.5t39 55t50.5 31t51.5 15t45.5 3.5l83 -7v-84q-49 7 -79 7q-17 0 -33 -4t-34.5 -14.5t-31.5 -34t-16 -58.5l-9 -95h117v-78h-124l-24 -274q-5 -59 -28.5 -99t-57.5 -57.5 t-62 -24t-58 -6.5l-70 6v84z"/>
<glyph glyph-name="Scommaaccent" horiz-adv-x="545" unicode="Ș" d="M41 81l56 75q34 -33 82 -54.5t96 -21.5q56 0 90 27.5t34 73.5q0 43 -35 73.5t-85.5 51.5t-100.5 45t-85 67t-35 104q0 88 65.5 142t165.5 54q121 0 197 -72l-45 -81q-30 28 -72.5 45t-83.5 17q-55 0 -91 -27.5t-36 -72.5q0 -35 25 -62t63 -42.5t82 -36t82 -42.5t63 -62 t25 -93q0 -86 -60 -143.5t-165 -57.5q-137 0 -232 93zM224 -59h85q7 -27 7 -51q0 -41 -25 -94h-74q19 54 19 84t-12 61z"/>
<glyph glyph-name="scommaaccent" horiz-adv-x="447" unicode="ș" d="M32 62l46 66q61 -59 149 -59q39 0 62.5 17.5t23.5 48.5q0 26 -27 45t-65 33t-76 31t-65 49.5t-27 78.5q0 69 52 107.5t130 38.5q102 0 164 -56l-39 -70q-22 21 -57.5 33t-70.5 12q-39 0 -62.5 -16t-23.5 -47q0 -27 27 -46t65 -32.5t76.5 -30.5t65.5 -49.5t27 -78.5 q0 -65 -51 -107t-131 -42q-120 0 -193 74zM177 -59h85q7 -27 7 -51q0 -41 -25 -94h-74q19 54 19 84t-12 61z"/>
<glyph glyph-name="uni021A" horiz-adv-x="615" unicode="Ț" d="M258 0v620h-243v86h584v-86h-243v-620h-98zM260 -59h85q7 -27 7 -51q0 -41 -25 -94h-74q19 54 19 84t-12 61z"/>
<glyph glyph-name="uni021B" horiz-adv-x="349" unicode="ț" d="M96 185v237h-66v79h68v144h95v-144h122v-79h-122v-226q0 -29 8 -50.5t19.5 -33.5t27 -19t28 -9t25.5 -2t23 2v-86q-24 -3 -34 -3q-23 0 -45.5 3.5t-50.5 15t-48.5 31t-35 56t-14.5 84.5zM166 -59h85q7 -27 7 -51q0 -41 -25 -94h-74q19 54 19 84t-12 61z"/>
<glyph glyph-name="circumflex" horiz-adv-x="499" unicode="ˆ" d="M111 755l88 127h100l89 -127h-85l-53 80h-2l-52 -80h-85z"/>
<glyph glyph-name="caron" horiz-adv-x="499" unicode="ˇ" d="M199 755l-88 127h85l52 -81h2l53 81h85l-89 -127h-100z"/>
<glyph glyph-name="breve" horiz-adv-x="499" unicode="˘" d="M250 751q-55 0 -93.5 31t-38.5 86v14h72v-13q0 -30 17.5 -45t42.5 -15q24 0 41.5 15.5t17.5 45.5v12h72v-14q0 -55 -38.5 -86t-92.5 -31z"/>
<glyph glyph-name="dotaccent" horiz-adv-x="500" unicode="˙" d="M207 784v98h86v-98h-86z"/>
<glyph glyph-name="ring" horiz-adv-x="500" unicode="˚" d="M250 784q14 0 23.5 9.5t9.5 23.5q0 16 -9.5 25.5t-23.5 9.5q-15 0 -24 -9.5t-9 -25.5q0 -14 9 -23.5t24 -9.5zM250 743q-35 0 -60 20.5t-25 53.5q0 34 25 54.5t60 20.5t59.5 -20.5t24.5 -54.5q0 -33 -25 -53.5t-59 -20.5z"/>
<glyph glyph-name="ogonek" horiz-adv-x="499" unicode="˛" d="M170 -112q0 36 25 69.5t49 49.5l25 16l61 -13q-9 -6 -21.5 -16.5t-34 -36.5t-21.5 -46q0 -17 14 -27.5t28 -13.5l14 -2l-23 -75q-5 0 -12.5 1.5t-27.5 7.5t-35.5 15.5t-28 28t-12.5 42.5z"/>
<glyph glyph-name="tilde" horiz-adv-x="499" unicode="˜" d="M81 756q0 127 102 127q29 0 51 -17t40 -34t35 -17q20 0 29.5 19.5t9.5 45.5h70q0 -127 -102 -127q-36 0 -71.5 34t-54.5 34q-39 0 -39 -65h-70z"/>
<glyph glyph-name="hungarumlaut" horiz-adv-x="499" unicode="˝" d="M86 755l68 127h88l-71 -127h-85zM240 755l73 127h101l-96 -127h-78z"/>
<glyph glyph-name="uni0400" horiz-adv-x="564" unicode="Ѐ" d="M286 755l-95 127h104l73 -127h-82zM93 0v706h411v-86h-312v-221h253v-86h-253v-227h329v-86h-428z"/>
<glyph glyph-name="uni0401" horiz-adv-x="564" unicode="Ё" d="M93 0v706h411v-86h-312v-221h253v-86h-253v-227h329v-86h-428zM181 781v101h80v-101h-80zM349 781v101h79v-101h-79z"/>
<glyph glyph-name="uni0402" horiz-adv-x="736" unicode="Ђ" d="M208 0v620h-193v86h524v-86h-232v-197l-2 -31h2q84 41 178 41q103 0 161 -59t58 -155q0 -108 -62.5 -169.5t-159.5 -61.5q-24 0 -48 3v83q18 -2 36 -2q55 0 95 33.5t40 107.5q0 60 -35.5 96t-103.5 36q-40 0 -80 -10.5t-60 -20.5l-19 -10v-304h-99z"/>
<glyph glyph-name="uni0403" horiz-adv-x="495" unicode="Ѓ" d="M93 0v706h389v-86h-290v-620h-99zM229 755l72 127h105l-96 -127h-81z"/>
<glyph glyph-name="uni0404" horiz-adv-x="716" unicode="Є" d="M50 357q0 154 100.5 257.5t258.5 103.5q48 0 92 -9.5t73 -23t51 -27.5t32 -24l10 -9l-50 -74q-9 9 -26 21.5t-70 34t-108 21.5q-106 0 -177 -66t-81 -167h369v-82h-369q12 -103 82 -169t178 -66q37 0 73 9t61.5 22t45 26.5t29.5 22.5l10 9l52 -69l-11.5 -11.5t-34 -26.5 t-56 -33.5t-76 -26.5t-96.5 -12q-158 0 -260 106t-102 263z"/>
<glyph glyph-name="uni0405" horiz-adv-x="545" unicode="Ѕ" d="M41 81l56 75q34 -33 82 -54.5t96 -21.5q56 0 90 27.5t34 73.5q0 43 -35 73.5t-85.5 51.5t-100.5 45t-85 67t-35 104q0 88 65.5 142t165.5 54q121 0 197 -72l-45 -81q-30 28 -72.5 45t-83.5 17q-55 0 -91 -27.5t-36 -72.5q0 -35 25 -62t63 -42.5t82 -36t82 -42.5t63 -62 t25 -93q0 -86 -60 -143.5t-165 -57.5q-137 0 -232 93z"/>
<glyph glyph-name="uni0406" horiz-adv-x="286" unicode="І" d="M93 0v706h99v-706h-99z"/>
<glyph glyph-name="uni0407" horiz-adv-x="286" unicode="Ї" d="M21 781v101h80v-101h-80zM189 781v101h79v-101h-79zM93 0v706h99v-706h-99z"/>
<glyph glyph-name="uni0408" horiz-adv-x="533" unicode="Ј" d="M28 203v35h98v-30q0 -56 27.5 -92.5t83.5 -36.5q48 0 79.5 30.5t31.5 94.5v416h-178v86h276v-503q0 -107 -61.5 -161t-147.5 -54t-147.5 54.5t-61.5 160.5z"/>
<glyph glyph-name="uni0409" horiz-adv-x="953" unicode="Љ" d="M566 86h125q60 0 96.5 32t36.5 90q0 56 -37 89.5t-97 33.5h-124v-245zM20 -7v92q88 9 123 114t35 321v186h388v-289h137q99 0 160.5 -57t61.5 -152q0 -94 -61.5 -151t-156.5 -57h-239v620h-191v-100q0 -99 -6 -172.5t-22.5 -141.5t-44.5 -111.5t-74.5 -70.5t-109.5 -31z "/>
<glyph glyph-name="uni040A" horiz-adv-x="1008" unicode="Њ" d="M619 86h127q60 0 96 32t36 89q0 56 -36.5 89t-96.5 33h-126v-243zM93 0v706h99v-292h329v292h98v-291h143q96 0 156.5 -57t60.5 -151q0 -93 -61.5 -150t-155.5 -57h-241v328h-329v-328h-99z"/>
<glyph glyph-name="uni040B" horiz-adv-x="735" unicode="Ћ" d="M208 0v620h-193v86h523v-86h-231v-199l-2 -33h2q90 45 184 45q100 0 148.5 -55.5t48.5 -154.5v-223h-100v209q0 136 -124 136q-87 0 -157 -46v-299h-99z"/>
<glyph glyph-name="uni040C" horiz-adv-x="614" unicode="Ќ" d="M93 0v706h99v-297h105l179 297h109l-206 -335v-2l219 -369h-113l-188 323h-105v-323h-99zM275 755l72 127h105l-96 -127h-81z"/>
<glyph glyph-name="uni040D" horiz-adv-x="752" unicode="Ѝ" d="M344 755l-95 127h104l73 -127h-82zM93 0v706h99v-458l-6 -103h2q35 66 60 104l313 457h97v-706h-98v458l6 103h-2q-34 -64 -59 -103l-315 -458h-97z"/>
<glyph glyph-name="uni040E" horiz-adv-x="599" unicode="Ў" d="M301 739q-61 0 -104.5 34.5t-43.5 93.5v15h78v-14q0 -31 21 -48.5t49 -17.5q29 0 50 17.5t21 49.5v13h77v-15q0 -59 -43 -93.5t-105 -34.5zM75 34l45 75q46 -35 81 -35q29 0 46.5 19.5t33.5 59.5l-279 553h109l172 -355l40 -93h2q15 49 30 92l131 356h104l-225 -576 q-56 -142 -161 -142q-63 0 -129 46z"/>
<glyph glyph-name="uni040F" horiz-adv-x="730" unicode="Џ" d="M93 0v706h99v-620h346v620h99v-706h-227v-140h-90v140h-227z"/>
<glyph glyph-name="uni0410" horiz-adv-x="641" unicode="А" d="M213 285h214l-78 223l-28 101h-2q-15 -64 -27 -101zM15 0l253 706h105l253 -706h-102l-71 203h-266l-71 -203h-101z"/>
<glyph glyph-name="uni0411" horiz-adv-x="605" unicode="Б" d="M192 86h144q59 0 92.5 33t33.5 91t-34.5 92.5t-93.5 34.5h-142v-251zM93 0v706h417v-86h-318v-197h155q95 0 155 -56.5t60 -156.5q0 -94 -58.5 -152t-151.5 -58h-259z"/>
<glyph glyph-name="uni0412" horiz-adv-x="624" unicode="В" d="M192 86h159q56 0 88.5 33t32.5 88q0 54 -33 87t-88 33h-159v-241zM192 409h148q47 0 75.5 30t28.5 77t-28 75.5t-77 28.5h-147v-211zM93 0v706h247q92 0 148.5 -48t56.5 -132q0 -51 -23.5 -91t-64.5 -61v-2q55 -16 86 -63t31 -108q0 -96 -65 -148.5t-163 -52.5h-253z"/>
<glyph glyph-name="uni0413" horiz-adv-x="495" unicode="Г" d="M93 0v706h389v-86h-290v-620h-99z"/>
<glyph glyph-name="uni0414" horiz-adv-x="720" unicode="Д" d="M6 86h71q66 93 88.5 212t22.5 263v145h413v-620h78v-226h-89v140h-492v-140h-92v226zM181 86h321v534h-221v-65q0 -316 -100 -469z"/>
<glyph glyph-name="uni0415" horiz-adv-x="564" unicode="Е" d="M93 0v706h411v-86h-312v-221h253v-86h-253v-227h329v-86h-428z"/>
<glyph glyph-name="uni0416" horiz-adv-x="892" unicode="Ж" d="M18 0l205 369v2l-191 335h108l165 -297h92v297h98v-297h93l164 297h108l-191 -335v-2l206 -369h-112l-175 323h-93v-323h-98v323h-92l-176 -323h-111z"/>
<glyph glyph-name="uni0417" horiz-adv-x="546" unicode="З" d="M27 84l55 67q30 -32 74.5 -53t91.5 -21q66 0 106.5 34.5t40.5 93.5q0 54 -36.5 85.5t-95.5 31.5h-87v82h70q54 0 90.5 32t36.5 82q0 49 -31.5 81t-93.5 32q-87 0 -158 -60l-42 74q88 73 214 73q93 0 152.5 -50.5t59.5 -137.5q0 -108 -102 -159v-2q57 -16 90.5 -60.5 t33.5 -108.5q0 -96 -68.5 -154t-171.5 -58q-65 0 -126.5 25.5t-102.5 70.5z"/>
<glyph glyph-name="uni0418" horiz-adv-x="752" unicode="И" d="M93 0v706h99v-458l-6 -103h2q35 66 60 104l313 457h97v-706h-98v458l6 103h-2q-34 -64 -59 -103l-315 -458h-97z"/>
<glyph glyph-name="uni0419" horiz-adv-x="752" unicode="Й" d="M93 0v706h99v-458l-6 -103h2q35 66 60 104l313 457h97v-706h-98v458l6 103h-2q-34 -64 -59 -103l-315 -458h-97zM379 739q-61 0 -104.5 34.5t-43.5 93.5v15h78v-14q0 -31 21 -48.5t49 -17.5q29 0 50 17.5t21 49.5v13h77v-15q0 -59 -43 -93.5t-105 -34.5z"/>
<glyph glyph-name="uni041A" horiz-adv-x="614" unicode="К" d="M93 0v706h99v-297h105l179 297h109l-206 -335v-2l219 -369h-113l-188 323h-105v-323h-99z"/>
<glyph glyph-name="uni041B" horiz-adv-x="678" unicode="Л" d="M12 83q87 12 124 123t37 333v167h412v-706h-99v620h-219v-82q0 -268 -57.5 -403t-197.5 -143v91z"/>
<glyph glyph-name="uni041C" horiz-adv-x="851" unicode="М" d="M66 0l58 706h103l163 -382l34 -95h2q19 56 35 95l163 382h103l57 -706h-98l-34 445q-2 22 -2 68v36h-2q-22 -65 -38 -104l-141 -318h-88l-140 318l-38 106h-2q1 -16 1 -37q0 -36 -3 -69l-34 -445h-99z"/>
<glyph glyph-name="uni041D" horiz-adv-x="750" unicode="Н" d="M93 0v706h99v-310h367v310h98v-706h-98v310h-367v-310h-99z"/>
<glyph glyph-name="uni041E" horiz-adv-x="823" unicode="О" d="M151 358q0 -118 76 -198.5t185 -80.5t184.5 80.5t75.5 198.5q0 114 -75.5 192t-184.5 78t-185 -78t-76 -192zM49 358q0 152 105 256t258 104t257.5 -104t104.5 -256q0 -156 -104.5 -263t-257.5 -107t-258 107t-105 263z"/>
<glyph glyph-name="uni041F" horiz-adv-x="742" unicode="П" d="M93 0v706h556v-706h-99v620h-358v-620h-99z"/>
<glyph glyph-name="uni0420" horiz-adv-x="604" unicode="Р" d="M192 347h144q63 0 100 37t37 101q0 63 -36.5 99t-99.5 36h-145v-273zM93 0v706h259q98 0 159.5 -60.5t61.5 -160.5t-62 -162t-159 -62h-160v-261h-99z"/>
<glyph glyph-name="uni0421" horiz-adv-x="717" unicode="С" d="M50 357q0 155 101.5 258t257.5 103q161 0 258 -93l-50 -74q-39 35 -94.5 56t-109.5 21q-120 0 -190.5 -77t-70.5 -193q0 -117 72 -198t191 -81q59 0 116.5 24.5t100.5 67.5l53 -71q-112 -112 -273 -112t-261.5 105.5t-100.5 263.5z"/>
<glyph glyph-name="uni0422" horiz-adv-x="615" unicode="Т" d="M258 0v620h-243v86h584v-86h-243v-620h-98z"/>
<glyph glyph-name="uni0423" horiz-adv-x="599" unicode="У" d="M75 34l45 75q46 -35 81 -35q29 0 46.5 19.5t33.5 59.5l-279 553h109l172 -355l40 -93h2q15 49 30 92l131 356h104l-225 -576q-56 -142 -161 -142q-63 0 -129 46z"/>
<glyph glyph-name="uni0424" horiz-adv-x="832" unicode="Ф" d="M140 376q0 -98 62 -156t165 -58v423q-103 0 -165 -56.5t-62 -152.5zM466 162q103 0 165 58t62 156q0 96 -62 152.5t-165 56.5v-423zM39 376q0 132 90.5 212.5t237.5 80.5v81h99v-81q146 0 237 -80.5t91 -212.5q0 -134 -90.5 -216t-237.5 -82v-90h-99v90q-147 0 -237.5 82 t-90.5 216z"/>
<glyph glyph-name="uni0425" horiz-adv-x="598" unicode="Х" d="M16 0l222 364l-208 342h113l111 -191l44 -82h2q21 43 44 82l112 191h114l-210 -342l223 -364h-111l-129 217l-44 81h-2q-21 -42 -43 -81l-128 -217h-110z"/>
<glyph glyph-name="uni0426" horiz-adv-x="757" unicode="Ц" d="M93 0v706h99v-620h346v620h99v-620h81v-226h-89v140h-536z"/>
<glyph glyph-name="uni0427" horiz-adv-x="639" unicode="Ч" d="M264 271q-107 0 -160 53t-53 153v229h100v-208q0 -68 32 -102.5t102 -34.5q88 0 160 48v297h100v-706h-100v286l2 33h-2q-91 -48 -181 -48z"/>
<glyph glyph-name="uni0428" horiz-adv-x="1005" unicode="Ш" d="M93 0v706h99v-620h261v620h99v-620h261v620h98v-706h-818z"/>
<glyph glyph-name="uni0429" horiz-adv-x="1036" unicode="Щ" d="M93 0v706h99v-620h261v620h99v-620h261v620h98v-620h87v-226h-90v140h-815z"/>
<glyph glyph-name="uni042A" horiz-adv-x="687" unicode="Ъ" d="M291 86h137q59 0 93 35t34 97t-35 99t-94 37h-135v-268zM192 0v620h-184v86h283v-266h149q95 0 155 -59.5t60 -162.5q0 -98 -59 -158t-152 -60h-252z"/>
<glyph glyph-name="uni042B" horiz-adv-x="844" unicode="Ы" d="M192 86h134q59 0 92.5 35t33.5 97t-34.5 99t-93.5 37h-132v-268zM93 0v706h99v-266h145q95 0 155 -59.5t60 -162.5q0 -98 -58.5 -158t-151.5 -60h-249zM652 0v706h98v-706h-98z"/>
<glyph glyph-name="uni042C" horiz-adv-x="589" unicode="Ь" d="M192 86h137q60 0 93.5 35t33.5 97t-34.5 99t-93.5 37h-136v-268zM93 0v706h99v-266h150q95 0 155 -59.5t60 -162.5q0 -98 -59 -158t-152 -60h-253z"/>
<glyph glyph-name="uni042D" horiz-adv-x="716" unicode="Э" d="M33 96l52 69q38 -39 97.5 -63t122.5 -24q104 0 174.5 67t82.5 168h-369v82h370q-10 102 -81 167.5t-176 65.5q-118 0 -209 -79l-49 74q46 46 116 70.5t144 24.5q159 0 259 -103t100 -257q0 -158 -102.5 -264t-259.5 -106q-79 0 -150 29t-122 79z"/>
<glyph glyph-name="uni042E" horiz-adv-x="1066" unicode="Ю" d="M411 358q0 -117 73 -198t178 -81t179 81t74 198q0 113 -73.5 191t-179.5 78q-105 0 -178 -78t-73 -191zM93 0v706h99v-310h120q12 138 111.5 230t238.5 92q150 0 252.5 -104t102.5 -256q0 -156 -102.5 -263t-252.5 -107q-137 0 -235 91.5t-113 230.5h-122v-310h-99z"/>
<glyph glyph-name="uni042F" horiz-adv-x="622" unicode="Я" d="M294 365h136v255h-112q-62 0 -92 -16q-57 -32 -57 -107q0 -61 33.5 -96.5t91.5 -35.5zM23 0l158 263l21 33v2q-67 24 -100.5 77t-33.5 126q0 67 30 115t81 71q44 19 132 19h218v-706h-99v281h-130l-166 -281h-111z"/>
<glyph glyph-name="uni0430" horiz-adv-x="526" unicode="а" d="M130 146q0 -33 25 -57t70 -24q60 0 98 50t38 111v19h-25q-206 0 -206 -99zM33 138q0 56 31 94t82.5 54.5t95.5 22.5t93 6h26v10q0 111 -111 111q-73 0 -142 -49l-39 71q31 26 84 43t105 17q96 0 148 -51t52 -147v-320h-91v51l3 40h-2q-23 -45 -67.5 -74t-98.5 -29 q-69 0 -119 41t-50 109z"/>
<glyph glyph-name="uni0431" horiz-adv-x="586" unicode="б" d="M154 228q0 -73 41 -115.5t102 -42.5q62 0 103.5 42.5t41.5 113.5q0 72 -41 115t-100 43q-64 0 -105.5 -44.5t-41.5 -111.5zM53 291q0 141 50 226t178 139l181 78l32 -80l-194 -81q-76 -35 -113.5 -82.5t-42.5 -119.5h2q60 90 179 90q96 0 155.5 -63.5t59.5 -169.5 t-66 -173t-173 -67q-123 0 -185.5 82.5t-62.5 220.5z"/>
<glyph glyph-name="uni0432" horiz-adv-x="520" unicode="в" d="M172 68h104q51 0 77 21t26 58q0 38 -27 59t-77 21h-103v-159zM172 292h95q43 0 65 20.5t22 56.5q0 70 -90 70h-92v-147zM75 0v506h209q78 0 123.5 -33.5t45.5 -96.5q0 -37 -19 -66.5t-53 -44.5v-1q46 -11 71 -44t25 -76q0 -69 -50.5 -106.5t-135.5 -37.5h-216z"/>
<glyph glyph-name="uni0433" horiz-adv-x="413" unicode="г" d="M75 0v506h317v-83h-220v-423h-97z"/>
<glyph glyph-name="uni0434" horiz-adv-x="594" unicode="д" d="M12 80h62q79 108 79 333v93h342v-426h72v-200h-89v120h-375v-120h-91v200zM174 80h224v347h-152v-27q0 -208 -72 -320z"/>
<glyph glyph-name="uni0435" horiz-adv-x="557" unicode="е" d="M146 310h271q-2 63 -36.5 98t-86.5 35q-57 0 -97.5 -35.5t-50.5 -97.5zM42 253q0 119 72 192t182 73q103 0 161 -67.5t58 -169.5q0 -13 -4 -41h-368q4 -79 53.5 -123.5t120.5 -44.5q83 0 149 59l41 -71q-36 -33 -89.5 -52.5t-106.5 -19.5q-118 0 -193.5 75.5t-75.5 189.5 z"/>
<glyph glyph-name="uni0436" horiz-adv-x="752" unicode="ж" d="M17 0l163 260v2l-149 244h103l124 -207h72v207h92v-207h72l125 207h102l-148 -244v-2l163 -260h-109l-132 216h-73v-216h-92v216h-72l-133 -216h-108z"/>
<glyph glyph-name="uni0437" horiz-adv-x="448" unicode="з" d="M26 62l45 64q57 -60 132 -60q46 0 75.5 21.5t29.5 61.5q0 77 -104 77h-62v70h53q96 0 96 73q0 35 -24 54t-66 19q-64 0 -123 -44l-36 65q74 55 176 55q75 0 123 -36t48 -101q0 -84 -74 -115v-2q91 -29 91 -119q0 -75 -55.5 -116t-138.5 -41q-108 0 -186 74z"/>
<glyph glyph-name="uni0438" horiz-adv-x="598" unicode="и" d="M75 0v506h93v-302q0 -53 -3 -68h2q5 12 45 68l218 302h94v-506h-94v302q0 14 1.5 39.5t1.5 27.5h-2q-1 -2 -44 -67l-219 -302h-93z"/>
<glyph glyph-name="uni0439" horiz-adv-x="598" unicode="й" d="M75 0v506h93v-302q0 -53 -3 -68h2q5 12 45 68l218 302h94v-506h-94v302q0 14 1.5 39.5t1.5 27.5h-2q-1 -2 -44 -67l-219 -302h-93zM298 564q-61 0 -104.5 34.5t-43.5 93.5v15h78v-14q0 -31 21 -48.5t49 -17.5q29 0 50 17.5t21 49.5v13h77v-15q0 -59 -43 -93.5t-105 -34.5 z"/>
<glyph glyph-name="uni043A" horiz-adv-x="522" unicode="к" d="M75 0v506h97v-204h71l138 204h110l-169 -241v-2l189 -263h-115l-151 219h-73v-219h-97z"/>
<glyph glyph-name="uni043B" horiz-adv-x="548" unicode="л" d="M20 -5v87q57 9 85.5 71.5t28.5 196.5v156h339v-506h-97v426h-149v-76q0 -175 -48.5 -262t-158.5 -93z"/>
<glyph glyph-name="uni043C" horiz-adv-x="730" unicode="м" d="M54 0l44 506h108l129 -286l28 -68h2q15 37 28 68l132 286h106l44 -506h-94l-22 301v21l1 66h-2q-13 -35 -32 -74l-120 -253h-83l-120 252l-32 75h-2q2 -32 2 -61q0 -5 -0.5 -13.5t-0.5 -12.5l-22 -301h-94z"/>
<glyph glyph-name="uni043D" horiz-adv-x="600" unicode="н" d="M75 0v506h97v-206h256v206h97v-506h-97v217h-256v-217h-97z"/>
<glyph glyph-name="uni043E" horiz-adv-x="629" unicode="о" d="M141 254q0 -79 50.5 -130.5t123.5 -51.5q72 0 123 52t51 130t-51 129t-123 51q-73 0 -123.5 -51t-50.5 -129zM42 254q0 113 79 188.5t193 75.5q115 0 194 -75t79 -189t-79 -190t-193 -76t-193.5 76t-79.5 190z"/>
<glyph glyph-name="uni043F" horiz-adv-x="592" unicode="п" d="M75 0v506h442v-506h-97v423h-248v-423h-97z"/>
<glyph glyph-name="uni0440" horiz-adv-x="601" unicode="р" d="M169 251q0 -72 38.5 -125.5t104.5 -53.5q62 0 104 48.5t42 131.5q0 82 -39.5 131.5t-103.5 49.5q-62 0 -104 -46t-42 -136zM75 -200v706h90v-45l-3 -38h2q24 45 69 70t101 25q102 0 162 -73t60 -192q0 -120 -64 -192.5t-165 -72.5t-157 86h-2q4 -18 4 -44v-230h-97z"/>
<glyph glyph-name="uni0441" horiz-adv-x="545" unicode="с" d="M42 253q0 113 76.5 189t194.5 76q120 0 190 -74l-46 -68q-58 58 -140 58q-76 0 -126 -51.5t-50 -128.5q0 -78 50.5 -130t128.5 -52q42 0 84.5 18.5t71.5 49.5l39 -71q-35 -37 -89 -59t-113 -22q-119 0 -195 75t-76 190z"/>
<glyph glyph-name="uni0442" horiz-adv-x="490" unicode="т" d="M197 0v423h-176v83h449v-83h-177v-423h-96z"/>
<glyph glyph-name="uni0443" horiz-adv-x="535" unicode="у" d="M50 -105q28 -22 58 -22q61 0 92 75l25 58l-212 500h109l127 -331l19 -61h2q8 34 17 60l123 332h105l-238 -597q-22 -58 -65.5 -88.5t-98.5 -30.5q-25 0 -49 8t-36 16l-12 7z"/>
<glyph glyph-name="uni0444" horiz-adv-x="726" unicode="ф" d="M139 254q0 -80 49.5 -130t128.5 -55v368q-80 -5 -129 -53.5t-49 -129.5zM410 69q79 5 128.5 55t49.5 130q0 81 -49.5 129.5t-128.5 53.5v-368zM43 254q0 114 77 186t197 77v183h93v-183q120 -5 196.5 -76.5t76.5 -186.5t-76.5 -188t-196.5 -78v-188h-93v188 q-120 5 -197 78t-77 188z"/>
<glyph glyph-name="uni0445" horiz-adv-x="499" unicode="х" d="M17 0l173 260l-163 246h111l94 -154l16 -30h2q10 17 17 30l94 154h111l-163 -246l173 -260h-110l-106 169l-16 27h-2q-7 -15 -15 -27l-106 -169h-110z"/>
<glyph glyph-name="uni0446" horiz-adv-x="610" unicode="ц" d="M75 0v506h97v-422h241v422h98v-422h71v-204h-89v120h-418z"/>
<glyph glyph-name="uni0447" horiz-adv-x="523" unicode="ч" d="M213 176q-82 0 -126 42.5t-44 122.5v165h95v-151q0 -43 22 -69t79 -26q62 0 112 36v210h97v-506h-97v183l1 30h-2q-59 -37 -137 -37z"/>
<glyph glyph-name="uni0448" horiz-adv-x="804" unicode="ш" d="M75 0v506h93v-422h187v422h94v-422h187v422h93v-506h-654z"/>
<glyph glyph-name="uni0449" horiz-adv-x="829" unicode="щ" d="M75 0v506h93v-422h187v422h94v-422h187v422h93v-422h72v-204h-89v120h-637z"/>
<glyph glyph-name="uni044A" horiz-adv-x="559" unicode="ъ" d="M244 70h87q50 0 75 24.5t25 66.5q0 43 -24.5 67.5t-75.5 24.5h-87v-183zM147 0v423h-137v83h234v-183h102q83 0 133 -40.5t50 -122.5q0 -74 -46 -117t-138 -43h-198z"/>
<glyph glyph-name="uni044B" horiz-adv-x="705" unicode="ы" d="M172 70h85q50 0 75 24.5t25 66.5t-25 67t-76 25h-84v-183zM75 0v506h97v-183h99q84 0 134 -40.5t50 -122.5q0 -74 -46.5 -117t-138.5 -43h-195zM533 0v506h97v-506h-97z"/>
<glyph glyph-name="uni044C" horiz-adv-x="487" unicode="ь" d="M172 70h87q50 0 75 24.5t25 66.5q0 43 -24.5 67.5t-75.5 24.5h-87v-183zM75 0v506h97v-183h102q84 0 134 -40.5t50 -122.5q0 -74 -46.5 -117t-139.5 -43h-197z"/>
<glyph glyph-name="uni044D" horiz-adv-x="544" unicode="э" d="M30 64l38 69q64 -65 159 -65q70 0 119.5 41.5t59.5 108.5h-242v70h242q-10 68 -59 109.5t-117 41.5q-84 0 -146 -59l-44 67q32 35 84.5 53t108.5 18q117 0 192.5 -75.5t75.5 -189.5q0 -115 -75.5 -190t-194.5 -75q-122 0 -201 76z"/>
<glyph glyph-name="uni044E" horiz-adv-x="828" unicode="ю" d="M358 254q0 -79 47.5 -130.5t117.5 -51.5q69 0 116.5 51.5t47.5 130.5q0 78 -47.5 129t-116.5 51q-70 0 -117.5 -51t-47.5 -129zM75 0v506h97v-212h92q14 98 86 161t172 63q111 0 187.5 -75t76.5 -189t-76 -190t-187 -76q-100 0 -172.5 63.5t-86.5 162.5h-92v-214h-97z "/>
<glyph glyph-name="uni044F" horiz-adv-x="512" unicode="я" d="M256 254h84v185h-81q-107 0 -107 -91q0 -46 29 -70t75 -24zM24 0l117 168l23 31v1q-46 13 -78 52.5t-32 94.5q0 76 49.5 117.5t131.5 41.5h202v-506h-97v183h-85l-124 -183h-107z"/>
<glyph glyph-name="uni0450" horiz-adv-x="557" unicode="ѐ" d="M268 580l-95 127h104l73 -127h-82zM146 310h271q-2 63 -36.5 98t-86.5 35q-57 0 -97.5 -35.5t-50.5 -97.5zM42 253q0 119 72 192t182 73q103 0 161 -67.5t58 -169.5q0 -13 -4 -41h-368q4 -79 53.5 -123.5t120.5 -44.5q83 0 149 59l41 -71q-36 -33 -89.5 -52.5 t-106.5 -19.5q-118 0 -193.5 75.5t-75.5 189.5z"/>
<glyph glyph-name="uni0451" horiz-adv-x="557" unicode="ё" d="M146 310h271q-2 63 -36.5 98t-86.5 35q-57 0 -97.5 -35.5t-50.5 -97.5zM42 253q0 119 72 192t182 73q103 0 161 -67.5t58 -169.5q0 -13 -4 -41h-368q4 -79 53.5 -123.5t120.5 -44.5q83 0 149 59l41 -71q-36 -33 -89.5 -52.5t-106.5 -19.5q-118 0 -193.5 75.5t-75.5 189.5 zM167 606v101h80v-101h-80zM335 606v101h79v-101h-79z"/>
<glyph glyph-name="uni0452" horiz-adv-x="603" unicode="ђ" d="M75 0v553h-63v71h63v82h97v-82h206v-71h-206v-163l-2 -42h2q20 43 69.5 78t118.5 35q173 0 173 -194v-271q0 -50 -14 -89t-34 -60.5t-47 -35t-48.5 -17.5t-43.5 -4l-41 3v83q13 -2 29 -2q17 0 32 4.5t32.5 16t27.5 37.5t10 64v249q0 61 -19.5 94t-75.5 33q-57 0 -101 -35 t-60 -90q-8 -27 -8 -67v-180h-97z"/>
<glyph glyph-name="uni0453" horiz-adv-x="413" unicode="ѓ" d="M75 0v506h317v-83h-220v-423h-97zM172 580l72 127h105l-96 -127h-81z"/>
<glyph glyph-name="uni0454" horiz-adv-x="545" unicode="є" d="M42 253q0 113 76.5 189t194.5 76q57 0 105 -18t67 -36l19 -17l-45 -68q-6 6 -17.5 16t-49 26t-76.5 16q-70 0 -119 -39.5t-59 -105.5h241v-70h-242q9 -70 59 -112t123 -42q44 0 83.5 17t57.5 35l18 17l38 -70l-8.5 -8.5t-25 -19t-41 -24t-56.5 -19t-72 -8.5 q-119 0 -195 75t-76 190z"/>
<glyph glyph-name="uni0455" horiz-adv-x="447" unicode="ѕ" d="M32 62l46 66q61 -59 149 -59q39 0 62.5 17.5t23.5 48.5q0 26 -27 45t-65 33t-76 31t-65 49.5t-27 78.5q0 69 52 107.5t130 38.5q102 0 164 -56l-39 -70q-22 21 -57.5 33t-70.5 12q-39 0 -62.5 -16t-23.5 -47q0 -27 27 -46t65 -32.5t76.5 -30.5t65.5 -49.5t27 -78.5 q0 -65 -51 -107t-131 -42q-120 0 -193 74z"/>
<glyph glyph-name="uni0456" horiz-adv-x="246" unicode="і" d="M75 0v506h97v-506h-97zM73 608v98h100v-98h-100z"/>
<glyph glyph-name="uni0457" horiz-adv-x="246" unicode="ї" d="M75 0v506h97v-506h-97zM1 606v101h80v-101h-80zM169 606v101h79v-101h-79z"/>
<glyph glyph-name="uni0458" horiz-adv-x="246" unicode="ј" d="M75 -11v517h97v-523q0 -48 -14.5 -84t-35 -55.5t-49 -31.5t-50.5 -15t-45 -3q-10 0 -34 2v83q10 -2 22 -2q18 0 34 4t34.5 14.5t29.5 34.5t11 59zM73 608v98h100v-98h-100z"/>
<glyph glyph-name="uni0459" horiz-adv-x="753" unicode="љ" d="M441 70h89q50 0 74.5 23t24.5 63q0 41 -24.5 65t-74.5 24h-89v-175zM26 -5v87q59 8 87 70t28 194v160h300v-190h100q84 0 134 -39.5t50 -120.5q0 -72 -46.5 -114t-139.5 -42h-195v426h-110v-77q0 -180 -48 -264t-160 -90z"/>
<glyph glyph-name="uni045A" horiz-adv-x="817" unicode="њ" d="M505 70h89q100 0 100 87q0 85 -104 85h-85v-172zM75 0v506h97v-193h236v193h97v-194h96q84 0 136 -38.5t52 -116.5q0 -73 -46.5 -115t-139.5 -42h-195v235h-236v-235h-97z"/>
<glyph glyph-name="uni045B" horiz-adv-x="603" unicode="ћ" d="M75 0v553h-63v71h63v82h97v-82h206v-71h-206v-163l-2 -42h2q20 44 69.5 78.5t118.5 34.5q89 0 131 -48t42 -145v-268h-97v246q0 61 -19.5 93.5t-75.5 32.5q-57 0 -101 -34.5t-60 -89.5q-8 -28 -8 -68v-180h-97z"/>
<glyph glyph-name="uni045C" horiz-adv-x="522" unicode="ќ" d="M75 0v506h97v-204h71l138 204h110l-169 -241v-2l189 -263h-115l-151 219h-73v-219h-97zM217 580l72 127h105l-96 -127h-81z"/>
<glyph glyph-name="uni045D" horiz-adv-x="598" unicode="ѝ" d="M279 580l-95 127h104l73 -127h-82zM75 0v506h93v-302q0 -53 -3 -68h2q5 12 45 68l218 302h94v-506h-94v302q0 14 1.5 39.5t1.5 27.5h-2q-1 -2 -44 -67l-219 -302h-93z"/>
<glyph glyph-name="uni045E" horiz-adv-x="535" unicode="ў" d="M268 564q-61 0 -104.5 34.5t-43.5 93.5v15h78v-14q0 -31 21 -48.5t49 -17.5q29 0 50 17.5t21 49.5v13h77v-15q0 -59 -43 -93.5t-105 -34.5zM50 -105q28 -22 58 -22q61 0 92 75l25 58l-212 500h109l127 -331l19 -61h2q8 34 17 60l123 332h105l-238 -597 q-22 -58 -65.5 -88.5t-98.5 -30.5q-25 0 -49 8t-36 16l-12 7z"/>
<glyph glyph-name="uni045F" horiz-adv-x="575" unicode="џ" d="M75 0v506h97v-422h231v422h96v-506h-167v-120h-89v120h-168z"/>
<glyph glyph-name="uni0462" horiz-adv-x="689" unicode="Ѣ" d="M288 86h136q60 0 96.5 34t36.5 94q0 56 -37 89.5t-97 33.5h-135v-251zM190 0v539h-178v79h179v103h97v-103h204v-79h-204v-116h151q96 0 157.5 -57t61.5 -152q0 -96 -61.5 -155t-156.5 -59h-250z"/>
<glyph glyph-name="uni0463" horiz-adv-x="535" unicode="ѣ" d="M217 70h90q51 0 76 24.5t25 66.5t-25 67t-76 25h-90v-183zM120 0v459h-121v73h121v174h97v-174h166v-73h-166v-136h105q83 0 133 -40.5t50 -122.5q0 -74 -46 -117t-138 -43h-201z"/>
<glyph glyph-name="uni0472" horiz-adv-x="823" unicode="Ѳ" d="M412 630q-102 0 -175 -66t-86 -168h521q-13 102 -86 168t-174 66zM412 76q102 0 174.5 68t85.5 173h-521q14 -105 86.5 -173t174.5 -68zM49 358q0 153 104 256.5t259 103.5t258.5 -103.5t103.5 -256.5q0 -157 -103.5 -263.5t-258.5 -106.5t-259 106.5t-104 263.5z"/>
<glyph glyph-name="uni0473" horiz-adv-x="629" unicode="ѳ" d="M315 443q-69 0 -119.5 -43.5t-60.5 -112.5h359q-10 69 -60.5 112.5t-118.5 43.5zM315 63q69 0 119.5 45t60.5 117h-360q9 -72 60 -117t120 -45zM42 254q0 113 79 188.5t193 75.5q115 0 194 -75t79 -189t-79 -190t-193 -76t-193.5 76t-79.5 190z"/>
<glyph glyph-name="uni0474" horiz-adv-x="688" unicode="Ѵ" d="M270 0l-258 706h107l175 -499l27 -97h2q14 59 27 97l141 420q17 51 40 65t78 14h66v-87h-23h-5q-34 0 -48 -8.5t-27 -45.5l-198 -565h-104z"/>
<glyph glyph-name="uni0475" horiz-adv-x="564" unicode="ѵ" d="M208 0l-189 506h102l123 -342l18 -69h2q9 41 18 69l84 251q17 51 43.5 71t78.5 20h57v-85h-22q-33 0 -47.5 -10.5t-26.5 -44.5l-129 -366h-112z"/>
<glyph glyph-name="uni048A" horiz-adv-x="790" unicode="Ҋ" d="M381 739q-61 0 -104.5 34.5t-43.5 93.5v15h78v-14q0 -31 21 -48.5t49 -17.5q29 0 50 17.5t21 49.5v13h77v-15q0 -59 -43 -93.5t-105 -34.5zM93 0v706h99v-458l-6 -103h2q35 66 60 104l313 457h97v-620h109v-57l-72 -169h-72l42 140h-105v458l6 103h-2q-34 -64 -59 -103 l-315 -458h-97z"/>
<glyph glyph-name="uni048B" horiz-adv-x="640" unicode="ҋ" d="M303 564q-61 0 -104.5 34.5t-43.5 93.5v15h78v-14q0 -31 21 -48.5t49 -17.5q29 0 50 17.5t21 49.5v13h77v-15q0 -59 -43 -93.5t-105 -34.5zM75 0v506h93v-302q0 -53 -3 -68h2q5 12 45 68l218 302h94v-423h92v-55l-62 -148h-69l36 120h-91v302q0 14 1.5 39.5t1.5 27.5h-2 q-1 -2 -44 -67l-219 -302h-93z"/>
<glyph glyph-name="uni048C" horiz-adv-x="677" unicode="Ҍ" d="M272 86h141q60 0 96.5 34t36.5 94q0 59 -37 93.5t-97 34.5h-140v-256zM173 0v570h-162v77h164v103h97v-103h184v-77h-184v-142h157q95 0 156.5 -58.5t61.5 -155.5q0 -96 -61.5 -155t-155.5 -59h-257z"/>
<glyph glyph-name="uni048D" horiz-adv-x="540" unicode="ҍ" d="M222 70h90q51 0 76 24.5t25 66.5t-25 67t-76 25h-90v-183zM125 0v459h-121v73h121v174h97v-174h166v-73h-166v-136h105q83 0 133 -40.5t50 -122.5q0 -74 -46 -117t-138 -43h-201z"/>
<glyph glyph-name="uni048E" horiz-adv-x="622" unicode="Ҏ" d="M329 438l56 45l69 -92q26 37 26 89q0 66 -37 103t-103 37h-148v-281h147q33 0 58 9zM93 0v706h259q98 0 159.5 -60.5t61.5 -160.5q0 -103 -65 -165l59 -78l-54 -45l-64 83q-46 -19 -97 -19h-160v-261h-99z"/>
<glyph glyph-name="uni048F" horiz-adv-x="609" unicode="ҏ" d="M318 170l54 47l65 -79q28 45 28 111q0 84 -40.5 134t-106.5 50q-64 0 -106.5 -46t-42.5 -139q0 -73 39 -126t108 -53q38 0 70 18zM75 -200v706h90v-45l-3 -38h2q2 4 5.5 10.5t18 22.5t32 28.5t48.5 23t66 10.5q102 0 162 -73t60 -192q0 -114 -59 -187l55 -65l-54 -47 l-55 65q-53 -31 -116 -31q-31 0 -58.5 9t-44.5 21.5t-30 25t-18 21.5l-6 9h-2q4 -18 4 -44v-230h-97z"/>
<glyph glyph-name="uni0490" horiz-adv-x="503" unicode="Ґ" d="M93 0v706h314v97h83v-183h-298v-620h-99z"/>
<glyph glyph-name="uni0491" horiz-adv-x="413" unicode="ґ" d="M75 0v506h240v91h78v-174h-221v-423h-97z"/>
<glyph glyph-name="uni0492" horiz-adv-x="506" unicode="Ғ" d="M99 0v309h-61v73h61v324h388v-86h-290v-238h160v-73h-160v-309h-98z"/>
<glyph glyph-name="uni0493" horiz-adv-x="420" unicode="ғ" d="M78 0v208h-62v66h62v232h318v-83h-221v-149h129v-66h-129v-208h-97z"/>
<glyph glyph-name="uni0494" horiz-adv-x="611" unicode="Ҕ" d="M93 0v706h390v-86h-291v-228q62 29 136 29q242 0 242 -284q0 -161 -68.5 -238t-187.5 -77v81q153 0 153 234q0 105 -38 151.5t-120 46.5q-53 0 -117 -27v-308h-99z"/>
<glyph glyph-name="uni0495" horiz-adv-x="503" unicode="ҕ" d="M75 0v506h324v-79h-227v-164q55 25 111 25q97 0 142.5 -62t45.5 -153q0 -182 -151 -280l-47 68q104 69 104 206q0 140 -113 140q-50 0 -92 -26v-181h-97z"/>
<glyph glyph-name="uni0496" horiz-adv-x="938" unicode="Җ" d="M18 0l205 369v2l-191 335h108l165 -297h92v297h98v-297h93l164 297h108l-191 -335v-2l158 -283h96v-226h-89v140h-71l-175 323h-93v-323h-98v323h-92l-176 -323h-111z"/>
<glyph glyph-name="uni0497" horiz-adv-x="792" unicode="җ" d="M17 0l163 260v2l-149 244h103l124 -207h72v207h92v-207h72l125 207h102l-148 -244v-2l110 -176h90v-204h-89v120h-57l-132 216h-73v-216h-92v216h-72l-133 -216h-108z"/>
<glyph glyph-name="uni0498" horiz-adv-x="548" unicode="Ҙ" d="M27 84l55 67q30 -32 74.5 -53t91.5 -21q66 0 106.5 34.5t40.5 93.5q0 54 -36.5 85.5t-95.5 31.5h-87v82h70q54 0 90.5 32t36.5 82q0 49 -31.5 81t-93.5 32q-87 0 -158 -60l-42 74q88 73 214 73q93 0 152.5 -50.5t59.5 -137.5q0 -108 -102 -159v-2q57 -16 90.5 -60.5 t33.5 -108.5q0 -84 -53.5 -139.5t-137.5 -68.5v-132h-90v131q-119 15 -188 93z"/>
<glyph glyph-name="uni0499" horiz-adv-x="450" unicode="ҙ" d="M26 62l45 64q57 -60 132 -60q46 0 75.5 21.5t29.5 61.5q0 77 -104 77h-62v70h53q96 0 96 73q0 35 -24 54t-66 19q-64 0 -123 -44l-36 65q74 55 176 55q75 0 123 -36t48 -101q0 -84 -74 -115v-2q91 -29 91 -119q0 -62 -39 -101t-102 -51v-113h-87v110q-90 11 -152 72z"/>
<glyph glyph-name="uni049A" horiz-adv-x="659" unicode="Қ" d="M93 0v706h99v-297h105l179 297h109l-206 -335v-2l168 -283h97v-226h-89v140h-70l-188 323h-105v-323h-99z"/>
<glyph glyph-name="uni049B" horiz-adv-x="557" unicode="қ" d="M75 0v506h97v-204h71l138 204h110l-169 -241v-2l128 -179h89v-204h-89v120h-54l-151 219h-73v-219h-97z"/>
<glyph glyph-name="uni049C" horiz-adv-x="702" unicode="Ҝ" d="M93 0v706h99v-297h71v120h74v-120h48l178 297h109l-205 -335v-2l219 -369h-113l-188 323h-48v-121h-74v121h-71v-323h-99z"/>
<glyph glyph-name="uni049D" horiz-adv-x="598" unicode="ҝ" d="M75 0v506h97v-204h54v102h70v-102h23l138 204h110l-168 -241v-2l188 -263h-114l-151 219h-26v-104h-70v104h-54v-219h-97z"/>
<glyph glyph-name="uni049E" horiz-adv-x="619" unicode="Ҟ" d="M16 525v71h80v110h99v-110h95v-71h-95v-116h105l179 297h109l-206 -335v-2l219 -369h-113l-188 323h-105v-323h-99v525h-80z"/>
<glyph glyph-name="uni049F" horiz-adv-x="522" unicode="ҟ" d="M75 0v529h-62v68h62v109h97v-109h113v-68h-113v-213h72l137 190h110l-168 -227v-2l187 -277h-113l-151 232h-74v-232h-97z"/>
<glyph glyph-name="uni04A0" horiz-adv-x="750" unicode="Ҡ" d="M229 0v620h-212v86h310v-297h106l178 297h109l-206 -335v-2l219 -369h-112l-188 323h-106v-323h-98z"/>
<glyph glyph-name="uni04A1" horiz-adv-x="593" unicode="ҡ" d="M147 0v423h-137v83h234v-204h71l138 204h109l-168 -241v-2l189 -263h-115l-151 219h-73v-219h-97z"/>
<glyph glyph-name="uni04A2" horiz-adv-x="785" unicode="Ң" d="M93 0v706h99v-310h367v310h98v-620h98v-226h-90v140h-106v310h-367v-310h-99z"/>
<glyph glyph-name="uni04A3" horiz-adv-x="633" unicode="ң" d="M75 0v506h97v-206h256v206h97v-422h85v-204h-89v120h-93v217h-256v-217h-97z"/>
<glyph glyph-name="uni04A4" horiz-adv-x="932" unicode="Ҥ" d="M93 0v706h99v-310h338v310h388v-86h-290v-620h-98v310h-338v-310h-99z"/>
<glyph glyph-name="uni04A5" horiz-adv-x="728" unicode="ҥ" d="M75 0v506h97v-206h233v206h302v-83h-205v-423h-97v217h-233v-217h-97z"/>
<glyph glyph-name="uni04A6" horiz-adv-x="997" unicode="Ҧ" d="M93 0v706h490v-304q62 29 136 29q241 0 241 -294q0 -315 -255 -315v81q153 0 153 234q0 112 -38 162t-120 50q-51 0 -117 -28v-321h-98v621h-293v-621h-99z"/>
<glyph glyph-name="uni04A7" horiz-adv-x="816" unicode="ҧ" d="M75 0v506h397v-214q54 26 112 26q98 0 149.5 -65.5t51.5 -164.5q0 -193 -151 -295l-47 68q104 71 104 223q0 151 -122 151q-54 0 -97 -26v-209h-97v423h-203v-423h-97z"/>
<glyph glyph-name="uni04A8" horiz-adv-x="936" unicode="Ҩ" d="M466 410q0 -87 37.5 -158t106.5 -114q76 48 121.5 121.5t45.5 155.5q0 98 -43.5 149.5t-109.5 51.5q-62 0 -110 -53t-48 -153zM51 364q0 75 23.5 139t61.5 106t80 69.5t86 39.5l34 -89q-76 -26 -130.5 -94.5t-54.5 -173.5q0 -118 68.5 -200t191.5 -82q56 0 110 17 q-74 55 -115.5 135t-41.5 178q0 137 77 217t184 80q112 0 183 -78t71 -212q0 -91 -46 -174.5t-125 -145.5q54 -14 115 -14h47v-82h-48q-105 0 -202 39q-100 -51 -210 -51q-158 0 -258.5 103.5t-100.5 272.5z"/>
<glyph glyph-name="uni04A9" horiz-adv-x="782" unicode="ҩ" d="M395 305q0 -61 31 -109.5t86 -78.5q56 33 90 83t34 110q0 61 -32 96t-86 35q-53 0 -88 -38.5t-35 -97.5zM43 261q0 101 55 166.5t128 90.5l33 -79q-51 -21 -87.5 -67.5t-36.5 -112.5q0 -81 50.5 -136t150.5 -55q44 0 87 12q-120 86 -120 223q0 91 61 153t156 62 q94 0 151 -57t57 -146q0 -129 -125 -231q35 -7 78 -7h53v-77h-49q-87 0 -168 30q-87 -42 -182 -42q-138 0 -215 77t-77 196z"/>
<glyph glyph-name="uni04AA" horiz-adv-x="717" unicode="Ҫ" d="M50 357q0 155 101.5 258t257.5 103q161 0 258 -93l-50 -74q-39 35 -94.5 56t-109.5 21q-120 0 -190.5 -77t-70.5 -193q0 -117 72 -198t191 -81q59 0 116.5 24.5t100.5 67.5l53 -71q-100 -100 -239 -110v-130h-90v132q-139 18 -222.5 119.5t-83.5 245.5z"/>
<glyph glyph-name="uni04AB" horiz-adv-x="546" unicode="ҫ" d="M42 253q0 113 76.5 189t194.5 76q120 0 190 -74l-46 -68q-58 58 -140 58q-76 0 -126 -51.5t-50 -128.5q0 -78 50.5 -130t128.5 -52q42 0 84.5 18.5t71.5 49.5l39 -71q-63 -66 -169 -79v-110h-87v113q-98 16 -157.5 87.5t-59.5 172.5z"/>
<glyph glyph-name="uni04AC" horiz-adv-x="617" unicode="Ҭ" d="M256 0l1 2v618h-243v86h584v-86h-243v-534h98v-226h-90v140h-107z"/>
<glyph glyph-name="uni04AD" horiz-adv-x="496" unicode="ҭ" d="M197 0v423h-176v83h449v-83h-177v-339h85v-204h-89v120h-92z"/>
<glyph glyph-name="uni04AE" horiz-adv-x="580" unicode="Ү" d="M241 0v299l-237 407h112l130 -232l43 -89h2q21 48 43 89l130 232h112l-237 -407v-299h-98z"/>
<glyph glyph-name="uni04AF" horiz-adv-x="526" unicode="ү" d="M215 23l-197 483h102l123 -314l19 -67h2q8 38 19 67l123 314h102l-197 -483v-223h-96v223z"/>
<glyph glyph-name="uni04B0" horiz-adv-x="580" unicode="Ұ" d="M119 233v73h118l-233 400h112l130 -232l43 -89h2q21 48 43 89l130 232h112l-233 -400h120v-73h-124v-233h-98v233h-122z"/>
<glyph glyph-name="uni04B1" horiz-adv-x="525" unicode="ұ" d="M99 0v71h96l-177 435h103l122 -314l19 -67h2q8 38 19 67l121 314h102l-176 -435h98v-71h-117v-200h-96v200h-116z"/>
<glyph glyph-name="uni04B2" horiz-adv-x="643" unicode="Ҳ" d="M16 0l222 364l-208 342h113l111 -191l45 -84h2q20 45 43 84l112 191h114l-210 -342l170 -278h99v-226h-90v140h-67l-129 217l-44 81h-2q-21 -42 -43 -81l-128 -217h-110z"/>
<glyph glyph-name="uni04B3" horiz-adv-x="533" unicode="ҳ" d="M17 0l173 260l-163 246h111l94 -154l16 -30h2q10 17 17 30l94 154h111l-163 -246l117 -176h86v-204h-89v120h-51l-106 169l-16 27h-2q-7 -15 -15 -27l-106 -169h-110z"/>
<glyph glyph-name="uni04B4" horiz-adv-x="902" unicode="Ҵ" d="M229 0v620h-212v86h522v-86h-212v-534h353v620h98v-620h91v-226h-89v140h-551z"/>
<glyph glyph-name="uni04B5" horiz-adv-x="732" unicode="ҵ" d="M177 0v423h-155v83h409v-83h-157v-339h259v422h97v-422h75v-203h-89v119h-439z"/>
<glyph glyph-name="uni04B6" horiz-adv-x="673" unicode="Ҷ" d="M264 271q-107 0 -160 53t-53 153v229h100v-208q0 -68 32 -102.5t102 -34.5q88 0 160 48v297h100v-620h97v-226h-89v140h-108v286l2 33h-2q-91 -48 -181 -48z"/>
<glyph glyph-name="uni04B7" horiz-adv-x="559" unicode="ҷ" d="M213 176q-82 0 -126 42.5t-44 122.5v165h95v-151q0 -43 22 -69t79 -26q62 0 112 36v210h97v-422h88v-204h-88v120h-97v183l1 30h-2q-59 -37 -137 -37z"/>
<glyph glyph-name="uni04B8" horiz-adv-x="654" unicode="Ҹ" d="M271 168v106q-112 0 -167 53t-55 153v226h100v-208q0 -65 29 -98.5t93 -37.5v140h74v-136q68 13 115 43v297h100v-706h-100v289l2 33h-2q-51 -27 -115 -40v-114h-74z"/>
<glyph glyph-name="uni04B9" horiz-adv-x="547" unicode="ҹ" d="M221 178q-85 0 -131.5 42t-46.5 121v165h95v-151q0 -84 86 -94v122h71v-119q46 9 81 32v210h97v-506h-97v187l2 30h-2q-34 -19 -81 -30v-88h-71v79h-3z"/>
<glyph glyph-name="uni04BA" horiz-adv-x="627" unicode="Һ" d="M93 0v706h99v-261l-2 -33h2q87 46 184 46q100 0 149 -55.5t49 -153.5v-249h-100v233q0 137 -124 137q-88 0 -158 -46v-324h-99z"/>
<glyph glyph-name="uni04BB" horiz-adv-x="603" unicode="һ" d="M75 0v706h97v-262l-4 -42h2q21 44 71 80t119 36q173 0 173 -194v-324h-97v302q0 61 -19.5 94t-75.5 33q-73 0 -121 -53.5t-48 -135.5v-240h-97z"/>
<glyph glyph-name="uni04BC" horiz-adv-x="876" unicode="Ҽ" d="M313 422h410q0 88 -48.5 148t-142.5 60q-90 0 -149 -61t-70 -147zM38 514q0 48 8 83l8 39h90l-8 -40q-8 -37 -8 -73q0 -44 19.5 -72.5t60.5 -28.5h4q20 133 108 214.5t212 81.5q134 0 213 -88.5t79 -239.5l-3 -47h-511q2 -121 72.5 -192.5t172.5 -71.5q53 0 105 19.5 t74.5 35t36.5 28.5l48 -76q-110 -98 -274 -98q-144 0 -240 99.5t-98 256.5h-3q-78 0 -122 44t-44 126z"/>
<glyph glyph-name="uni04BD" horiz-adv-x="680" unicode="ҽ" d="M268 310h271q-2 62 -36.5 96.5t-86.5 34.5q-56 0 -97 -35t-51 -96zM33 390q0 38 12 74h80q-12 -32 -12 -69q0 -81 57 -84q17 95 85.5 151t163.5 56q103 0 160.5 -67.5t57.5 -169.5l-3 -41h-369q4 -79 54 -123.5t121 -44.5q38 0 75.5 15t55.5 29l18 15l40 -71 q-9 -8 -24.5 -20t-66.5 -32t-104 -20q-115 0 -189.5 71.5t-79.5 180.5q-132 0 -132 150z"/>
<glyph glyph-name="uni04BE" horiz-adv-x="877" unicode="Ҿ" d="M313 422h410q0 88 -48.5 148t-142.5 60q-90 0 -149 -61t-70 -147zM38 514q0 48 8 83l8 39h90l-8 -40q-8 -37 -8 -73q0 -44 19.5 -72.5t60.5 -28.5h4q20 133 108 214.5t212 81.5q134 0 213 -88.5t79 -239.5l-3 -47h-511q2 -121 72.5 -192.5t172.5 -71.5q53 0 105 19.5 t74.5 35t36.5 28.5l48 -76q-98 -87 -241 -97v-129h-90v133q-123 19 -201 114.5t-80 236.5h-3q-78 0 -122 44t-44 126z"/>
<glyph glyph-name="uni04BF" horiz-adv-x="680" unicode="ҿ" d="M268 310h271q-2 62 -36.5 96.5t-86.5 34.5q-56 0 -97 -35t-51 -96zM33 390q0 38 12 74h80q-12 -32 -12 -69q0 -81 57 -84q17 95 85.5 151t163.5 56q103 0 160.5 -67.5t57.5 -169.5l-3 -41h-369q4 -79 54 -123.5t121 -44.5q38 0 75.5 15t55.5 29l18 15l40 -71 q-8 -7 -22 -18t-59.5 -30.5t-93.5 -22.5v-109h-87v116q-88 19 -143 85.5t-59 158.5q-132 0 -132 150z"/>
<glyph glyph-name="uni04C0" horiz-adv-x="285" unicode="Ӏ" d="M93 0v706h98v-706h-98z"/>
<glyph glyph-name="uni04C1" horiz-adv-x="892" unicode="Ӂ" d="M448 739q-61 0 -104.5 34.5t-43.5 93.5v15h78v-14q0 -31 21 -48.5t49 -17.5q29 0 50 17.5t21 49.5v13h77v-15q0 -59 -43 -93.5t-105 -34.5zM18 0l205 369v2l-191 335h108l165 -297h92v297h98v-297h93l164 297h108l-191 -335v-2l206 -369h-112l-175 323h-93v-323h-98v323 h-92l-176 -323h-111z"/>
<glyph glyph-name="uni04C2" horiz-adv-x="752" unicode="ӂ" d="M375 564q-61 0 -104.5 34.5t-43.5 93.5v15h78v-14q0 -31 21 -48.5t49 -17.5q29 0 50 17.5t21 49.5v13h77v-15q0 -59 -43 -93.5t-105 -34.5zM17 0l163 260v2l-149 244h103l124 -207h72v207h92v-207h72l125 207h102l-148 -244v-2l163 -260h-109l-132 216h-73v-216h-92v216 h-72l-133 -216h-108z"/>
<glyph glyph-name="uni04C3" horiz-adv-x="636" unicode="Ӄ" d="M93 0v706h99v-297h105l179 297h109l-193 -315q98 -25 146 -99.5t48 -168.5q0 -139 -67 -220t-180 -81v83q61 0 102.5 50t41.5 162q0 104 -58.5 156t-162.5 52h-70v-325h-99z"/>
<glyph glyph-name="uni04C4" horiz-adv-x="528" unicode="ӄ" d="M75 0v506h97v-205h70l139 205h110l-159 -227v-2q154 -46 154 -224q0 -93 -44.5 -158.5t-108.5 -101.5l-46 70q105 55 105 190q0 80 -45 122t-128 42h-47v-217h-97z"/>
<glyph glyph-name="uni04C5" horiz-adv-x="717" unicode="Ӆ" d="M12 83q87 12 124 123t37 333v167h412v-620h109v-57l-72 -169h-73l43 140h-106v620h-219v-82q0 -268 -57.5 -403t-197.5 -143v91z"/>
<glyph glyph-name="uni04C6" horiz-adv-x="586" unicode="ӆ" d="M20 -5v87q57 9 85.5 71.5t28.5 196.5v156h339v-423h89v-55l-63 -148h-68l36 120h-91v426h-149v-76q0 -175 -48.5 -262t-158.5 -93z"/>
<glyph glyph-name="uni04C7" horiz-adv-x="750" unicode="Ӈ" d="M93 0v706h99v-310h367v310h98l1 -655q0 -68 -17.5 -116t-48 -71.5t-61 -33t-66.5 -9.5h-14v84q108 0 108 143v262h-367v-310h-99z"/>
<glyph glyph-name="uni04C8" horiz-adv-x="601" unicode="ӈ" d="M75 0v506h97v-206h256v206h98v-458q0 -99 -38 -155t-112 -100l-51 71q51 27 77 68.5t26 114.5v170h-256v-217h-97z"/>
<glyph glyph-name="uni04C9" horiz-adv-x="790" unicode="Ӊ" d="M93 0v706h99v-310h367v310h98v-620h110v-57l-73 -169h-72l42 140h-105v310h-367v-310h-99z"/>
<glyph glyph-name="uni04CA" horiz-adv-x="638" unicode="ӊ" d="M75 0v506h97v-206h256v206h97v-423h89v-55l-63 -148h-68l36 120h-91v217h-256v-217h-97z"/>
<glyph glyph-name="uni04CB" horiz-adv-x="638" unicode="Ӌ" d="M264 271q-107 0 -160 53t-53 153v229h100v-208q0 -68 32 -102.5t102 -34.5q88 0 160 48v297h100v-706h-109v-140h-89v226h98v200l2 33h-2q-91 -48 -181 -48z"/>
<glyph glyph-name="uni04CC" horiz-adv-x="526" unicode="ӌ" d="M270 67h85v126l1 30h-1q-67 -38 -151 -38q-77 0 -119.5 42t-42.5 121v158h96v-145q0 -95 96 -95q67 0 121 37v203h97v-506h-93v-120h-89v187z"/>
<glyph glyph-name="uni04CD" horiz-adv-x="894" unicode="Ӎ" d="M66 0l58 706h103l163 -382l34 -95h2q19 56 35 95l163 382h103l50 -620h109v-57l-72 -169h-72l42 140h-98l-34 445q-2 22 -2 68v36h-2q-22 -65 -38 -104l-141 -318h-88l-140 318l-38 106h-2q1 -16 1 -37q0 -36 -3 -69l-34 -445h-99z"/>
<glyph glyph-name="uni04CE" horiz-adv-x="773" unicode="ӎ" d="M54 0l44 506h108l129 -286l28 -68h2q15 37 28 68l132 286h106l37 -423h92v-55l-63 -148h-69l36 120h-83l-22 301v21l1 66h-2q-13 -35 -32 -74l-120 -253h-83l-120 252l-32 75h-2q2 -32 2 -61q0 -5 -0.5 -13.5t-0.5 -12.5l-22 -301h-94z"/>
<glyph glyph-name="uni04CF" horiz-adv-x="246" unicode="ӏ" d="M75 0v706h97v-706h-97z"/>
<glyph glyph-name="uni04D0" horiz-adv-x="641" unicode="Ӑ" d="M318 739q-61 0 -104.5 34.5t-43.5 93.5v15h78v-14q0 -31 21 -48.5t49 -17.5q29 0 50 17.5t21 49.5v13h77v-15q0 -59 -43 -93.5t-105 -34.5zM213 285h214l-78 223l-28 101h-2q-15 -64 -27 -101zM15 0l253 706h105l253 -706h-102l-71 203h-266l-71 -203h-101z"/>
<glyph glyph-name="uni04D1" horiz-adv-x="527" unicode="ӑ" d="M271 564q-61 0 -104.5 34.5t-43.5 93.5v15h78v-14q0 -31 21 -48.5t49 -17.5q29 0 50 17.5t21 49.5v13h77v-15q0 -59 -43 -93.5t-105 -34.5zM130 146q0 -33 25 -57t70 -24q60 0 98 50t38 111v19h-25q-206 0 -206 -99zM33 138q0 56 31 94t82.5 54.5t95.5 22.5t93 6h26v10 q0 111 -111 111q-73 0 -142 -49l-39 71q31 26 84 43t105 17q96 0 148 -51t52 -147v-320h-91v51l3 40h-2q-23 -45 -67.5 -74t-98.5 -29q-69 0 -119 41t-50 109z"/>
<glyph glyph-name="uni04D2" horiz-adv-x="641" unicode="Ӓ" d="M196 781v101h80v-101h-80zM364 781v101h79v-101h-79zM213 285h214l-78 223l-28 101h-2q-15 -64 -27 -101zM15 0l253 706h105l253 -706h-102l-71 203h-266l-71 -203h-101z"/>
<glyph glyph-name="uni04D3" horiz-adv-x="527" unicode="ӓ" d="M137 606v101h80v-101h-80zM305 606v101h79v-101h-79zM130 146q0 -33 25 -57t70 -24q60 0 98 50t38 111v19h-25q-206 0 -206 -99zM33 138q0 56 31 94t82.5 54.5t95.5 22.5t93 6h26v10q0 111 -111 111q-73 0 -142 -49l-39 71q31 26 84 43t105 17q96 0 148 -51t52 -147v-320 h-91v51l3 40h-2q-23 -45 -67.5 -74t-98.5 -29q-69 0 -119 41t-50 109z"/>
<glyph glyph-name="uni04D4" horiz-adv-x="876" unicode="Ӕ" d="M269 396h138v224h-47zM8 0l292 706h517v-86h-312v-221h253v-86h-253v-227h328v-86h-426v314h-171l-125 -314h-103z"/>
<glyph glyph-name="uni04D5" horiz-adv-x="863" unicode="ӕ" d="M132 147q0 -34 25 -57.5t71 -23.5q59 0 96.5 50.5t37.5 111.5v14h-48q-182 0 -182 -95zM458 313h264q-2 60 -36.5 93.5t-83.5 33.5q-57 0 -95.5 -33t-48.5 -94zM34 142q0 39 14.5 69t41.5 48t55 29.5t66.5 16.5t65 6.5t59.5 1.5h25v12q0 111 -114 111q-72 0 -140 -49 l-39 71q32 27 83.5 43.5t101.5 16.5q128 0 169 -89h2q60 89 179 89q101 0 159 -67t58 -168q0 -13 -2 -41h-364q4 -81 51 -125.5t118 -44.5q84 0 150 58l40 -70q-35 -32 -89 -52t-107 -20q-75 0 -131 33t-86 93h-2q-5 -14 -16.5 -31t-33 -40t-59 -38.5t-82.5 -15.5 q-73 0 -123 41t-50 112z"/>
<glyph glyph-name="uni04D6" horiz-adv-x="564" unicode="Ӗ" d="M303 739q-61 0 -104.5 34.5t-43.5 93.5v15h78v-14q0 -31 21 -48.5t49 -17.5q29 0 50 17.5t21 49.5v13h77v-15q0 -59 -43 -93.5t-105 -34.5zM93 0v706h411v-86h-312v-221h253v-86h-253v-227h329v-86h-428z"/>
<glyph glyph-name="uni04D7" horiz-adv-x="557" unicode="ӗ" d="M291 564q-61 0 -104.5 34.5t-43.5 93.5v15h78v-14q0 -31 21 -48.5t49 -17.5q29 0 50 17.5t21 49.5v13h77v-15q0 -59 -43 -93.5t-105 -34.5zM146 310h271q-2 63 -36.5 98t-86.5 35q-57 0 -97.5 -35.5t-50.5 -97.5zM42 253q0 119 72 192t182 73q103 0 161 -67.5t58 -169.5 q0 -13 -4 -41h-368q4 -79 53.5 -123.5t120.5 -44.5q83 0 149 59l41 -71q-36 -33 -89.5 -52.5t-106.5 -19.5q-118 0 -193.5 75.5t-75.5 189.5z"/>
<glyph glyph-name="uni04D8" horiz-adv-x="722" unicode="Ә" d="M151 310q0 -112 50.5 -172.5t154.5 -60.5q93 0 151 64t59 169h-415zM51 339l3 50h513q-5 106 -69.5 172.5t-165.5 66.5q-54 0 -106 -18t-74.5 -32.5t-36.5 -26.5l-50 74q120 93 277 93q146 0 237.5 -103t91.5 -259q0 -161 -88 -264.5t-232 -103.5q-140 0 -220 91t-80 260 z"/>
<glyph glyph-name="uni04D9" horiz-adv-x="557" unicode="ә" d="M143 210q2 -75 37 -110t89 -35q58 0 99 37.5t43 107.5h-268zM42 235l3 45h370q-4 71 -50.5 114.5t-112.5 43.5q-41 0 -81.5 -14t-60.5 -28l-19 -15l-39 69l8 6q9 5 15 9t19 11t25 12t29 11t34 10t38.5 6.5t42.5 2.5q113 0 182.5 -74.5t69.5 -189.5q0 -122 -70 -194 t-178 -72t-166.5 68t-58.5 179z"/>
<glyph glyph-name="uni04DA" horiz-adv-x="722" unicode="Ӛ" d="M151 310q0 -112 50.5 -172.5t154.5 -60.5q93 0 151 64t59 169h-415zM51 339l3 50h513q-5 106 -69.5 172.5t-165.5 66.5q-54 0 -106 -18t-74.5 -32.5t-36.5 -26.5l-50 74q120 93 277 93q146 0 237.5 -103t91.5 -259q0 -161 -88 -264.5t-232 -103.5q-140 0 -220 91t-80 260 zM230 781v101h80v-101h-80zM398 781v101h79v-101h-79z"/>
<glyph glyph-name="uni04DB" horiz-adv-x="557" unicode="ӛ" d="M143 210q2 -75 37 -110t89 -35q58 0 99 37.5t43 107.5h-268zM42 235l3 45h370q-4 71 -50.5 114.5t-112.5 43.5q-41 0 -81.5 -14t-60.5 -28l-19 -15l-39 69l8 6q9 5 15 9t19 11t25 12t29 11t34 10t38.5 6.5t42.5 2.5q113 0 182.5 -74.5t69.5 -189.5q0 -122 -70 -194 t-178 -72t-166.5 68t-58.5 179zM141 606v101h80v-101h-80zM309 606v101h79v-101h-79z"/>
<glyph glyph-name="uni04DC" horiz-adv-x="892" unicode="Ӝ" d="M325 781v101h80v-101h-80zM493 781v101h79v-101h-79zM18 0l205 369v2l-191 335h108l165 -297h92v297h98v-297h93l164 297h108l-191 -335v-2l206 -369h-112l-175 323h-93v-323h-98v323h-92l-176 -323h-111z"/>
<glyph glyph-name="uni04DD" horiz-adv-x="752" unicode="ӝ" d="M17 0l163 260v2l-149 244h103l124 -207h72v207h92v-207h72l125 207h102l-148 -244v-2l163 -260h-109l-132 216h-73v-216h-92v216h-72l-133 -216h-108zM252 606v101h80v-101h-80zM420 606v101h79v-101h-79z"/>
<glyph glyph-name="uni04DE" horiz-adv-x="546" unicode="Ӟ" d="M27 84l55 67q30 -32 74.5 -53t91.5 -21q66 0 106.5 34.5t40.5 93.5q0 54 -36.5 85.5t-95.5 31.5h-87v82h70q54 0 90.5 32t36.5 82q0 49 -31.5 81t-93.5 32q-87 0 -158 -60l-42 74q88 73 214 73q93 0 152.5 -50.5t59.5 -137.5q0 -108 -102 -159v-2q57 -16 90.5 -60.5 t33.5 -108.5q0 -96 -68.5 -154t-171.5 -58q-65 0 -126.5 25.5t-102.5 70.5zM144 781v101h80v-101h-80zM312 781v101h79v-101h-79z"/>
<glyph glyph-name="uni04DF" horiz-adv-x="448" unicode="ӟ" d="M26 62l45 64q57 -60 132 -60q46 0 75.5 21.5t29.5 61.5q0 77 -104 77h-62v70h53q96 0 96 73q0 35 -24 54t-66 19q-64 0 -123 -44l-36 65q74 55 176 55q75 0 123 -36t48 -101q0 -84 -74 -115v-2q91 -29 91 -119q0 -75 -55.5 -116t-138.5 -41q-108 0 -186 74zM94 606v101 h80v-101h-80zM262 606v101h79v-101h-79z"/>
<glyph glyph-name="uni04E0" horiz-adv-x="527" unicode="Ӡ" d="M68 123q31 -22 75 -36.5t84 -14.5q70 0 112.5 36t42.5 94q0 50 -26.5 78t-85.5 36q-19 2 -153 2v66l184 201q9 10 20 19.5t17 13.5l6 5v2q-27 -2 -61 -2h-233v83h408v-75l-196 -209l-29 -25v-2q63 -1 91 -8q154 -28 154 -181q0 -99 -69.5 -157.5t-177.5 -58.5t-198 60z "/>
<glyph glyph-name="uni04E1" horiz-adv-x="487" unicode="ӡ" d="M44 -77q31 -22 75 -36.5t84 -14.5q70 0 112.5 36t42.5 94q0 50 -26.5 78t-85.5 36q-19 2 -153 2v66l184 201q9 10 20 19.5t17 13.5l6 5v2q-27 -2 -61 -2h-233v83h408v-75l-196 -209l-29 -25v-2q63 -1 91 -8q154 -28 154 -181q0 -99 -69.5 -157.5t-177.5 -58.5t-198 60z "/>
<glyph glyph-name="uni04E2" horiz-adv-x="752" unicode="Ӣ" d="M93 0v706h99v-458l-6 -103h2q35 66 60 104l313 457h97v-706h-98v458l6 103h-2q-34 -64 -59 -103l-315 -458h-97zM257 784v71h254v-71h-254z"/>
<glyph glyph-name="uni04E3" horiz-adv-x="598" unicode="ӣ" d="M176 609v71h254v-71h-254zM75 0v506h93v-302q0 -53 -3 -68h2q5 12 45 68l218 302h94v-506h-94v302q0 14 1.5 39.5t1.5 27.5h-2q-1 -2 -44 -67l-219 -302h-93z"/>
<glyph glyph-name="uni04E4" horiz-adv-x="752" unicode="Ӥ" d="M93 0v706h99v-458l-6 -103h2q35 66 60 104l313 457h97v-706h-98v458l6 103h-2q-34 -64 -59 -103l-315 -458h-97zM253 781v101h80v-101h-80zM421 781v101h79v-101h-79z"/>
<glyph glyph-name="uni04E5" horiz-adv-x="598" unicode="ӥ" d="M75 0v506h93v-302q0 -53 -3 -68h2q5 12 45 68l218 302h94v-506h-94v302q0 14 1.5 39.5t1.5 27.5h-2q-1 -2 -44 -67l-219 -302h-93zM179 606v101h80v-101h-80zM347 606v101h79v-101h-79z"/>
<glyph glyph-name="uni04E6" horiz-adv-x="823" unicode="Ӧ" d="M151 358q0 -119 74 -199t187 -80q112 0 186 80t74 199q0 115 -74 192.5t-186 77.5q-113 0 -187 -77.5t-74 -192.5zM49 358q0 153 103 256.5t260 103.5q156 0 259 -103.5t103 -256.5q0 -157 -103 -263.5t-259 -106.5t-259.5 106.5t-103.5 263.5zM286 781v101h80v-101h-80z M454 781v101h79v-101h-79z"/>
<glyph glyph-name="uni04E7" horiz-adv-x="629" unicode="ӧ" d="M141 254q0 -79 50.5 -130.5t123.5 -51.5q72 0 123 52t51 130t-51 129t-123 51q-73 0 -123.5 -51t-50.5 -129zM42 254q0 113 79 188.5t193 75.5q115 0 194 -75t79 -189t-79 -190t-193 -76t-193.5 76t-79.5 190zM192 606v101h80v-101h-80zM360 606v101h79v-101h-79z"/>
<glyph glyph-name="uni04E8" horiz-adv-x="823" unicode="Ө" d="M412 630q-102 0 -175 -66t-86 -168h521q-13 102 -86 168t-174 66zM412 76q102 0 174.5 68t85.5 173h-521q14 -105 86.5 -173t174.5 -68zM49 358q0 153 104 256.5t259 103.5t258.5 -103.5t103.5 -256.5q0 -157 -103.5 -263.5t-258.5 -106.5t-259 106.5t-104 263.5z"/>
<glyph glyph-name="uni04E9" horiz-adv-x="629" unicode="ө" d="M315 443q-69 0 -119.5 -43.5t-60.5 -112.5h359q-10 69 -60.5 112.5t-118.5 43.5zM315 63q69 0 119.5 45t60.5 117h-360q9 -72 60 -117t120 -45zM42 254q0 113 79 188.5t193 75.5q115 0 194 -75t79 -189t-79 -190t-193 -76t-193.5 76t-79.5 190z"/>
<glyph glyph-name="uni04EA" horiz-adv-x="823" unicode="Ӫ" d="M456 781v101h79v-101h-79zM288 781v101h80v-101h-80zM412 630q-102 0 -175 -66t-86 -168h521q-13 102 -86 168t-174 66zM412 76q102 0 174.5 68t85.5 173h-521q14 -105 86.5 -173t174.5 -68zM49 358q0 153 104 256.5t259 103.5t258.5 -103.5t103.5 -256.5 q0 -157 -103.5 -263.5t-258.5 -106.5t-259 106.5t-104 263.5z"/>
<glyph glyph-name="uni04EB" horiz-adv-x="629" unicode="ӫ" d="M357 606v101h79v-101h-79zM189 606v101h80v-101h-80zM315 443q-69 0 -119.5 -43.5t-60.5 -112.5h359q-10 69 -60.5 112.5t-118.5 43.5zM315 63q69 0 119.5 45t60.5 117h-360q9 -72 60 -117t120 -45zM42 254q0 113 79 188.5t193 75.5q115 0 194 -75t79 -189t-79 -190 t-193 -76t-193.5 76t-79.5 190z"/>
<glyph glyph-name="uni04EC" horiz-adv-x="716" unicode="Ӭ" d="M33 96l52 69q38 -39 97.5 -63t122.5 -24q104 0 174.5 67t82.5 168h-369v82h370q-10 102 -81 167.5t-176 65.5q-118 0 -209 -79l-49 74q46 46 116 70.5t144 24.5q159 0 259 -103t100 -257q0 -158 -102.5 -264t-259.5 -106q-79 0 -150 29t-122 79zM202 781v101h80v-101h-80 zM370 781v101h79v-101h-79z"/>
<glyph glyph-name="uni04ED" horiz-adv-x="544" unicode="ӭ" d="M30 64l38 69q64 -65 159 -65q70 0 119.5 41.5t59.5 108.5h-242v70h242q-10 68 -59 109.5t-117 41.5q-84 0 -146 -59l-44 67q32 35 84.5 53t108.5 18q117 0 192.5 -75.5t75.5 -189.5q0 -115 -75.5 -190t-194.5 -75q-122 0 -201 76zM130 606v101h80v-101h-80zM298 606v101 h79v-101h-79z"/>
<glyph glyph-name="uni04EE" horiz-adv-x="599" unicode="Ӯ" d="M75 34l45 75q46 -35 81 -35q29 0 46.5 19.5t33.5 59.5l-279 553h109l172 -355l40 -93h2q15 49 30 92l131 356h104l-225 -576q-56 -142 -161 -142q-63 0 -129 46zM174 784v71h254v-71h-254z"/>
<glyph glyph-name="uni04EF" horiz-adv-x="535" unicode="ӯ" d="M141 609v71h254v-71h-254zM50 -105q28 -22 58 -22q61 0 92 75l25 58l-212 500h109l127 -331l19 -61h2q8 34 17 60l123 332h105l-238 -597q-22 -58 -65.5 -88.5t-98.5 -30.5q-25 0 -49 8t-36 16l-12 7z"/>
<glyph glyph-name="uni04F0" horiz-adv-x="599" unicode="Ӱ" d="M75 34l45 75q46 -35 81 -35q29 0 46.5 19.5t33.5 59.5l-279 553h109l172 -355l40 -93h2q15 49 30 92l131 356h104l-225 -576q-56 -142 -161 -142q-63 0 -129 46zM181 781v101h80v-101h-80zM349 781v101h79v-101h-79z"/>
<glyph glyph-name="uni04F1" horiz-adv-x="535" unicode="ӱ" d="M144 606v101h80v-101h-80zM312 606v101h79v-101h-79zM50 -105q28 -22 58 -22q61 0 92 75l25 58l-212 500h109l127 -331l19 -61h2q8 34 17 60l123 332h105l-238 -597q-22 -58 -65.5 -88.5t-98.5 -30.5q-25 0 -49 8t-36 16l-12 7z"/>
<glyph glyph-name="uni04F2" horiz-adv-x="599" unicode="Ӳ" d="M182 755l68 127h88l-71 -127h-85zM336 755l73 127h101l-96 -127h-78zM75 34l45 75q46 -35 81 -35q29 0 46.5 19.5t33.5 59.5l-279 553h109l172 -355l40 -93h2q15 49 30 92l131 356h104l-225 -576q-56 -142 -161 -142q-63 0 -129 46z"/>
<glyph glyph-name="uni04F3" horiz-adv-x="535" unicode="ӳ" d="M141 580l68 127h88l-71 -127h-85zM295 580l73 127h101l-96 -127h-78zM50 -105q28 -22 58 -22q61 0 92 75l25 58l-212 500h109l127 -331l19 -61h2q8 34 17 60l123 332h105l-238 -597q-22 -58 -65.5 -88.5t-98.5 -30.5q-25 0 -49 8t-36 16l-12 7z"/>
<glyph glyph-name="uni04F4" horiz-adv-x="639" unicode="Ӵ" d="M181 781v101h80v-101h-80zM349 781v101h79v-101h-79zM264 271q-107 0 -160 53t-53 153v229h100v-208q0 -68 32 -102.5t102 -34.5q88 0 160 48v297h100v-706h-100v286l2 33h-2q-91 -48 -181 -48z"/>
<glyph glyph-name="uni04F5" horiz-adv-x="523" unicode="ӵ" d="M213 176q-82 0 -126 42.5t-44 122.5v165h95v-151q0 -43 22 -69t79 -26q62 0 112 36v210h97v-506h-97v183l1 30h-2q-59 -37 -137 -37zM127 606v101h80v-101h-80zM295 606v101h79v-101h-79z"/>
<glyph glyph-name="uni04F6" horiz-adv-x="499" unicode="Ӷ" d="M93 0v706h389v-86h-290v-534h98v-226h-90v140h-107z"/>
<glyph glyph-name="uni04F7" horiz-adv-x="416" unicode="ӷ" d="M75 0v506h317v-83h-220v-339h84v-204h-88v120h-93z"/>
<glyph glyph-name="uni04F8" horiz-adv-x="844" unicode="Ӹ" d="M192 86h134q59 0 92.5 35t33.5 97t-34.5 99t-93.5 37h-132v-268zM93 0v706h99v-266h145q95 0 155 -59.5t60 -162.5q0 -98 -58.5 -158t-151.5 -60h-249zM652 0v706h98v-706h-98zM298 781v101h80v-101h-80zM466 781v101h79v-101h-79z"/>
<glyph glyph-name="uni04F9" horiz-adv-x="705" unicode="ӹ" d="M172 70h85q50 0 75 24.5t25 66.5t-25 67t-76 25h-84v-183zM75 0v506h97v-183h99q84 0 134 -40.5t50 -122.5q0 -74 -46.5 -117t-138.5 -43h-195zM533 0v506h97v-506h-97zM227 606v101h80v-101h-80zM395 606v101h79v-101h-79z"/>
<glyph glyph-name="uni0524" horiz-adv-x="777" unicode="Ԥ" d="M93 0v706h556v-620h98v-226h-90v140h-107v620h-358v-620h-99z"/>
<glyph glyph-name="uni0525" horiz-adv-x="625" unicode="ԥ" d="M75 0v506h442v-422h85v-204h-89v120h-93v423h-248v-423h-97z"/>
<glyph glyph-name="uni1E9E" horiz-adv-x="676" unicode="ẞ" d="M87 0v506q0 86 57.5 143t145.5 57h310v-68l-138 -202l-25 -33v-2l25 -1q73 -6 120.5 -63.5t47.5 -131.5q0 -85 -61.5 -145t-147.5 -60h-149v86h142q51 0 83 34.5t32 84.5q0 49 -31.5 83t-81.5 34h-88v69l113 169q13 20 24 35t16 20l5 5v2q-8 -2 -44 -2h-148 q-47 0 -77 -32t-30 -80v-508h-100z"/>
<glyph glyph-name="thinspace" horiz-adv-x="14" unicode=" "/>
<glyph glyph-name="endash" horiz-adv-x="669" unicode="–" d="M72 246v78h525v-78h-525z"/>
<glyph glyph-name="emdash" horiz-adv-x="869" unicode="—" d="M72 246v78h725v-78h-725z"/>
<glyph glyph-name="quoteleft" horiz-adv-x="250" unicode="‘" d="M60 523l65 194h72l-43 -194h-94z"/>
<glyph glyph-name="quoteright" horiz-adv-x="244" unicode="’" d="M64 523l42 194h95l-66 -194h-71z"/>
<glyph glyph-name="quotesinglbase" horiz-adv-x="258" unicode="‚" d="M50 -89l43 194h91l-64 -194h-70z"/>
<glyph glyph-name="quotedblleft" horiz-adv-x="391" unicode="“" d="M60 523l65 194h72l-43 -194h-94zM201 523l65 194h72l-43 -194h-94z"/>
<glyph glyph-name="quotedblright" d="M64 523l42 194h95l-65 -194h-72zM205 523l42 194h95l-65 -194h-72z" unicode="”"/>
<glyph glyph-name="quotedblbase" horiz-adv-x="396" unicode="„" d="M50 -89l43 194h91l-64 -194h-70zM188 -89l43 194h92l-65 -194h-70z"/>
<glyph glyph-name="dagger" horiz-adv-x="426" unicode="†" d="M165 -50v478h-121v78h121v200h94v-200h123v-78h-123v-478h-94z"/>
<glyph glyph-name="daggerdbl" horiz-adv-x="453" unicode="‡" d="M58 171v78h120v179h-120v78h120v200h94v-200h123v-78h-123v-179h123v-78h-123v-221h-94v221h-120z"/>
<glyph glyph-name="bullet" horiz-adv-x="476" unicode="•" d="M238 136q-64 0 -109 45.5t-45 109.5t45 109.5t109 45.5t109.5 -45.5t45.5 -109.5t-45.5 -109.5t-109.5 -45.5z"/>
<glyph glyph-name="ellipsis" horiz-adv-x="761" unicode="…" d="M70 0v105h101v-105h-101zM330 0v105h101v-105h-101zM589 0v105h102v-105h-102z"/>
<glyph glyph-name="perthousand" horiz-adv-x="1106" unicode="‰" d="M492 136q0 -31 21 -52.5t52 -21.5t52.5 21.5t21.5 52.5t-21.5 53t-52.5 22t-52 -22t-21 -53zM846 136q0 -31 21 -52.5t52 -21.5t53 21.5t22 52.5t-22 53t-53 22t-52 -22t-21 -53zM414 135q0 62 44 105.5t107 43.5t107.5 -43.5t44.5 -105.5q0 -61 -44.5 -104t-107.5 -43 t-107 43t-44 104zM768 135q0 61 44.5 105t106.5 44q63 0 108 -44t45 -105t-45 -104t-108 -43q-62 0 -106.5 43t-44.5 104zM202 496q32 0 53.5 21.5t21.5 52.5t-22 53t-53 22t-52 -22t-21 -53t21 -52.5t52 -21.5zM67 0l539 706h95l-540 -706h-94zM202 422q-62 0 -106.5 43.5 t-44.5 104.5t44.5 104.5t106.5 43.5q64 0 108.5 -43.5t44.5 -104.5q0 -62 -44.5 -105t-108.5 -43z"/>
<glyph glyph-name="guilsinglleft" horiz-adv-x="359" unicode="‹" d="M209 77l-164 205l164 206h97l-164 -206l164 -205h-97z"/>
<glyph glyph-name="guilsinglright" horiz-adv-x="359" unicode="›" d="M53 77l164 205l-164 206h97l164 -206l-164 -205h-97z"/>
<glyph glyph-name="fraction" horiz-adv-x="169" unicode="⁄" d="M-45 0h-75l336 706h74z"/>
<glyph glyph-name="zerosuperior" d="M193 482q81 0 81 160q0 159 -81 159q-82 0 -82 -159q0 -160 82 -160zM193 413q-157 0 -157 229q0 228 157 228t157 -228q0 -229 -157 -229z" unicode="⁰"/>
<glyph glyph-name="foursuperior" d="M100 596h126v123l3 58h-2q-13 -27 -29 -48l-98 -131v-2zM226 423v107h-207v50l200 280h81v-264h62v-66h-62v-107h-74z" unicode="⁴"/>
<glyph glyph-name="fivesuperior" d="M183 413q-89 0 -143 68l44 51q14 -22 40.5 -36t53.5 -14q37 0 63.5 23.5t26.5 58.5t-26.5 59t-64.5 24q-41 0 -75 -21l-42 16l24 218h231v-67h-170l-7 -62l-5 -32h2q27 10 56 10q66 0 109 -43t43 -103q0 -61 -45 -105.5t-115 -44.5z" unicode="⁵"/>
<glyph glyph-name="sixsuperior" d="M204 482q34 0 53 23.5t19 58.5q0 36 -22 60t-59 24q-31 0 -54.5 -16.5t-23.5 -36.5q0 -42 25 -77.5t62 -35.5zM204 413q-72 0 -118 55.5t-46 147.5q0 61 19.5 117t66 96.5t111.5 40.5q52 0 93 -22l-25 -63q-30 16 -65 16q-46 0 -76 -36t-40 -90h2q31 31 79 31 q66 0 106 -40.5t40 -102.5q0 -67 -41 -108.5t-106 -41.5z" unicode="⁶"/>
<glyph glyph-name="sevensuperior" d="M60 423l175 323l29 47v2q-19 -2 -45 -2h-171v67h302v-51l-207 -386h-83z" unicode="⁷"/>
<glyph glyph-name="eightsuperior" d="M193 478q31 0 55.5 18.5t24.5 46.5q0 13 -6 24t-20 21t-24.5 15.5t-33 15.5t-32.5 15q-49 -37 -49 -82q0 -34 25.5 -54t59.5 -20zM231 665q37 41 37 82q0 27 -21.5 42t-50.5 15q-28 0 -47.5 -13.5t-19.5 -40.5q0 -19 14.5 -35t30.5 -24.5t45 -20.5q8 -3 12 -5zM193 413 q-64 0 -111 36t-47 100q0 63 71 113q-49 35 -49 91q0 55 41.5 86t98.5 31t100 -31.5t43 -87.5t-56 -112q64 -38 64 -99q0 -56 -45.5 -91.5t-109.5 -35.5z" unicode="⁸"/>
<glyph glyph-name="ninesuperior" d="M190 634q31 0 54.5 17t23.5 37q0 42 -25 77.5t-62 35.5q-33 0 -52.5 -23.5t-19.5 -57.5q0 -37 22 -61.5t59 -24.5zM56 435l25 64q30 -16 65 -16q45 0 76 35.5t40 89.5h-2q-31 -31 -79 -31q-66 0 -106 40.5t-40 102.5q0 66 41 108t105 42q72 0 118.5 -55.5t46.5 -147.5 q0 -97 -51.5 -175.5t-145.5 -78.5q-54 0 -93 22z" unicode="⁹"/>
<glyph glyph-name="zeroinferior" d="M193 -98q81 0 81 160q0 159 -81 159q-82 0 -82 -159q0 -160 82 -160zM193 -167q-157 0 -157 229q0 228 157 228t157 -228q0 -229 -157 -229z" unicode="₀"/>
<glyph glyph-name="oneinferior" d="M72 -157v66h93v249l2 26h-2q-4 -9 -17 -22l-36 -34l-45 49l106 103h67v-371h92v-66h-260z" unicode="₁"/>
<glyph glyph-name="twoinferior" d="M47 -157q-3 18 -3 36q0 47 22 83.5t53 59t62 42t53 42.5t22 50q0 28 -20.5 46.5t-51.5 18.5q-45 0 -85 -48l-49 45q21 31 58.5 51.5t78.5 20.5q62 0 103 -36.5t41 -94.5q0 -40 -20.5 -72t-50 -52.5t-59.5 -38.5t-52 -39.5t-24 -47.5h213v-66h-291z" unicode="₂"/>
<glyph glyph-name="threeinferior" d="M182 -167q-42 0 -82 17t-65 49l42 53q15 -21 43 -35.5t59 -14.5q34 0 58.5 22t24.5 54q0 33 -26 52t-62 19h-34l-17 38l89 103l25 24v2q-19 -3 -37 -3h-141v67h271v-48l-109 -126q50 -7 83.5 -39.5t33.5 -88.5q0 -59 -44 -102t-112 -43z" unicode="₃"/>
<glyph glyph-name="fourinferior" d="M100 16h126v123l3 58h-2q-13 -27 -29 -48l-98 -131v-2zM226 -157v107h-207v50l200 280h81v-264h62v-66h-62v-107h-74z" unicode="₄"/>
<glyph glyph-name="fiveinferior" d="M183 -167q-89 0 -143 68l44 51q14 -22 40.5 -36t53.5 -14q37 0 63.5 23.5t26.5 58.5t-26.5 59t-64.5 24q-41 0 -75 -21l-42 16l24 218h231v-67h-170l-7 -62l-5 -32h2q27 10 56 10q66 0 109 -43t43 -103q0 -61 -45 -105.5t-115 -44.5z" unicode="₅"/>
<glyph glyph-name="sixinferior" d="M204 -98q34 0 53 23.5t19 58.5q0 36 -22 60t-59 24q-31 0 -54.5 -16.5t-23.5 -36.5q0 -42 25 -77.5t62 -35.5zM204 -167q-72 0 -118 55.5t-46 147.5q0 61 19.5 117t66 96.5t111.5 40.5q52 0 93 -22l-25 -63q-30 16 -65 16q-46 0 -76 -36t-40 -90h2q31 31 79 31 q66 0 106 -40.5t40 -102.5q0 -67 -41 -108.5t-106 -41.5z" unicode="₆"/>
<glyph glyph-name="seveninferior" d="M60 -157l175 323l29 47v2q-19 -2 -45 -2h-171v67h302v-51l-207 -386h-83z" unicode="₇"/>
<glyph glyph-name="eightinferior" d="M193 -101q31 0 55.5 18.5t24.5 46.5q0 13 -6 24t-20 21t-24.5 15.5t-33 15.5t-32.5 15q-49 -37 -49 -82q0 -34 25.5 -54t59.5 -20zM231 86q37 41 37 82q0 27 -21.5 42t-50.5 15q-28 0 -47.5 -13.5t-19.5 -40.5q0 -19 14.5 -35t30.5 -24.5t45 -20.5q8 -3 12 -5zM193 -166 q-64 0 -111 36t-47 100q0 63 71 113q-49 35 -49 91q0 55 41.5 86t98.5 31t100 -31.5t43 -87.5t-56 -112q64 -38 64 -99q0 -56 -45.5 -91.5t-109.5 -35.5z" unicode="₈"/>
<glyph glyph-name="nineinferior" d="M190 54q31 0 54.5 17t23.5 37q0 42 -25 77.5t-62 35.5q-33 0 -52.5 -23.5t-19.5 -57.5q0 -37 22 -61.5t59 -24.5zM56 -145l25 64q30 -16 65 -16q45 0 76 35.5t40 89.5h-2q-31 -31 -79 -31q-66 0 -106 40.5t-40 102.5q0 66 41 108t105 42q72 0 118.5 -55.5t46.5 -147.5 q0 -97 -51.5 -175.5t-145.5 -78.5q-54 0 -93 22z" unicode="₉"/>
<glyph glyph-name="Euro" horiz-adv-x="577" unicode="€" d="M26 258v63h56q-2 9 -2 38q0 24 1 34h-55v64h67q31 116 124 188.5t215 72.5q50 0 100 -12l-23 -90q-33 10 -79 10q-83 0 -145 -46t-87 -123h281l-13 -64h-282q-3 -15 -3 -33q0 -21 3 -39h269l-13 -63h-240q24 -80 87 -128t146 -48q49 0 91 13l19 -90q-46 -17 -111 -17 q-127 0 -219 74.5t-121 195.5h-66z"/>
<glyph glyph-name="numero" horiz-adv-x="1060" unicode="№" d="M735 196v70h265v-70h-265zM800 470q0 -30 20 -51t49 -21t48.5 21t19.5 51t-19.5 50t-48.5 20t-49 -20t-20 -50zM726 470q0 59 41.5 100t101.5 41q59 0 100.5 -41t41.5 -100q0 -60 -41.5 -101t-100.5 -41q-61 0 -102 41t-41 101zM88 0v706h98l314 -458q12 -17 26.5 -43 t23.5 -43l8 -17h2q-6 63 -6 103v458h99v-706h-97l-316 458l-58 103h-2q6 -63 6 -103v-458h-98z"/>
<glyph glyph-name="trademark" horiz-adv-x="992" unicode="™" d="M214 266v373h-153v67h380v-67h-152v-373h-75zM473 266l35 440h70l103 -230l14 -41h2q6 23 13 41l104 230h70l34 -440h-75l-21 263l1 30h-2l-94 -212h-61l-96 212h-2l1 -30l-21 -263h-75z"/>
<glyph glyph-name="minus" horiz-adv-x="577" unicode="−" d="M30 246v78h517v-78h-517z"/>
<glyph glyph-name="infinity" horiz-adv-x="482" unicode="∞" d="M241 167q-75 0 -128.5 53.5t-53.5 128.5t53.5 128t128.5 53q76 0 129 -52.5t53 -128.5q0 -75 -53 -128.5t-129 -53.5z"/>
<glyph glyph-name="approxequal" horiz-adv-x="577" unicode="≈" d="M79 133l-41 59q71 71 151 71q50 0 107.5 -35t90.5 -35q59 0 111 56l40 -59q-70 -72 -151 -72q-50 0 -107.5 35t-90.5 35q-55 0 -110 -55zM79 322l-41 58q71 73 151 73q50 0 107.5 -35t90.5 -35q60 0 111 55l40 -59q-71 -73 -151 -73q-50 0 -107.5 35t-90.5 35 q-56 0 -110 -54z"/>
<glyph glyph-name="notequal" horiz-adv-x="577" unicode="≠" d="M104 73l56 78h-111v78h163l80 111h-243v78h295l81 114l51 -34l-57 -80h107v-78h-159l-80 -111h239v-78h-291l-79 -112z"/>
<glyph glyph-name="lessequal" horiz-adv-x="577" unicode="≤" d="M49 -95h465v-77h-465v77zM48 252v66l466 208v-89l-357 -151v-2l357 -151v-89z"/>
<glyph glyph-name="greaterequal" horiz-adv-x="577" unicode="≥" d="M62 -95h465v-77h-465v77zM62 44v89l357 151v2l-357 151v89l467 -208v-66z"/>
<glyph glyph-name="commaaccent" horiz-adv-x="335" unicode="" d="M126 -59h85q7 -27 7 -51q0 -41 -25 -94h-74q19 54 19 84t-12 61z"/>
<glyph glyph-name="cyrbreve" horiz-adv-x="336" unicode="" d="M167 739q-61 0 -104.5 34.5t-43.5 93.5v15h78v-14q0 -31 21 -48.5t49 -17.5q29 0 50 17.5t21 49.5v13h77v-15q0 -59 -43 -93.5t-105 -34.5z"/>
<glyph glyph-name="apple" horiz-adv-x="1130" unicode="" d="M447 91h43v228h228v40h-228v192h199q17 0 23 -6.5t6 -22.5v-42h42v54q0 30 -13 43.5t-45 13.5h-320v-40h65v-460zM242 64v121l-99 60v225l99 58v123l215 114l110 -59l107 59l214 -114v-123l100 -58v-225l-100 -60v-121l-214 -114l-107 58l-110 -58zM208 30l238 -126 l121 66l118 -66l238 126v139l114 64v249l-114 66v136l-238 126l-118 -64l-121 64l-238 -126v-136l-114 -66v-249l114 -64v-139zM168 -5v152l-126 72v278l126 71v151l265 142l134 -71l132 71l265 -142v-151l124 -71v-278l-124 -72v-152l-265 -141l-132 71l-134 -71z"/>
<glyph glyph-name="zero.tnum" d="M289 79q148 0 148 275q0 273 -148 273t-148 -273q0 -275 148 -275zM289 -12q-68 0 -118 28t-78 79t-41 115t-13 144t13 143.5t41 114t78 78.5t118 28q250 0 250 -364q0 -366 -250 -366z" horiz-adv-x="577"/>
<glyph glyph-name="one.tnum" d="M98 0v86h156v456l1 43h-2q-8 -15 -34 -41l-66 -64l-60 62l169 164h88v-620h155v-86h-407z" horiz-adv-x="577"/>
<glyph glyph-name="two.tnum" d="M61 0q-5 32 -5 54q0 51 19 95t49.5 76t67.5 60.5t74.5 53.5t68 50t49.5 55.5t19 63.5q0 52 -36 84.5t-92 32.5q-43 0 -81.5 -25t-61.5 -65l-73 49q32 59 91 96.5t133 37.5q98 0 160 -56t62 -147q0 -54 -25 -101t-62.5 -77.5t-81.5 -62.5t-82 -57t-63.5 -59.5t-26.5 -71.5 h352v-86h-455z" horiz-adv-x="577"/>
<glyph glyph-name="three.tnum" d="M48 84l54 75q31 -33 77 -55t94 -22q60 0 102 36.5t42 92.5q0 62 -47.5 96t-117.5 34h-48l-23 53l154 181q10 12 21 23.5t17 17.5l6 5v2q-21 -3 -60 -3h-239v86h422v-63l-192 -222q51 -5 95.5 -26t78 -68.5t33.5 -112.5q0 -93 -67 -159.5t-173 -66.5q-63 0 -124 25 t-105 71z" horiz-adv-x="577"/>
<glyph glyph-name="four.tnum" d="M126 272h233v258l4 71h-2q-16 -34 -35 -59l-200 -268v-2zM17 189v62l327 455h112v-434h96v-83h-96v-189h-97v189h-342z" horiz-adv-x="577"/>
<glyph glyph-name="five.tnum" d="M55 86l56 72q62 -76 155 -76q64 0 109 40t45 103t-45.5 104t-114.5 41q-66 0 -119 -35l-58 21l35 350h357v-86h-271l-16 -149l-6 -36h2q40 21 92 21q110 0 178 -66.5t68 -164.5q0 -101 -71.5 -169t-178.5 -68q-63 0 -120.5 25.5t-96.5 72.5z" horiz-adv-x="577"/>
<glyph glyph-name="six.tnum" d="M314 79q56 0 91 41t35 103q0 67 -39 108.5t-106 41.5q-58 0 -101 -29t-43 -75q0 -65 46.5 -127.5t116.5 -62.5zM47 320q0 56 12 111.5t37.5 107.5t61.5 91.5t89.5 63.5t116.5 24q77 0 138 -29l-32 -85q-44 23 -102 23q-90 0 -144 -69.5t-67 -167.5h2q22 30 65.5 48 t90.5 18q99 0 161 -66t62 -167q0 -102 -64 -168.5t-163 -66.5q-114 0 -189 92t-75 240z" horiz-adv-x="577"/>
<glyph glyph-name="seven.tnum" d="M111 0l275 555q9 18 19 34.5t15 23.5l6 7v2q-14 -2 -50 -2h-316v86h472v-68l-318 -638h-103z" horiz-adv-x="577"/>
<glyph glyph-name="eight.tnum" d="M143 209q0 -57 43 -94.5t100 -37.5q58 0 100 33.5t42 86.5q0 23 -10.5 41.5t-34.5 34.5t-43 26t-56.5 26t-54.5 24q-86 -60 -86 -140zM357 383q64 68 64 139q0 50 -35 78.5t-92 28.5q-56 0 -88 -28t-32 -70q0 -15 4.5 -28t11 -23t19.5 -20.5t23 -17.5t28.5 -16t30 -14.5 t33.5 -14.5t33 -14zM42 201q0 37 13 71.5t34 58.5t36 37.5t30 23.5q-79 55 -79 139q0 78 57 132.5t163 54.5q99 0 160.5 -51.5t61.5 -136.5q0 -58 -28.5 -107.5t-56.5 -77.5q96 -58 96 -150q0 -85 -67 -146t-175 -61q-105 0 -175 60.5t-70 152.5z" horiz-adv-x="577"/>
<glyph glyph-name="nine.tnum" d="M281 333q59 0 102 30.5t43 68.5q0 72 -47.5 133.5t-112.5 61.5q-59 0 -94 -40.5t-35 -104.5q0 -66 39 -107.5t105 -41.5zM74 17l32 86q48 -24 101 -24q91 0 145 69.5t67 167.5h-2q-21 -30 -65 -48t-91 -18q-99 0 -161 66t-62 166q0 104 64 170t163 66q115 0 189.5 -92 t74.5 -241q0 -70 -19.5 -138.5t-57 -127.5t-100 -95t-141.5 -36q-78 0 -137 29z" horiz-adv-x="577"/>
<glyph glyph-name="hyphen.case" d="M70 305v86h292v-86h-292z" horiz-adv-x="432"/>
<glyph glyph-name="parenleft.case" d="M169 -65q-116 193 -116 435q0 210 116 395h85q-113 -189 -113 -396q0 -229 113 -434h-85z" horiz-adv-x="293"/>
<glyph glyph-name="parenright.case" d="M39 -65q113 205 113 434q0 207 -113 396h85q116 -185 116 -395q0 -242 -116 -435h-85z" horiz-adv-x="293"/>
<glyph glyph-name="bracketleft.case" d="M86 -65v830h166v-73h-81v-683h81v-74h-166z" horiz-adv-x="301"/>
<glyph glyph-name="bracketright.case" d="M49 9h81v683h-81v73h166v-830h-166v74z" horiz-adv-x="301"/>
<glyph glyph-name="braceleft.case" d="M126 107v96q0 44 -21.5 73t-63.5 36v86q40 8 62.5 36.5t22.5 74.5v84q0 45 12.5 78.5t30 51t42 28.5t42 13.5t35.5 2.5l23 -1v-74h-13q-13 0 -25 -3.5t-27.5 -13t-25 -32t-9.5 -56.5v-103q0 -44 -22 -78t-59 -49v-2q81 -32 81 -127v-115q0 -34 9.5 -57t25 -32.5 t27.5 -12.5t25 -3h13v-74q-9 -2 -23 -2q-18 0 -35.5 2.5t-42 13.5t-42 28.5t-30 51.5t-12.5 79z" horiz-adv-x="355"/>
<glyph glyph-name="braceright.case" d="M44 8h14q13 0 24.5 3t27 12.5t25 32.5t9.5 57v115q0 45 21 79t60 48v2q-34 13 -57.5 47t-23.5 80v103q0 34 -9.5 56.5t-25 32t-27 13t-24.5 3.5h-14v74q9 1 23 1q18 0 35.5 -2.5t42 -13.5t42 -28.5t30 -51t12.5 -78.5v-84q0 -44 22 -74t63 -37v-86q-40 -5 -62.5 -35.5 t-22.5 -73.5v-96q0 -45 -12.5 -79t-30 -51.5t-42 -28.5t-42 -13.5t-35.5 -2.5l-23 2v74z" horiz-adv-x="355"/>
<glyph glyph-name="at.case" d="M371 352q0 -49 33 -83t83 -34h101v236h-99q-51 0 -84.5 -34.5t-33.5 -84.5zM56 351q0 155 106 262.5t259 107.5q135 0 197.5 -57.5t62.5 -145.5v-283h72v-73h-273q-91 0 -149 55.5t-58 132.5q0 78 57.5 133t149.5 55h108q-1 44 -44 73.5t-118 29.5q-115 0 -194 -86 t-79 -204q0 -121 79.5 -204t204.5 -83v-79q-165 0 -273 105.5t-108 260.5z" horiz-adv-x="796"/>
<glyph glyph-name="guillemotleft.case" d="M209 137l-164 205l164 206h97l-164 -206l164 -205h-97zM411 137l-164 205l164 206h97l-164 -206l164 -205h-97z" horiz-adv-x="561"/>
<glyph glyph-name="guillemotright.case" d="M53 137l164 205l-164 206h97l164 -206l-164 -205h-97zM255 137l164 205l-164 206h97l164 -206l-164 -205h-97z" horiz-adv-x="561"/>
<glyph glyph-name="guilsinglleft.case" d="M209 137l-164 205l164 206h97l-164 -206l164 -205h-97z" horiz-adv-x="360"/>
<glyph glyph-name="guilsinglright.case" d="M53 137l164 205l-164 206h97l164 -206l-164 -205h-97z" horiz-adv-x="360"/>
<glyph glyph-name="endash.case" d="M70 306v78h526v-78h-526z" horiz-adv-x="666"/>
<glyph glyph-name="emdash.case" d="M70 306v78h726v-78h-726z" horiz-adv-x="866"/>
<glyph glyph-name="periodcentered.case" d="M70 294v103h99v-103h-99z" horiz-adv-x="240"/>
<glyph glyph-name="questiondown.case" d="M317 705v-99h-100v99h100zM314 511v-47q0 -42 -17.5 -76t-42.5 -57.5t-49.5 -45t-42 -49.5t-17.5 -61q0 -42 32.5 -70.5t81.5 -28.5q61 0 113 42l54 -69q-72 -64 -174 -64q-87 0 -148 51t-61 132q0 46 18 82.5t44.5 61t52.5 47t44 50.5t18 61v41h94z" horiz-adv-x="467"/>
<glyph glyph-name="exclamdown.case" d="M186 705v-99h-100v99h100zM180 511l6 -512h-100l7 512h87z" horiz-adv-x="273"/>
<glyph glyph-name="bullet.case" d="M237 197q-64 0 -109 45.5t-45 109.5t45 109.5t109 45.5t109.5 -45.5t45.5 -109.5t-45.5 -109.5t-109.5 -45.5z" horiz-adv-x="474"/>
<glyph glyph-name="zero.p_osf" d="M150 273q0 -83 36.5 -142t106.5 -59q69 0 105.5 59.5t36.5 141.5t-36.5 141.5t-105.5 59.5q-70 0 -106.5 -59t-36.5 -142zM52 272q0 75 24.5 138t81 105.5t135.5 42.5q116 0 178 -84.5t62 -202.5q0 -117 -62 -200t-178 -83q-117 0 -179 83.5t-62 200.5z" horiz-adv-x="585"/>
<glyph glyph-name="one.p_osf" d="M67 0v84h152v305l1 59h-2q-15 -15 -38 -29l-91 -54l-45 68l184 113h86v-462h137v-84h-384z" horiz-adv-x="483"/>
<glyph glyph-name="two.p_osf" d="M60 0v67q151 100 229 172t78 136q0 49 -33 73t-83 24q-77 0 -150 -75l-53 64q35 41 94 69t122 28q90 0 146 -48.5t56 -121.5q0 -84 -63.5 -153.5t-196.5 -152.5v-2q21 4 60 4h226v-84h-432z" horiz-adv-x="541"/>
<glyph glyph-name="three.p_osf" d="M34 -39l50 68q71 -73 161 -73q60 0 102 34t42 89q0 61 -48.5 93t-114.5 32h-52l-22 51l149 171q8 10 18 19.5t15 13.5l6 4v2q-21 -3 -59 -3h-207v84h397v-57l-193 -212q37 -3 72 -15t66.5 -33.5t51 -59t19.5 -84.5q0 -92 -66.5 -152.5t-173.5 -60.5q-130 0 -213 89z" horiz-adv-x="535"/>
<glyph glyph-name="four.p_osf" d="M137 117h220v256l5 71h-2q-17 -37 -35 -63zM29 33v62l310 451h115v-429h102v-84h-102v-149h-97v149h-328z" horiz-adv-x="593"/>
<glyph glyph-name="five.p_osf" d="M42 -32l51 66q26 -32 67 -51.5t85 -19.5q63 0 109 35.5t46 98.5t-45.5 98.5t-109.5 35.5q-31 0 -61 -7.5t-45 -15.5l-15 -8l-55 20l36 326h344v-84h-261l-16 -136l-5 -35h2q40 19 93 19q103 0 169.5 -57t66.5 -152q0 -101 -70 -162t-177 -61q-59 0 -115.5 23.5 t-93.5 66.5z" horiz-adv-x="539"/>
<glyph glyph-name="six.p_osf" d="M158 254q0 -67 45.5 -124.5t112.5 -57.5q60 0 94 38.5t34 99.5t-38.5 99.5t-104.5 38.5q-58 0 -100.5 -28.5t-42.5 -65.5zM56 294q0 67 19 132.5t55.5 121.5t98.5 91t140 35q76 0 137 -27l-32 -79q-44 22 -101 22q-90 0 -144.5 -67.5t-66.5 -161.5h2q22 31 65.5 48.5 t91.5 17.5q98 0 159.5 -61.5t61.5 -154.5q0 -97 -63.5 -160t-161.5 -63q-114 0 -187.5 83.5t-73.5 222.5z" horiz-adv-x="591"/>
<glyph glyph-name="seven.p_osf" d="M88 -116l262 519q9 17 18 32t14 21l4 7v2q-14 -2 -49 -2h-302v83h460v-64l-305 -598h-102z" horiz-adv-x="515"/>
<glyph glyph-name="eight.p_osf" d="M151 197q0 -55 42 -90t100 -35q57 0 98 31.5t41 81.5q0 18 -8.5 33.5t-20.5 26t-34 23t-38.5 19.5t-46 19.5t-45.5 19.5q-88 -57 -88 -129zM359 361q63 63 63 130q0 46 -34 72.5t-90 26.5q-55 0 -86.5 -26t-31.5 -66q0 -15 4.5 -28.5t16.5 -25t21 -19.5t30.5 -18.5 t32 -15t38 -15.5t36.5 -15zM54 191q0 43 24 84t45.5 59.5t42.5 32.5q-80 53 -80 133q0 72 55.5 123t157.5 51q96 0 156.5 -48.5t60.5 -128.5q0 -87 -81 -173q95 -56 95 -141q0 -80 -66 -137.5t-171 -57.5q-103 0 -171 57t-68 146z" horiz-adv-x="588"/>
<glyph glyph-name="nine.p_osf" d="M283 199q58 0 100.5 28t42.5 65q0 67 -45.5 124.5t-113.5 57.5q-59 0 -93.5 -38t-34.5 -100q0 -60 39 -98.5t105 -38.5zM110 -22q44 -22 101 -22q89 0 143.5 67.5t67.5 160.5h-2q-22 -30 -65.5 -47t-91.5 -17q-99 0 -160 61t-61 154q0 98 63.5 160.5t161.5 62.5 q114 0 187.5 -83.5t73.5 -222.5q0 -67 -19 -132.5t-55.5 -121.5t-98.5 -91t-140 -35q-76 0 -137 27z" horiz-adv-x="574"/>
<glyph glyph-name="zero.t_osf" d="M146 273q0 -83 36.5 -142t106.5 -59q69 0 105.5 59.5t36.5 141.5t-36.5 141.5t-105.5 59.5q-70 0 -106.5 -59t-36.5 -142zM48 272q0 75 24.5 138t81 105.5t135.5 42.5q116 0 178 -84.5t62 -202.5q0 -117 -62 -200t-178 -83q-117 0 -179 83.5t-62 200.5z" horiz-adv-x="577"/>
<glyph glyph-name="one.t_osf" d="M113 0v84h152v305l1 59h-2q-15 -15 -38 -29l-91 -54l-45 68l184 113h86v-462h137v-84h-384z" horiz-adv-x="577"/>
<glyph glyph-name="two.t_osf" d="M78 0v67q151 100 229 172t78 136q0 49 -33 73t-83 24q-77 0 -150 -75l-53 64q35 41 94 69t122 28q90 0 146 -48.5t56 -121.5q0 -84 -63.5 -153.5t-196.5 -152.5v-2q21 4 60 4h226v-84h-432z" horiz-adv-x="577"/>
<glyph glyph-name="three.t_osf" d="M55 -39l50 68q71 -73 161 -73q60 0 101.5 34t41.5 89q0 61 -48.5 93t-113.5 32h-52l-22 51l148 170q8 10 18 19.5t15 13.5l6 4v2q-21 -3 -58 -3h-207v84h396v-57l-192 -211q37 -3 71.5 -15t66 -33.5t51 -59t19.5 -84.5q0 -92 -66.5 -152.5t-172.5 -60.5q-130 0 -213 89z " horiz-adv-x="577"/>
<glyph glyph-name="four.t_osf" d="M130 117h220v256l5 71h-2q-17 -37 -35 -63zM22 33v62l310 451h115v-429h102v-84h-102v-149h-97v149h-328z" horiz-adv-x="577"/>
<glyph glyph-name="five.t_osf" d="M60 -32l51 66q26 -32 67 -51.5t85 -19.5q63 0 109 35.5t46 98.5t-45.5 98.5t-109.5 35.5q-31 0 -61 -7.5t-45 -15.5l-15 -8l-55 20l36 326h344v-84h-261l-16 -136l-5 -35h2q40 19 93 19q103 0 169.5 -57t66.5 -152q0 -101 -70 -162t-177 -61q-59 0 -115.5 23.5 t-93.5 66.5z" horiz-adv-x="577"/>
<glyph glyph-name="six.t_osf" d="M152 254q0 -67 45.5 -124.5t112.5 -57.5q60 0 94 38.5t34 99.5t-38.5 99.5t-104.5 38.5q-58 0 -100.5 -28.5t-42.5 -65.5zM50 294q0 67 19 132.5t55.5 121.5t98.5 91t140 35q76 0 137 -27l-32 -79q-44 22 -101 22q-90 0 -144.5 -67.5t-66.5 -161.5h2q22 31 65.5 48.5 t91.5 17.5q98 0 159.5 -61.5t61.5 -154.5q0 -97 -63.5 -160t-161.5 -63q-114 0 -187.5 83.5t-73.5 222.5z" horiz-adv-x="577"/>
<glyph glyph-name="seven.t_osf" d="M118 -116l262 519q9 17 18 32t14 21l4 7v2q-14 -2 -49 -2h-302v83h460v-64l-305 -598h-102z" horiz-adv-x="577"/>
<glyph glyph-name="eight.t_osf" d="M146 197q0 -55 42 -90t100 -35q57 0 98 31.5t41 81.5q0 18 -8.5 33.5t-20.5 26t-34 23t-38.5 19.5t-46 19.5t-45.5 19.5q-88 -57 -88 -129zM354 361q63 63 63 130q0 46 -34 72.5t-90 26.5q-55 0 -86.5 -26t-31.5 -66q0 -15 4.5 -28.5t16.5 -25t21 -19.5t30.5 -18.5 t32 -15t38 -15.5t36.5 -15zM49 191q0 43 24 84t45.5 59.5t42.5 32.5q-80 53 -80 133q0 72 55.5 123t157.5 51q96 0 156.5 -48.5t60.5 -128.5q0 -87 -81 -173q95 -56 95 -141q0 -80 -66 -137.5t-171 -57.5q-103 0 -171 57t-68 146z" horiz-adv-x="577"/>
<glyph glyph-name="nine.t_osf" d="M283 199q58 0 100.5 28t42.5 65q0 67 -45.5 124.5t-113.5 57.5q-59 0 -93.5 -38t-34.5 -100q0 -60 39 -98.5t105 -38.5zM110 -22q44 -22 101 -22q89 0 143.5 67.5t67.5 160.5h-2q-22 -30 -65.5 -47t-91.5 -17q-99 0 -160 61t-61 154q0 98 63.5 160.5t161.5 62.5 q114 0 187.5 -83.5t73.5 -222.5q0 -67 -19 -132.5t-55.5 -121.5t-98.5 -91t-140 -35q-76 0 -137 27z" horiz-adv-x="577"/>
<glyph glyph-name="dollar.osf" d="M43 85l51 71q29 -34 74 -57t91 -23q47 0 77 21t30 59q0 29 -31 51t-74.5 39t-87.5 37t-75 56.5t-31 86.5q0 68 46 110t119 51v87h71v-86q96 -11 150 -61l-41 -77q-55 53 -139 53q-46 0 -75.5 -19.5t-29.5 -59.5q0 -29 31 -50.5t75 -37.5t87.5 -36t74.5 -57t31 -89 q0 -65 -47 -110t-124 -53v-93h-71v93q-52 6 -101 31t-81 63z" horiz-adv-x="516"/>
<glyph glyph-name="cent.osf" d="M256 -27v83q-94 15 -152 81.5t-58 161.5q0 94 58 160.5t152 81.5v85h73v-82q100 -8 169 -77l-47 -73q-23 29 -61.5 46.5t-77.5 17.5q-74 0 -121.5 -45t-47.5 -113q0 -69 47.5 -115t121.5 -46q80 0 139 64l46 -72q-60 -67 -168 -78v-80h-73z" horiz-adv-x="554"/>
<glyph glyph-name="sterling.osf" d="M53 0v84h62v157h-45v68h45v88q0 83 63.5 138t159.5 55q100 0 173 -55l-47 -72q-53 40 -125 40q-56 0 -91.5 -31.5t-35.5 -77.5v-85h217v-68h-217v-157h325v-84h-484z" horiz-adv-x="598"/>
<glyph glyph-name="yen.osf" d="M96 141v63h166v22l-35 57h-131v64h94l-139 232h111l104 -184l43 -90h2q22 50 43 90l105 184h111l-139 -232h96v-64h-133l-34 -57v-22h167v-63h-167v-141h-98v141h-166z" horiz-adv-x="622"/>
<glyph glyph-name="florin.osf" d="M-2 -37q38 -6 65 -6q17 0 33 4t35 14.5t31.5 34t15.5 58.5l21 236h-83v79h89l10 104q4 48 21 83.5t39 55t50.5 31t50.5 15t45 3.5q17 0 38 -2t34 -4l13 -2v-84q-50 7 -80 7q-106 0 -115 -110l-10 -97h117v-79h-124l-21 -244q-5 -59 -28.5 -99t-57.5 -57.5t-61.5 -24 t-57.5 -6.5l-70 6v84z" horiz-adv-x="525"/>
<glyph glyph-name="Euro.osf" d="M51 198v59h65q-2 10 -2 33q0 19 1 28h-64v60h73q27 93 105.5 152.5t201.5 59.5q49 0 97 -12l-22 -80q-35 10 -77 10q-77 0 -128 -36t-73 -94h252l-13 -60h-255q-2 -14 -2 -24q0 -17 4 -37h243l-12 -59h-212q22 -57 73 -92t126 -35q49 0 88 14l17 -81q-50 -16 -106 -16 q-119 0 -197.5 59t-107.5 151h-75z" horiz-adv-x="601"/>
<glyph glyph-name="zero.numerator" d="M193 329q81 0 81 160q0 159 -81 159q-82 0 -82 -159q0 -160 82 -160zM193 260q-157 0 -157 229q0 228 157 228t157 -228q0 -229 -157 -229z"/>
<glyph glyph-name="one.numerator" d="M72 270v66h93v249l2 26h-2q-4 -9 -17 -22l-36 -34l-45 49l106 103h67v-371h92v-66h-260z"/>
<glyph glyph-name="two.numerator" d="M47 270q-3 18 -3 36q0 47 22 83.5t53 59t62 42t53 42.5t22 50q0 28 -20.5 46.5t-51.5 18.5q-45 0 -85 -48l-49 45q21 31 58.5 51.5t78.5 20.5q62 0 103 -36.5t41 -94.5q0 -40 -20.5 -72t-50 -52.5t-59.5 -38.5t-52 -39.5t-24 -47.5h213v-66h-291z"/>
<glyph glyph-name="three.numerator" d="M182 260q-42 0 -82 17t-65 49l42 53q15 -21 43 -35.5t59 -14.5q34 0 58.5 22t24.5 54q0 33 -26 52t-62 19h-34l-17 38l89 103l25 24v2q-19 -3 -37 -3h-141v67h271v-48l-109 -126q50 -7 83.5 -39.5t33.5 -88.5q0 -59 -44 -102t-112 -43z"/>
<glyph glyph-name="four.numerator" d="M100 443h126v123l3 58h-2q-13 -27 -29 -48l-98 -131v-2zM226 270v107h-207v50l200 280h81v-264h62v-66h-62v-107h-74z"/>
<glyph glyph-name="five.numerator" d="M183 260q-89 0 -143 68l44 51q14 -22 40.5 -36t53.5 -14q37 0 63.5 23.5t26.5 58.5t-26.5 59t-64.5 24q-41 0 -75 -21l-42 16l24 218h231v-67h-170l-7 -62l-5 -32h2q27 10 56 10q66 0 109 -43t43 -103q0 -61 -45 -105.5t-115 -44.5z"/>
<glyph glyph-name="six.numerator" d="M204 329q34 0 53 23.5t19 58.5q0 36 -22 60t-59 24q-31 0 -54.5 -16.5t-23.5 -36.5q0 -42 25 -77.5t62 -35.5zM204 260q-72 0 -118 55.5t-46 147.5q0 61 19.5 117t66 96.5t111.5 40.5q52 0 93 -22l-25 -63q-30 16 -65 16q-46 0 -76 -36t-40 -90h2q31 31 79 31 q66 0 106 -40.5t40 -102.5q0 -67 -41 -108.5t-106 -41.5z"/>
<glyph glyph-name="seven.numerator" d="M60 270l175 323l29 47v2q-19 -2 -45 -2h-171v67h302v-51l-207 -386h-83z"/>
<glyph glyph-name="eight.numerator" d="M193 324q31 0 55.5 18.5t24.5 46.5q0 13 -6 24t-20 21t-24.5 15.5t-33 15.5t-32.5 15q-49 -37 -49 -82q0 -34 25.5 -54t59.5 -20zM231 511q37 41 37 82q0 27 -21.5 42t-50.5 15q-28 0 -47.5 -13.5t-19.5 -40.5q0 -19 14.5 -35t30.5 -24.5t45 -20.5q8 -3 12 -5zM193 259 q-64 0 -111 36t-47 100q0 63 71 113q-49 35 -49 91q0 55 41.5 86t98.5 31t100 -31.5t43 -87.5t-56 -112q64 -38 64 -99q0 -56 -45.5 -91.5t-109.5 -35.5z"/>
<glyph glyph-name="nine.numerator" d="M190 481q31 0 54.5 17t23.5 37q0 42 -25 77.5t-62 35.5q-33 0 -52.5 -23.5t-19.5 -57.5q0 -37 22 -61.5t59 -24.5zM56 282l25 64q30 -16 65 -16q45 0 76 35.5t40 89.5h-2q-31 -31 -79 -31q-66 0 -106 40.5t-40 102.5q0 66 41 108t105 42q72 0 118.5 -55.5t46.5 -147.5 q0 -97 -51.5 -175.5t-145.5 -78.5q-54 0 -93 22z"/>
<glyph glyph-name="zero.denominator" d="M193 59q81 0 81 160q0 159 -81 159q-82 0 -82 -159q0 -160 82 -160zM193 -10q-157 0 -157 229q0 228 157 228t157 -228q0 -229 -157 -229z"/>
<glyph glyph-name="one.denominator" d="M72 0v66h93v249l2 26h-2q-4 -9 -17 -22l-36 -34l-45 49l106 103h67v-371h92v-66h-260z"/>
<glyph glyph-name="two.denominator" d="M47 0q-3 18 -3 36q0 47 22 83.5t53 59t62 42t53 42.5t22 50q0 28 -20.5 46.5t-51.5 18.5q-45 0 -85 -48l-49 45q21 31 58.5 51.5t78.5 20.5q62 0 103 -36.5t41 -94.5q0 -40 -20.5 -72t-50 -52.5t-59.5 -38.5t-52 -39.5t-24 -47.5h213v-66h-291z"/>
<glyph glyph-name="three.denominator" d="M182 -10q-42 0 -82 17t-65 49l42 53q15 -21 43 -35.5t59 -14.5q34 0 58.5 22t24.5 54q0 33 -26 52t-62 19h-34l-17 38l89 103l25 24v2q-19 -3 -37 -3h-141v67h271v-48l-109 -126q50 -7 83.5 -39.5t33.5 -88.5q0 -59 -44 -102t-112 -43z"/>
<glyph glyph-name="four.denominator" d="M100 173h126v123l3 58h-2q-13 -27 -29 -48l-98 -131v-2zM226 0v107h-207v50l200 280h81v-264h62v-66h-62v-107h-74z"/>
<glyph glyph-name="five.denominator" d="M183 -10q-89 0 -143 68l44 51q14 -22 40.5 -36t53.5 -14q37 0 63.5 23.5t26.5 58.5t-26.5 59t-64.5 24q-41 0 -75 -21l-42 16l24 218h231v-67h-170l-7 -62l-5 -32h2q27 10 56 10q66 0 109 -43t43 -103q0 -61 -45 -105.5t-115 -44.5z"/>
<glyph glyph-name="six.denominator" d="M204 59q34 0 53 23.5t19 58.5q0 36 -22 60t-59 24q-31 0 -54.5 -16.5t-23.5 -36.5q0 -42 25 -77.5t62 -35.5zM204 -10q-72 0 -118 55.5t-46 147.5q0 61 19.5 117t66 96.5t111.5 40.5q52 0 93 -22l-25 -63q-30 16 -65 16q-46 0 -76 -36t-40 -90h2q31 31 79 31 q66 0 106 -40.5t40 -102.5q0 -67 -41 -108.5t-106 -41.5z"/>
<glyph glyph-name="seven.denominator" d="M60 0l175 323l29 47v2q-19 -2 -45 -2h-171v67h302v-51l-207 -386h-83z"/>
<glyph glyph-name="eight.denominator" d="M193 55q31 0 55.5 18.5t24.5 46.5q0 13 -6 24t-20 21t-24.5 15.5t-33 15.5t-32.5 15q-49 -37 -49 -82q0 -34 25.5 -54t59.5 -20zM231 242q37 41 37 82q0 27 -21.5 42t-50.5 15q-28 0 -47.5 -13.5t-19.5 -40.5q0 -19 14.5 -35t30.5 -24.5t45 -20.5q8 -3 12 -5zM193 -10 q-64 0 -111 36t-47 100q0 63 71 113q-49 35 -49 91q0 55 41.5 86t98.5 31t100 -31.5t43 -87.5t-56 -112q64 -38 64 -99q0 -56 -45.5 -91.5t-109.5 -35.5z"/>
<glyph glyph-name="nine.denominator" d="M190 211q31 0 54.5 17t23.5 37q0 42 -25 77.5t-62 35.5q-33 0 -52.5 -23.5t-19.5 -57.5q0 -37 22 -61.5t59 -24.5zM56 12l25 64q30 -16 65 -16q45 0 76 35.5t40 89.5h-2q-31 -31 -79 -31q-66 0 -106 40.5t-40 102.5q0 66 41 108t105 42q72 0 118.5 -55.5t46.5 -147.5 q0 -97 -51.5 -175.5t-145.5 -78.5q-54 0 -93 22z"/>
<glyph glyph-name="uni0433.BUL" d="M39 122q0 45 27 79.5t65.5 54t77.5 37t66 39t27 48.5q0 56 -79 56q-67 0 -132 -45l-39 71q79 56 173 56q76 0 123 -33.5t47 -98.5q0 -39 -19.5 -70.5t-48.5 -50t-63.5 -36t-63.5 -30t-48.5 -31t-19.5 -40.5q0 -28 24 -43t62 -15q83 0 147 59l47 -67q-88 -74 -196 -74 q-81 0 -129 36.5t-48 97.5z" horiz-adv-x="446"/>
<glyph glyph-name="uni0434.BUL" d="M143 267q0 -80 39.5 -128.5t107.5 -48.5q59 0 96.5 41t37.5 133q0 170 -143 170q-65 0 -101.5 -44.5t-36.5 -122.5zM123 -92q68 -34 139 -34t115.5 34.5t44.5 106.5v41l3 32h-2q-49 -82 -152 -82t-164.5 73t-61.5 185t59 183t162 71q51 0 94 -19t66 -58h3q-3 6 -3 15v50 h93v-485q0 -60 -21.5 -106t-58.5 -72.5t-81 -39.5t-94 -13q-89 0 -173 42z" horiz-adv-x="594"/>
<glyph glyph-name="uni0436.BUL" d="M17 0l163 260v2l-149 244h103l124 -207h72v407h92v-407h72l125 207h102l-148 -244v-2l163 -260h-109l-132 216h-73v-216h-92v216h-72l-133 -216h-108z" horiz-adv-x="752"/>
<glyph glyph-name="uni0438.BUL" d="M69 182v324h97v-302q0 -60 20 -93t75 -33q75 0 120 56t45 135v237h96v-506h-94v70l4 37h-2q-20 -45 -70 -82t-118 -37q-173 0 -173 194z" horiz-adv-x="597"/>
<glyph glyph-name="uni0439.BUL" d="M294 564q-61 0 -104.5 34.5t-43.5 93.5v15h78v-14q0 -31 21 -48.5t49 -17.5q29 0 50 17.5t21 49.5v13h77v-15q0 -59 -43 -93.5t-105 -34.5zM69 182v324h97v-302q0 -60 20 -93t75 -33q75 0 120 56t45 135v237h96v-506h-94v70l4 37h-2q-20 -45 -70 -82t-118 -37 q-173 0 -173 194z" horiz-adv-x="597"/>
<glyph glyph-name="uni043A.BUL" d="M75 0v706h97v-386h72l137 186h110l-168 -223v-2l187 -281h-113l-151 237h-74v-237h-97z" horiz-adv-x="522"/>
<glyph glyph-name="uni043B.BUL" d="M17 0l189 506h112l187 -506h-102l-123 343l-17 68h-2q-9 -41 -19 -68l-123 -343h-102z" horiz-adv-x="526"/>
<glyph glyph-name="uni043F.BUL" d="M75 0v506h94v-69l-3 -38h2q19 43 68.5 81t123.5 38q173 0 173 -194v-324h-97v302q0 61 -19.5 94t-75.5 33q-73 0 -121 -53.5t-48 -132.5v-243h-97z" horiz-adv-x="603"/>
<glyph glyph-name="uni0442.BUL" d="M75 0v506h94v-69l-3 -38h2q19 47 69 83t107 36q125 0 151 -115h2q22 47 71.5 81t108.5 34q86 0 126.5 -48t40.5 -146v-324h-97v303q0 61 -18.5 94t-70.5 33q-67 0 -108.5 -58.5t-41.5 -135.5v-236h-97v303q0 60 -17.5 93.5t-69.5 33.5q-68 0 -110 -59t-42 -135v-236h-97z " horiz-adv-x="914"/>
<glyph glyph-name="uni0446.BUL" d="M69 182v324h97v-302q0 -60 20 -93t75 -33q75 0 120 56t45 135v237h96v-422h81v-204h-89v120h-86v70l4 37h-2q-20 -45 -70 -82t-118 -37q-173 0 -173 194z" horiz-adv-x="627"/>
<glyph glyph-name="uni0448.BUL" d="M838 505v-506h-94v69l3 38h-2q-19 -47 -69 -83t-107 -36q-125 0 -151 115h-2q-22 -47 -71.5 -81t-108.5 -34q-86 0 -126.5 48t-40.5 146v324h97v-303q0 -61 18.5 -94t70.5 -33q67 0 108.5 58.5t41.5 135.5v236h97v-303q0 -60 17.5 -93.5t69.5 -33.5q68 0 110 59t42 135 v236h97z" horiz-adv-x="913"/>
<glyph glyph-name="uni0449.BUL" d="M838 505v-421h76v-204h-88v119h-82v69l3 38h-2q-19 -47 -69 -83t-107 -36q-125 0 -151 115h-2q-22 -47 -71.5 -81t-108.5 -34q-86 0 -126.5 48t-40.5 146v324h97v-303q0 -61 18.5 -94t70.5 -33q67 0 108.5 58.5t41.5 135.5v236h97v-303q0 -60 17.5 -93.5t69.5 -33.5 q68 0 110 59t42 135v236h97z" horiz-adv-x="939"/>
<glyph glyph-name="uni044A.BUL" d="M230 180q0 -50 28.5 -83t79.5 -33q48 0 78.5 30.5t30.5 84.5q0 62 -28.5 89.5t-74.5 27.5q-53 0 -83.5 -31.5t-30.5 -84.5zM133 184v239h-107v83h204v-138q0 -38 -1 -47h2q20 24 56 39t79 15q79 0 129.5 -51t50.5 -142q0 -86 -56.5 -140t-151.5 -54q-103 0 -154 54.5 t-51 141.5z" horiz-adv-x="578"/>
<glyph glyph-name="uni044C.BUL" d="M166 180q0 -50 28.5 -83t78.5 -33q49 0 80 30.5t31 84.5q0 62 -29 89.5t-76 27.5q-53 0 -83 -31.5t-30 -84.5zM69 184v322h97v-138q0 -29 -2 -47h2q20 23 57 38.5t78 15.5q79 0 130 -50.5t51 -142.5q0 -86 -56.5 -140t-152.5 -54q-102 0 -153 54.5t-51 141.5z" horiz-adv-x="514"/>
<glyph glyph-name="uni044E.BUL" d="M358 254q0 -79 47.5 -130.5t117.5 -51.5q69 0 116.5 51.5t47.5 130.5q0 78 -47.5 129t-116.5 51q-70 0 -117.5 -51t-47.5 -129zM75 0v706h97v-412h92q14 98 86 161t172 63q111 0 187.5 -75t76.5 -189t-76 -190t-187 -76q-100 0 -172.5 63.5t-86.5 162.5h-92v-214h-97z " horiz-adv-x="828"/>
<glyph glyph-name="uni0432.BUL" d="M162 223q0 -74 39.5 -114t100.5 -40q64 0 107 41.5t43 116.5q0 68 -43 100.5t-103 32.5q-56 0 -100 -35.5t-44 -101.5zM161 368h2q21 36 75 63l59 29q53 27 76 52.5t23 59.5q0 33 -27 53t-65 20q-68 0 -105.5 -51t-37.5 -131v-95zM66 242v192q0 124 66 204t182 80 q80 0 129 -40t49 -99q0 -97 -121 -156v-2q43 -4 82 -23.5t68.5 -63.5t29.5 -104q0 -107 -68.5 -174.5t-179.5 -67.5q-115 0 -176 72t-61 182z" horiz-adv-x="593"/>
<glyph glyph-name="uni0437.BUL" d="M47 -87q52 -38 117 -38q67 0 106 38t39 97q0 60 -39 93t-112 33h-58v79h59q54 0 91.5 31t37.5 85q0 49 -30.5 76.5t-79.5 27.5q-68 0 -117 -47l-45 63q74 67 177 67q90 0 142 -49.5t52 -122.5q0 -56 -29 -98t-77 -64v-2q126 -45 126 -176q0 -92 -64 -154t-170 -62 q-100 0 -166 47z" horiz-adv-x="445"/>
<glyph glyph-name="uni0414.ALT" d="M190 86h334l-141 410l-25 97h-2q-15 -61 -26 -97zM13 86h74l218 620h103l219 -620h74v-226h-89v140h-509v-140h-90v226z" horiz-adv-x="715"/>
<glyph glyph-name="uni041B.ALT" d="M14 0l252 706h103l252 -706h-105l-171 496l-26 97h-2q-13 -61 -26 -97l-170 -496h-107z" horiz-adv-x="636"/>
<glyph glyph-name="uni0434.ALT" d="M177 80h245l-101 271l-20 68h-2q-9 -41 -19 -68zM21 80h59l163 426h116l161 -426h62v-200h-89v120h-383v-120h-89v200z" horiz-adv-x="603"/>
<glyph glyph-name="uni043B.ALT" d="M17 0l189 506h112l187 -506h-102l-123 343l-17 68h-2q-9 -41 -19 -68l-123 -343h-102z" horiz-adv-x="526"/>
<glyph glyph-name="uni0409.ALT" d="M497 86h125q60 0 96 32.5t36 89.5t-36.5 90t-97.5 33h-123v-245zM12 0l281 706h204v-289h137q98 0 159.5 -57t61.5 -152q0 -94 -61.5 -151t-155.5 -57h-239v620h-39l-246 -620h-102z" horiz-adv-x="884"/>
<glyph glyph-name="uni0459.ALT" d="M429 70h90q51 0 75.5 23t24.5 63q0 41 -25 65t-76 24h-89v-175zM17 0l213 506h199v-190h101q83 0 133 -39.5t50 -120.5q0 -73 -46 -114.5t-138 -41.5h-196v431h-41l-179 -431h-96z" horiz-adv-x="742"/>
<glyph glyph-name="uni04C5.ALT" d="M14 0l252 706h103l221 -620h119v-57l-71 -169h-73l42 140h-91l-171 496l-26 97h-2q-13 -61 -26 -97l-170 -496h-107z" horiz-adv-x="712"/>
<glyph glyph-name="uni04C6.ALT" d="M403 0l-123 343l-17 68h-2q-9 -41 -19 -68l-123 -343h-102l189 506h112l156 -423h107v-55l-62 -148h-69l36 120h-83z" horiz-adv-x="586"/>
</font>
</defs>
</svg>
