<svg xmlns="http://www.w3.org/2000/svg" width="40" height="35" viewBox="0 0 40 35"><path fill="#57cae9" d="M33.11 35a2.63 2.63 0 0 1-2.17-4.11H18.17c.28.43.44.93.44 1.47A2.63 2.63 0 0 1 15.99 35a2.63 2.63 0 0 1-2.16-4.12 2.97 2.97 0 0 1-2.65-2.38L6.86 6.86l-.75-3.81a2.35 2.35 0 0 0-2.3-1.88H.58A.59.59 0 0 1 0 .58C0 .26.26 0 .58 0h3.23c1.66 0 3.1 1.19 3.44 2.82l.66 3.34h31.51a.59.59 0 0 1 .57.7l-.85 4.45-.01.02-.88 4.63-.01.03-1.74 9.11a.6.6 0 0 1-.57.47H11.78l.54 2.7c.17.84.91 1.46 1.77 1.46h19.02a2.62 2.62 0 0 1 2.62 2.63A2.63 2.63 0 0 1 33.11 35zm0-4.11c-.81 0-1.46.66-1.46 1.47a1.46 1.46 0 1 0 2.92 0c0-.81-.65-1.47-1.46-1.47zm-17.12 0a1.47 1.47 0 0 0 0 2.94c.81 0 1.46-.65 1.46-1.47 0-.81-.65-1.47-1.46-1.47zm17.13-6.49h2.33l.63-3.3h-2.79zm-5.98 0h4.82l.17-3.3H27.2zm-5.99 0h4.83l.07-3.3h-4.98zm-5.99 0h4.83l-.07-3.3h-4.93zm-3.56 0H14l-.17-3.3h-2.9zm21.76-4.46h2.94l.67-3.49h-3.43zm-6.13 0h4.97l.18-3.49H27.3zm-6.18 0h5.02l.07-3.49h-5.16zm-6.12 0h4.96l-.07-3.49h-5.08zm-4.23 0h3.07l-.19-3.49H9.99zm22.9-4.66h3.6l.66-3.49h-4.07zm-6.27 0h5.11l.19-3.49H27.4zm-6.38 0h5.22l.07-3.49h-5.36zm-6.27 0h5.11l-.07-3.49h-5.23zm-4.93 0h3.77l-.19-3.49H9.04zm24.1-4.65h4.24l.63-3.3h-4.7zm-6.42 0h5.26l.17-3.3H27.5zm-6.58 0h5.42l.07-3.3h-5.56zm-6.42 0h5.26l-.07-3.3h-5.36zm-5.62 0h4.46l-.17-3.3H8.14z"/></svg>