<svg xmlns="http://www.w3.org/2000/svg" width="86" height="85" viewBox="0 0 86 85"><path fill="#fff" d="M80.7 20H63a30.25 30.25 0 0 1 6.14 7.47H80.7a3.75 3.75 0 0 0 3.78-3.73A3.76 3.76 0 0 0 80.7 20zM81 29H70a28.47 28.47 0 0 1 2.57 7.47H81a3.85 3.85 0 0 0 3.95-3.73A3.85 3.85 0 0 0 81 29zM80.69 9H52.55A3.79 3.79 0 0 0 49 11.45c4.21.87 8.08 2.63 11.45 5.02h20.24c2.1 0 3.8-1.67 3.8-3.73 0-2.07-1.7-3.74-3.8-3.74zM52.88 7.47h28.67a3.8 3.8 0 0 0 3.88-3.73A3.81 3.81 0 0 0 81.55 0H52.88A3.8 3.8 0 0 0 49 3.74a3.8 3.8 0 0 0 3.88 3.73zM80.2 38h-8.1c.14 1.13.22 2.27.22 3.42 0 1.38-.13 2.73-.32 4.05h8.2a3.84 3.84 0 0 0 3.94-3.74A3.84 3.84 0 0 0 80.2 38zM80.08 49h-8.35A28.8 28.8 0 0 1 69 56.47h11.08a3.8 3.8 0 0 0 3.87-3.73A3.8 3.8 0 0 0 80.08 49zM80.59 58H68.52A30.03 30.03 0 0 1 62 65.47h18.59a3.78 3.78 0 0 0 3.83-3.73A3.78 3.78 0 0 0 80.59 58zM3.94 45.47h8.1a29.61 29.61 0 0 1-.22-3.42c0-1.38.13-2.72.32-4.05h-8.2A3.84 3.84 0 0 0 0 41.74a3.84 3.84 0 0 0 3.94 3.73zM3.95 55.47h11A28 28 0 0 1 12.38 48H3.95A3.85 3.85 0 0 0 0 51.74a3.85 3.85 0 0 0 3.95 3.73zM3.87 35.47h8.35A28.8 28.8 0 0 1 14.95 28H3.87A3.8 3.8 0 0 0 0 31.74a3.8 3.8 0 0 0 3.87 3.73zM3.82 26.47H15.9A30.2 30.2 0 0 1 22.42 19H3.82A3.78 3.78 0 0 0 0 22.73a3.78 3.78 0 0 0 3.82 3.74zM3.78 64.47h17.7A29.8 29.8 0 0 1 15.35 57H3.78A3.76 3.76 0 0 0 0 60.74a3.75 3.75 0 0 0 3.78 3.73zM3.8 74.47h28.14a3.77 3.77 0 0 0 3.55-2.44A30.6 30.6 0 0 1 24.04 67H3.8C1.7 67 0 68.67 0 70.74c0 2.06 1.7 3.73 3.8 3.73zM32.55 77H3.88A3.81 3.81 0 0 0 0 80.74a3.8 3.8 0 0 0 3.88 3.73h28.67a3.8 3.8 0 0 0 3.88-3.74A3.8 3.8 0 0 0 32.55 77zM41.62 15A26.65 26.65 0 0 0 15 41.62a26.65 26.65 0 0 0 26.62 26.62 26.65 26.65 0 0 0 26.62-26.62A26.65 26.65 0 0 0 41.62 15zm0 45.64A19.04 19.04 0 0 1 22.6 41.62 19.05 19.05 0 0 1 41.62 22.6a19.04 19.04 0 0 1 19.02 19.02 19.04 19.04 0 0 1-19.02 19.02z"/><path fill="#fff" d="M43.93 39.28v-6.66c3.86.08 3.83 3.82 6.1 3.82 1.19 0 2.2-.8 2.2-2.17 0-3.43-5.58-5.14-8.3-5.21v-1.87c0-.6-.46-1.19-1.06-1.19-.59 0-1.04.59-1.04 1.19v1.87c-4.36.13-8.31 2.59-8.31 7.34 0 3.89 3.14 6.17 8.31 7.11v7.32c-5.8-.25-2.76-5.08-6.67-5.08-1.32 0-2.16.81-2.16 2.21 0 2.76 2.93 6.3 8.83 6.44v2.17c0 .59.45 1.19 1.04 1.19.6 0 1.06-.6 1.06-1.19V54.4c5.2-.31 8.69-2.7 8.69-7.39 0-5.39-4.08-6.75-8.69-7.73zm-2.1-.39c-2.61-.53-3.91-1.54-3.91-3.29 0-1.5 1.53-2.91 3.91-2.98zm2.1 11.93v-6.93c1.88.42 4.29 1.12 4.29 3.5 0 2.31-2.2 3.3-4.29 3.43z"/></svg>