<svg xmlns="http://www.w3.org/2000/svg" width="55" height="60" viewBox="0 0 55 60"><defs><radialGradient id="a" cx="1428" cy="1543.94" r="20.02" gradientUnits="userSpaceOnUse"><stop offset="0" stop-color="#6b93a1" stop-opacity=".2"/><stop offset="1" stop-color="#3ea8ac" stop-opacity="0"/></radialGradient><radialGradient id="b" cx="1452.5" cy="1506.64" r="2.38" gradientUnits="userSpaceOnUse"><stop offset="0" stop-color="#6b93a1" stop-opacity=".2"/><stop offset="1" stop-color="#3ea8ac" stop-opacity="0"/></radialGradient><radialGradient id="c" cx="1457" cy="1514.69" r="2.04" gradientUnits="userSpaceOnUse"><stop offset="0" stop-color="#6b93a1" stop-opacity=".2"/><stop offset="1" stop-color="#3ea8ac" stop-opacity="0"/></radialGradient><radialGradient id="d" cx="1445.5" cy="1498.69" r="2.04" gradientUnits="userSpaceOnUse"><stop offset="0" stop-color="#6b93a1" stop-opacity=".2"/><stop offset="1" stop-color="#3ea8ac" stop-opacity="0"/></radialGradient><radialGradient id="e" cx="1453.5" cy="1535.64" r="2.38" gradientUnits="userSpaceOnUse"><stop offset="0" stop-color="#6b93a1" stop-opacity=".2"/><stop offset="1" stop-color="#3ea8ac" stop-opacity="0"/></radialGradient><radialGradient id="f" cx="1457.5" cy="1525.69" r="2.04" gradientUnits="userSpaceOnUse"><stop offset="0" stop-color="#6b93a1" stop-opacity=".2"/><stop offset="1" stop-color="#3ea8ac" stop-opacity="0"/></radialGradient></defs><path fill="#43b9da" d="M17.81 35.05l-1.48 1.45c-.21.21-.33.49-.33.79v.62c0 .6.48 1.09 1.08 1.09h8.84c.6 0 1.08-.49 1.08-1.09v-.81c0-.6-.48-1.09-1.08-1.09h-4.88l.13-.12c3.19-3.12 5.45-5.57 5.45-8.76 0-2.55-1.63-5.13-5.3-5.13-1.59 0-3.16.52-4.4 1.46a1.1 1.1 0 0 0-.34 1.33l.27.6a1.07 1.07 0 0 0 1.6.45c.8-.57 1.62-.85 2.45-.85 1.61 0 2.42.81 2.42 2.39-.02 2.14-1.78 4.07-5.51 7.67z"/><path fill="#43b9da" d="M33.81 22h-.4c-.34 0-.66.17-.85.45l-6.37 9.14a1.1 1.1 0 0 0-.19.6v.73c0 .58.47 1.05 1.04 1.05h5.82v2.99c0 .57.46 1.04 1.04 1.04h.99c.58 0 1.04-.47 1.04-1.04v-2.99h1.03c.57 0 1.04-.47 1.04-1.05v-.67c0-.58-.47-1.05-1.04-1.05h-1.03v-8.16c0-.57-.46-1.04-1.04-1.04h-1.08zm-.95 9.2h-3.14c.8-1.16 2.16-3.15 3.14-4.63z"/><path fill="#3b4047" d="M27.31 55.32C14.79 55.32 4.6 44.97 4.6 32.24c0-12.05 9.14-21.97 20.74-22.99v3.68c0 .26.14.5.37.63a.69.69 0 0 0 .71-.04l8.22-5.61a.72.72 0 0 0 0-1.18l-8.22-5.61a.67.67 0 0 0-.71-.04.72.72 0 0 0-.37.63v2.85C11.2 5.59 0 17.61 0 32.24 0 47.55 12.25 60 27.31 60c6.97 0 13.61-2.67 18.69-7.52l-3.15-3.41a22.42 22.42 0 0 1-15.54 6.25z"/><path fill="url(#a)" d="M1432.31 1541.32c-12.52 0-22.71-10.35-22.71-23.08 0-12.05 9.14-21.97 20.74-22.99v3.68c0 .26.14.5.37.63a.69.69 0 0 0 .71-.04l8.22-5.61a.72.72 0 0 0 0-1.18l-8.22-5.61a.67.67 0 0 0-.71-.04.72.72 0 0 0-.37.63v2.85c-14.14 1.03-25.34 13.05-25.34 27.68 0 15.31 12.25 27.76 27.31 27.76 6.97 0 13.61-2.67 18.69-7.52l-3.15-3.41a22.42 22.42 0 0 1-15.54 6.25z" transform="translate(-1405 -1486)"/><path fill="#3b4047" d="M51 18.5a28.82 28.82 0 0 0-3.44-4.5L44 17.26A23.45 23.45 0 0 1 46.86 21z"/><path fill="url(#b)" d="M1456 1504.5a28.82 28.82 0 0 0-3.44-4.5l-3.56 3.26a23.45 23.45 0 0 1 2.86 3.74z" transform="translate(-1405 -1486)"/><path fill="#3b4047" d="M50.12 29l4.88-.63A26.25 26.25 0 0 0 53.65 23L49 24.54c.53 1.44.9 2.94 1.12 4.46z"/><path fill="url(#c)" d="M1455.12 1515l4.88-.63a26.25 26.25 0 0 0-1.35-5.37l-4.65 1.54c.53 1.44.9 2.94 1.12 4.46z" transform="translate(-1405 -1486)"/><path fill="#3b4047" d="M44 9.48A30.92 30.92 0 0 0 38.97 7L37 10.94c1.46.56 2.87 1.25 4.18 2.06z"/><path fill="url(#d)" d="M1449 1495.48a30.92 30.92 0 0 0-5.03-2.48l-1.97 3.94c1.46.56 2.87 1.25 4.18 2.06z" transform="translate(-1405 -1486)"/><path fill="#3b4047" d="M45 46.93L48.79 50A29.6 29.6 0 0 0 52 45.27L47.67 43A23.66 23.66 0 0 1 45 46.93z"/><path fill="url(#e)" d="M1450 1532.93l3.79 3.07a29.6 29.6 0 0 0 3.21-4.73l-4.33-2.27a23.66 23.66 0 0 1-2.67 3.93z" transform="translate(-1405 -1486)"/><path fill="#3b4047" d="M50.73 34c-.1 1.58-.35 3.16-.73 4.68L54.12 40c.46-1.83.75-3.72.88-5.63z"/><path fill="url(#f)" d="M1455.73 1520c-.1 1.58-.35 3.16-.73 4.68l4.12 1.32c.46-1.83.75-3.72.88-5.63z" transform="translate(-1405 -1486)"/></svg>