<svg xmlns="http://www.w3.org/2000/svg" width="57" height="62" viewBox="0 0 57 62"><defs><radialGradient id="a" cx="757.5" cy="1542.79" r="21.04" gradientUnits="userSpaceOnUse"><stop offset="0" stop-color="#6b93a1" stop-opacity=".2"/><stop offset="1" stop-color="#3ea8ac" stop-opacity="0"/></radialGradient></defs><path fill="#43b9da" d="M29 26l26-13 1 33-28 13z"/><path fill="#3b4047" d="M56.97 14.62a1.53 1.53 0 0 0-1.21-1.53L29.14.16a1.57 1.57 0 0 0-1.37 0L.89 13.2A1.6 1.6 0 0 0 0 14.56v32.81c0 .6.34 1.15.89 1.41l26.88 13.05.02.01.12.06.05.01.12.04.04.01c.04.01.09.01.13.03h.04l.17.01.17-.01h.04l.13-.03.04-.01.12-.04.05-.01.12-.06.02-.01 26.96-13.09c.54-.26.89-.81.89-1.41V14.66c-.03-.02-.03-.03-.03-.04zM28.45 3.31l23.31 11.32-8.59 4.17L19.86 7.49zm0 22.64L5.14 14.63l11.13-5.4 23.31 11.31zM3.14 17.16l23.74 11.52V57.9L3.14 46.38zM30.02 57.9V28.68l11.14-5.41v7.64c0 .86.71 1.57 1.57 1.57.86 0 1.57-.71 1.57-1.57v-9.17l9.54-4.64v29.22z"/><path fill="url(#a)" d="M785.97 1498.62a1.53 1.53 0 0 0-1.21-1.53l-26.62-12.93a1.57 1.57 0 0 0-1.37 0l-26.88 13.04a1.6 1.6 0 0 0-.89 1.36v32.81c0 .6.34 1.15.89 1.41l26.88 13.05.02.01.12.06.05.01.12.04.04.01c.04.01.09.01.13.03h.04l.17.01.17-.01h.04l.13-.03.04-.01.12-.04.05-.01.12-.06.02-.01 26.96-13.09c.54-.26.89-.81.89-1.41v-32.67c-.03-.02-.03-.03-.03-.04zm-28.52-11.31l23.31 11.32-8.59 4.17-23.31-11.31zm0 22.64l-23.31-11.32 11.13-5.4 23.31 11.31zm-25.31-8.79l23.74 11.52v29.22l-23.74-11.52zm26.88 40.74v-29.22l11.14-5.41v7.64c0 .86.71 1.57 1.57 1.57.86 0 1.57-.71 1.57-1.57v-9.17l9.54-4.64v29.22z" transform="translate(-729 -1484)"/></svg>