<svg xmlns="http://www.w3.org/2000/svg" width="57" height="56" viewBox="0 0 57 56"><defs><radialGradient id="a" cx="982.5" cy="1522.24" r="11.54" gradientUnits="userSpaceOnUse"><stop offset="0" stop-color="#6b93a1" stop-opacity=".2"/><stop offset="1" stop-color="#3ea8ac" stop-opacity="0"/></radialGradient><radialGradient id="b" cx="982.5" cy="1544.91" r="7.13" gradientUnits="userSpaceOnUse"><stop offset="0" stop-color="#6b93a1" stop-opacity=".2"/><stop offset="1" stop-color="#3ea8ac" stop-opacity="0"/></radialGradient></defs><path fill="#43b9da" d="M13 36h7l9 7 7-6 3-1s5.08 1.2 7 2 5 3 5 3l3 6 2 8H2l2-11z"/><path fill="#3b4047" d="M37.78 2.64A8.13 8.13 0 0 0 31.77 0h-6.54c-2.3 0-4.43.94-6.01 2.64a8.37 8.37 0 0 0-2.2 6.26l.29 4.52.68 10.57a10.66 10.66 0 0 0 5.43 8.68 10.4 10.4 0 0 0 10.16 0 10.66 10.66 0 0 0 5.43-8.68l.78-12.07.19-3.02a8.37 8.37 0 0 0-2.2-6.26zM19.25 8.75c-.1-1.7.47-3.31 1.61-4.55a5.88 5.88 0 0 1 4.37-1.92h6.54l.43.01-1.73 4.7a8.56 8.56 0 0 1-2.42 2.37c-1.55 1.06-4.26 2.36-8.58 2.77zm17.53 15.1a8.43 8.43 0 0 1-4.28 6.83 8.2 8.2 0 0 1-8 0 8.43 8.43 0 0 1-4.28-6.83l-.6-9.45c6.31-.59 9.75-2.93 11.45-4.61.45.53 1.1 1.01 1.94 1.45.9.48 2.41.98 4.48 1.49zm.97-15.1l-.11 1.67c-2.08-.53-3.1-.94-3.6-1.2-1.23-.64-1.5-1.17-1.51-1.33v-.01-.01l1.85-4.99a6.12 6.12 0 0 1 3.37 5.87z"/><path fill="url(#a)" d="M991.78 1492.64a8.13 8.13 0 0 0-6.01-2.64h-6.54c-2.3 0-4.43.94-6.01 2.64a8.37 8.37 0 0 0-2.2 6.26l.29 4.52.68 10.57a10.66 10.66 0 0 0 5.43 8.68 10.4 10.4 0 0 0 10.16 0 10.66 10.66 0 0 0 5.43-8.68l.78-12.07.19-3.02a8.37 8.37 0 0 0-2.2-6.26zm-18.53 6.11c-.1-1.7.47-3.31 1.61-4.55a5.88 5.88 0 0 1 4.37-1.92h6.54l.43.01-1.73 4.7a8.56 8.56 0 0 1-2.42 2.37c-1.55 1.06-4.26 2.36-8.58 2.77zm17.53 15.1a8.43 8.43 0 0 1-4.28 6.83 8.2 8.2 0 0 1-8 0 8.43 8.43 0 0 1-4.28-6.83l-.6-9.45c6.31-.59 9.75-2.93 11.45-4.61.45.53 1.1 1.01 1.94 1.45.9.48 2.41.98 4.48 1.49zm.97-15.1l-.11 1.67c-2.08-.53-3.1-.94-3.6-1.2-1.23-.64-1.5-1.17-1.51-1.33v-.01-.01l1.85-4.99a6.12 6.12 0 0 1 3.37 5.87z" transform="translate(-954 -1490)"/><path fill="#3b4047" d="M56.98 54.68l-1.1-5.99A16.81 16.81 0 0 0 39.3 35h-3.31c-.3 0-.59.12-.8.33l-6.69 6.61-6.69-6.61c-.21-.21-.5-.33-.8-.33H17.7A16.81 16.81 0 0 0 1.12 48.69l-1.1 5.99c-.06.33.03.66.24.92.22.25.54.4.88.4h54.72c.34 0 .66-.15.88-.4.21-.26.3-.59.24-.92zM29.3 44.32l7.16-7.08h2.84l.44.01-5.62 5.56-5.62 5.55-1.64-1.62zm-11.6-7.08h2.84l6.35 6.29-1.64 1.62-2.37-2.34-5.62-5.56.44-.01zM2.5 53.76l.85-4.67a14.58 14.58 0 0 1 11.06-11.48L27.7 50.74a1.13 1.13 0 0 0 1.6 0l13.29-13.13a14.58 14.58 0 0 1 11.06 11.48l.85 4.67z"/><path fill="url(#b)" d="M1010.98 1544.68l-1.1-5.99A16.81 16.81 0 0 0 993.3 1525h-3.31c-.3 0-.59.12-.8.33l-6.69 6.61-6.69-6.61c-.21-.21-.5-.33-.8-.33h-3.31a16.81 16.81 0 0 0-16.58 13.69l-1.1 5.99c-.06.33.03.66.24.92.22.25.54.4.88.4h54.72c.34 0 .66-.15.88-.4.21-.26.3-.59.24-.92zm-27.68-10.36l7.16-7.08h2.84l.44.01-5.62 5.56-5.62 5.55-1.64-1.62zm-11.6-7.08h2.84l6.35 6.29-1.64 1.62-2.37-2.34-5.62-5.56.44-.01zm-15.2 16.52l.85-4.67a14.58 14.58 0 0 1 11.06-11.48l13.29 13.13a1.13 1.13 0 0 0 1.6 0l13.29-13.13a14.58 14.58 0 0 1 11.06 11.48l.85 4.67z" transform="translate(-954 -1490)"/></svg>