<svg xmlns="http://www.w3.org/2000/svg" width="45" height="43" viewBox="0 0 45 43"><defs><radialGradient id="a" cx="1306.2" cy="966.27" r="42.89" gradientUnits="userSpaceOnUse"><stop offset="0" stop-color="#488baa" stop-opacity=".5"/><stop offset="1" stop-color="#88b1b7" stop-opacity="0"/></radialGradient></defs><path fill="#43b9da" d="M22 7l6 9 9 1-6 10 1 12-10-6z"/><path fill="#3b4047" d="M45 16.3l-16.18-1.39L22.5 0l-6.32 14.91L0 16.3l12.27 10.63L8.6 42.75l13.9-8.39 13.91 8.39-3.68-15.82zM22.5 30.14V9.21l3.85 9.08 9.85.85-7.47 6.48 2.24 9.63z"/><path fill="url(#a)" d="M1320 943.3l-16.18-1.39-6.32-14.91-6.32 14.91-16.18 1.39 12.27 10.63-3.67 15.82 13.9-8.39 13.91 8.39-3.68-15.82zm-22.5 13.84v-20.93l3.85 9.08 9.85.85-7.47 6.48 2.24 9.63z" transform="translate(-1275 -927)"/></svg>