<svg xmlns="http://www.w3.org/2000/svg" width="45" height="34" viewBox="0 0 45 34"><defs><radialGradient id="a" cx="410.2" cy="876.05" r="33.91" gradientUnits="userSpaceOnUse"><stop offset="0" stop-color="#488baa" stop-opacity=".5"/><stop offset="1" stop-color="#88b1b7" stop-opacity="0"/></radialGradient></defs><path fill="#43b9da" d="M1 28V3h42v25z"/><path fill="#3b4047" d="M41.25 0H3.75A3.75 3.75 0 0 0 0 3.75v22.5A3.75 3.75 0 0 0 3.75 30h15.94v1.88h-5.63a.93.93 0 0 0-.94.93c0 .52.42.94.94.94h16.88c.52 0 .94-.42.94-.94a.93.93 0 0 0-.94-.93h-5.63V30h15.94A3.75 3.75 0 0 0 45 26.25V3.75A3.75 3.75 0 0 0 41.25 0zM3.75 26.25V3.75h37.5v22.5z"/><path fill="url(#a)" d="M420.25 845h-37.5a3.75 3.75 0 0 0-3.75 3.75v22.5a3.75 3.75 0 0 0 3.75 3.75h15.94v1.88h-5.63a.93.93 0 0 0-.94.93c0 .52.42.94.94.94h16.88c.52 0 .94-.42.94-.94a.93.93 0 0 0-.94-.93h-5.63V875h15.94a3.75 3.75 0 0 0 3.75-3.75v-22.5a3.75 3.75 0 0 0-3.75-3.75zm-37.5 26.25v-22.5h37.5v22.5z" transform="translate(-379 -845)"/></svg>