<svg xmlns="http://www.w3.org/2000/svg" width="25" height="46" viewBox="0 0 25 46"><defs><radialGradient id="a" cx="1298.64" cy="782" r="22.94" gradientUnits="userSpaceOnUse"><stop offset="0" stop-color="#488baa" stop-opacity=".5"/><stop offset="1" stop-color="#88b1b7" stop-opacity="0"/></radialGradient><radialGradient id="b" cx="1296.09" cy="757.31" r="7.98" gradientUnits="userSpaceOnUse"><stop offset="0" stop-color="#488baa" stop-opacity=".5"/><stop offset="1" stop-color="#88b1b7" stop-opacity="0"/></radialGradient><radialGradient id="c" cx="1296.09" cy="794.31" r="7.98" gradientUnits="userSpaceOnUse"><stop offset="0" stop-color="#488baa" stop-opacity=".5"/><stop offset="1" stop-color="#88b1b7" stop-opacity="0"/></radialGradient></defs><path fill="#43b9da" d="M2 32V14h19v18z"/><path fill="#3b4047" d="M21.67 19.16V11H0v22.98h21.67v-8.17h2.61v-6.65zm-7 4.38l-2.66 5.53-2.48-6.1-.59 1.23h-4.9v-2.94H7.1l2.65-5.53 2.48 6.1.59-1.23h4.9v2.94z"/><path fill="url(#a)" d="M1303.67 769.16V761H1282v22.98h21.67v-8.17h2.61v-6.65zm-7 4.38l-2.66 5.53-2.48-6.1-.59 1.23h-4.9v-2.94h3.06l2.65-5.53 2.48 6.1.59-1.23h4.9v2.94z" transform="translate(-1282 -750)"/><path fill="#3b4047" d="M17.44 0H4.15L3 8.08h15.59z"/><path fill="url(#b)" d="M1299.44 750h-13.29l-1.15 8.08h15.59z" transform="translate(-1282 -750)"/><path fill="#3b4047" d="M3 37l1.15 8.08h13.29L18.59 37z"/><path fill="url(#c)" d="M1285 787l1.15 8.08h13.29l1.15-8.08z" transform="translate(-1282 -750)"/></svg>