<svg xmlns="http://www.w3.org/2000/svg" width="46" height="30" viewBox="0 0 46 30"><defs><radialGradient id="a" cx="707.2" cy="874.65" r="3.99" gradientUnits="userSpaceOnUse"><stop offset="0" stop-color="#488baa" stop-opacity=".5"/><stop offset="1" stop-color="#88b1b7" stop-opacity="0"/></radialGradient><radialGradient id="b" cx="704.65" cy="867" r="22.94" gradientUnits="userSpaceOnUse"><stop offset="0" stop-color="#488baa" stop-opacity=".5"/><stop offset="1" stop-color="#88b1b7" stop-opacity="0"/></radialGradient></defs><path fill="#43b9da" d="M6 21V2h35v19z"/><path fill="#3b4047" d="M45.66 25.08a.21.21 0 0 0-.17-.08H1.23a.21.21 0 0 0-.17.08.21.21 0 0 0-.06.18c.01.04.68 4.14 5.86 4.14h33c5.18 0 5.85-4.1 5.86-4.14 0-.06-.01-.13-.06-.18zm-18.97 2.89h-6.66v-1.54h6.66z"/><path fill="url(#a)" d="M719.66 871.08a.21.21 0 0 0-.17-.08h-44.26a.21.21 0 0 0-.17.08.21.21 0 0 0-.06.18c.01.04.68 4.14 5.86 4.14h33c5.18 0 5.85-4.1 5.86-4.14 0-.06-.01-.13-.06-.18zm-18.97 2.89h-6.66v-1.54h6.66z" transform="translate(-674 -846)"/><path fill="#3b4047" d="M5.92 23.38h35.07c.5 0 .91-.42.91-.92V.92a.92.92 0 0 0-.91-.92H5.92A.92.92 0 0 0 5 .92v21.54c0 .5.41.92.92.92zM8.21 3.21h30.48v16.95H8.21z"/><path fill="url(#b)" d="M679.92 869.38h35.07c.5 0 .91-.42.91-.92v-21.54a.92.92 0 0 0-.91-.92h-35.07a.92.92 0 0 0-.92.92v21.54c0 .5.41.92.92.92zm2.29-20.17h30.48v16.95h-30.48z" transform="translate(-674 -846)"/></svg>