<svg xmlns="http://www.w3.org/2000/svg" width="20" height="20" viewBox="0 0 20 20"><path fill="#7d3daf" d="M19.07 4.63v-.02A6.39 6.39 0 0 0 14.76.44l-.02-.01a23.9 23.9 0 0 0-9 0l-.02.01a6.37 6.37 0 0 0-4.3 4.17l-.01.02a17.94 17.94 0 0 0 0 7.65l.01.03a6.46 6.46 0 0 0 4.06 4.11v2.03a.81.81 0 0 0 1.4.56l2.03-2.13 1.33.03c1.51 0 3.01-.14 4.5-.43h.02a6.43 6.43 0 0 0 4.31-4.17v-.03c.55-2.54.55-5.11 0-7.65zm-1.61 7.29a4.86 4.86 0 0 1-3.04 2.93c-1.59.3-3.19.43-4.79.39a.11.11 0 0 0-.08.03l-1.49 1.54-1.58 1.64a.19.19 0 0 1-.32-.13v-3.36c0-.05-.04-.1-.1-.11a4.82 4.82 0 0 1-3.03-2.93c-.5-2.3-.5-4.63 0-6.92a4.8 4.8 0 0 1 3.03-2.93c2.78-.53 5.59-.53 8.36 0A4.83 4.83 0 0 1 17.46 5c.49 2.29.49 4.62 0 6.92z"/><path fill="#7d3daf" d="M12.45 13.26l-.53-.16a12.05 12.05 0 0 1-4.53-3.06c-.71-.8-1.26-1.71-1.73-2.67-.22-.46-.41-.93-.6-1.4-.18-.43.08-.87.35-1.2.25-.3.58-.53.93-.7.28-.14.55-.06.75.17.44.51.84 1.05 1.16 1.64.2.36.15.81-.22 1.06l-.24.19a.72.72 0 0 0-.19.2.56.56 0 0 0-.04.49 4.34 4.34 0 0 0 2.43 2.7c.19.09.39.18.62.16.38-.05.5-.47.77-.69a.72.72 0 0 1 .87-.04c.28.18.55.37.82.57.27.19.53.38.78.59.23.21.31.49.18.77-.24.52-.59.95-1.1 1.23-.15.07-.32.1-.48.15-.19-.06.16-.05 0 0zM10.4 3a4.55 4.55 0 0 1 4.47 3.79c.07.38.09.77.12 1.15.01.17-.08.32-.25.32-.18.01-.26-.15-.27-.31-.03-.32-.04-.64-.09-.96a4.02 4.02 0 0 0-3.21-3.37c-.25-.04-.51-.05-.76-.08-.16-.02-.37-.03-.41-.23-.03-.17.11-.3.27-.31h.13c2.24.06-.04 0 0 0z"/><path fill="#7d3daf" d="M13.39 8.24c0 .03 0 .09-.02.16-.06.22-.4.25-.48.02a.78.78 0 0 1-.03-.22 2.56 2.56 0 0 0-2.24-2.63l-.39-.05c-.15-.03-.24-.13-.23-.28.01-.14.11-.25.27-.24.51.03 1.01.14 1.46.39a2.98 2.98 0 0 1 1.62 2.32l.02.14.02.39c0 .03-.01-.16 0 0z"/><path fill="#7d3daf" d="M11.66 7.95c-.19 0-.29-.1-.31-.28-.01-.12-.02-.24-.05-.36a.98.98 0 0 0-.67-.73c-.14-.04-.28-.03-.42-.06-.15-.04-.23-.16-.21-.3a.28.28 0 0 1 .29-.22c.86.06 1.48.52 1.57 1.55a.5.5 0 0 1 0 .21c-.03.12-.11.18-.2.19-.19 0 .09-.01 0 0z"/></svg>