<svg xmlns="http://www.w3.org/2000/svg" width="18" height="18" viewBox="0 0 18 18"><path fill="#19d33e" d="M0 17.95l1.26-4.46A8.97 8.97 0 0 1 8.98 0a8.97 8.97 0 0 1 0 17.91c-1.54 0-3.05-.4-4.38-1.15zm4.83-2.81l.28.16a7.42 7.42 0 0 0 11.3-6.35 7.43 7.43 0 1 0-13.69 4.01l.18.29-.72 2.57z"/><path fill="#19d33e" d="M7.01 4.03L6.43 4a.7.7 0 0 0-.5.17 2.7 2.7 0 0 0-.87 1.34c-.21.91.11 2.04.94 3.16a9.38 9.38 0 0 0 5.08 3.7c.88.25 1.56.08 2.1-.26.42-.27.71-.7.81-1.19l.1-.44a.3.3 0 0 0-.17-.33l-1.97-.91c-.12-.06-.27-.02-.36.09l-.77 1a.22.22 0 0 1-.25.08 6.06 6.06 0 0 1-3.27-2.8.23.23 0 0 1 .03-.25l.74-.85a.32.32 0 0 0 .05-.31l-.85-1.98a.3.3 0 0 0-.26-.19z"/></svg>