<svg xmlns="http://www.w3.org/2000/svg" width="45" height="28" viewBox="0 0 45 28"><defs><radialGradient id="a" cx="411.2" cy="960.57" r="27.93" gradientUnits="userSpaceOnUse"><stop offset="0" stop-color="#488baa" stop-opacity=".5"/><stop offset="1" stop-color="#88b1b7" stop-opacity="0"/></radialGradient></defs><path fill="#43b9da" d="M2 23V2h41v21z"/><path fill="#3b4047" d="M42.18 0H2.81A2.81 2.81 0 0 0 0 2.81v19.62a2.81 2.81 0 0 0 2.81 2.82H5v1.36c0 .57.47 1.04 1.05 1.04h5.03c.58 0 1.04-.47 1.04-1.04v-1.36h20.75v1.36c0 .57.47 1.04 1.05 1.04h5.03c.58 0 1.05-.47 1.05-1.04v-1.36h2.18a2.8 2.8 0 0 0 2.81-2.82V2.81A2.8 2.8 0 0 0 42.18 0zM28.7 20.31H6.3c-.58 0-1.05-.47-1.05-1.05V5.98c0-.57.47-1.04 1.05-1.04h22.4c.58 0 1.05.47 1.05 1.04v13.28c0 .58-.47 1.05-1.05 1.05zm9.11 0a1.69 1.69 0 1 1 0-3.38 1.69 1.69 0 0 1 0 3.38zm0-4.78a2 2 0 1 1 0-4 2 2 0 0 1 0 4zm2.76-5.47h-5.53c-.58 0-1.04-.47-1.04-1.05V5.98c0-.57.46-1.04 1.04-1.04h5.53c.58 0 1.05.47 1.05 1.04v3.03c0 .58-.47 1.05-1.05 1.05z"/><path fill="url(#a)" d="M422.18 935h-39.37a2.81 2.81 0 0 0-2.81 2.81v19.62a2.81 2.81 0 0 0 2.81 2.82H385v1.36c0 .57.47 1.04 1.05 1.04h5.03c.58 0 1.04-.47 1.04-1.04v-1.36h20.75v1.36c0 .57.47 1.04 1.05 1.04h5.03c.58 0 1.05-.47 1.05-1.04v-1.36h2.18a2.8 2.8 0 0 0 2.81-2.82v-19.62a2.8 2.8 0 0 0-2.81-2.81zm-13.48 20.31h-22.4c-.58 0-1.05-.47-1.05-1.05v-13.28c0-.57.47-1.04 1.05-1.04h22.4c.58 0 1.05.47 1.05 1.04v13.28c0 .58-.47 1.05-1.05 1.05zm9.11 0a1.69 1.69 0 1 1 0-3.38 1.69 1.69 0 0 1 0 3.38zm0-4.78a2 2 0 1 1 0-4 2 2 0 0 1 0 4zm2.76-5.47h-5.53c-.58 0-1.04-.47-1.04-1.05v-3.03c0-.57.46-1.04 1.04-1.04h5.53c.58 0 1.05.47 1.05 1.04v3.03c0 .58-.47 1.05-1.05 1.05z" transform="translate(-380 -935)"/></svg>