<svg xmlns="http://www.w3.org/2000/svg" width="46" height="45" viewBox="0 0 46 45"><defs><radialGradient id="a" cx="713.25" cy="773.09" r="21.94" gradientUnits="userSpaceOnUse"><stop offset="0" stop-color="#488baa" stop-opacity=".5"/><stop offset="1" stop-color="#88b1b7" stop-opacity="0"/></radialGradient><radialGradient id="b" cx="702.25" cy="785.09" r="21.94" gradientUnits="userSpaceOnUse"><stop offset="0" stop-color="#488baa" stop-opacity=".5"/><stop offset="1" stop-color="#88b1b7" stop-opacity="0"/></radialGradient><radialGradient id="c" cx="690.56" cy="796.18" r="20.95" gradientUnits="userSpaceOnUse"><stop offset="0" stop-color="#488baa" stop-opacity=".5"/><stop offset="1" stop-color="#88b1b7" stop-opacity="0"/></radialGradient></defs><path fill="#43b9da" d="M18 18l4-2 5 3 3 8-6 4-7-3-2-6z"/><path fill="#3b4047" d="M37.08.5A1.7 1.7 0 0 0 34.7.48L24 11.19l10.49 10.49 10.71-10.7c.66-.66.65-1.71-.01-2.36zm-1.63 11.8a1.45 1.45 0 1 1 0-2.06c.58.57.58 1.49 0 2.06zm3.9-3.89a1.45 1.45 0 1 1-2.06-2.05 1.45 1.45 0 0 1 2.06 2.05z"/><path fill="url(#a)" d="M711.08 753.5a1.7 1.7 0 0 0-2.38-.02L698 764.19l10.49 10.49 10.71-10.7c.66-.66.65-1.71-.01-2.36zm-1.63 11.8a1.45 1.45 0 1 1 0-2.06c.58.57.58 1.49 0 2.06zm3.9-3.89a1.45 1.45 0 1 1-2.06-2.05 1.45 1.45 0 0 1 2.06 2.05z" transform="translate(-674 -753)"/><path fill="#3b4047" d="M23.09 12.42a1.36 1.36 0 0 0-1.95-.01l-.02.02-7.35 7.36c-.63.62-1.13 1.72-.43 3.7.16.32.3.71.52 1.1a20.3 20.3 0 0 0 3.54 4.58 20.63 20.63 0 0 0 4.59 3.55 6.61 6.61 0 0 0 2.18.81c1.31.23 2.14-.2 2.6-.62l7.46-7.42a1.4 1.4 0 0 0-.04-1.97zm1.54 17.49c-.72-.24-2.44-1.12-4.62-3.3-2.16-2.17-3.11-3.93-3.31-4.6l5.41-5.41 2.62 2.63-2.97 2.97a1.83 1.83 0 0 0 2.58 2.59l2.98-2.97 2.7 2.7z"/><path fill="url(#b)" d="M697.09 765.42a1.36 1.36 0 0 0-1.95-.01l-.02.02-7.35 7.36c-.63.62-1.13 1.72-.43 3.7.16.32.3.71.52 1.1a20.3 20.3 0 0 0 3.54 4.58 20.63 20.63 0 0 0 4.59 3.55 6.61 6.61 0 0 0 2.18.81c1.31.23 2.14-.2 2.6-.62l7.46-7.42a1.4 1.4 0 0 0-.04-1.97zm1.54 17.49c-.72-.24-2.44-1.12-4.62-3.3-2.16-2.17-3.11-3.93-3.31-4.6l5.41-5.41 2.62 2.63-2.97 2.97a1.83 1.83 0 0 0 2.58 2.59l2.98-2.97 2.7 2.7z" transform="translate(-674 -753)"/><path fill="#3b4047" d="M15.53 30.2a22.55 22.55 0 0 1-3.89-5.05c-.21-.39-.37-.76-.54-1.15l-9.61 9.61c-.41.41-.58 1-.45 1.57l1.5 6.61c.14.63.64 1.13 1.27 1.27l6.62 1.49c.56.13 1.15-.04 1.56-.45l9.55-9.55c-.33-.15-.63-.29-.96-.46a22.55 22.55 0 0 1-5.05-3.89z"/><path fill="url(#c)" d="M689.53 783.2a22.55 22.55 0 0 1-3.89-5.05c-.21-.39-.37-.76-.54-1.15l-9.61 9.61c-.41.41-.58 1-.45 1.57l1.5 6.61c.14.63.64 1.13 1.27 1.27l6.62 1.49c.56.13 1.15-.04 1.56-.45l9.55-9.55c-.33-.15-.63-.29-.96-.46a22.55 22.55 0 0 1-5.05-3.89z" transform="translate(-674 -753)"/></svg>