<svg xmlns="http://www.w3.org/2000/svg" width="45" height="39" viewBox="0 0 45 39"><defs><radialGradient id="a" cx="988.87" cy="788.92" r="23.94" gradientUnits="userSpaceOnUse"><stop offset="0" stop-color="#488baa" stop-opacity=".5"/><stop offset="1" stop-color="#88b1b7" stop-opacity="0"/></radialGradient><radialGradient id="b" cx="1001.17" cy="790.74" r="25.93" gradientUnits="userSpaceOnUse"><stop offset="0" stop-color="#488baa" stop-opacity=".5"/><stop offset="1" stop-color="#88b1b7" stop-opacity="0"/></radialGradient><radialGradient id="c" cx="1012.87" cy="789.83" r="24.94" gradientUnits="userSpaceOnUse"><stop offset="0" stop-color="#488baa" stop-opacity=".5"/><stop offset="1" stop-color="#88b1b7" stop-opacity="0"/></radialGradient><radialGradient id="d" cx="1008.01" cy="764.05" r="10.97" gradientUnits="userSpaceOnUse"><stop offset="0" stop-color="#488baa" stop-opacity=".5"/><stop offset="1" stop-color="#88b1b7" stop-opacity="0"/></radialGradient><radialGradient id="e" cx="1000.48" cy="765.05" r="10.97" gradientUnits="userSpaceOnUse"><stop offset="0" stop-color="#488baa" stop-opacity=".5"/><stop offset="1" stop-color="#88b1b7" stop-opacity="0"/></radialGradient><radialGradient id="f" cx="992.01" cy="764.05" r="10.97" gradientUnits="userSpaceOnUse"><stop offset="0" stop-color="#488baa" stop-opacity=".5"/><stop offset="1" stop-color="#88b1b7" stop-opacity="0"/></radialGradient><radialGradient id="g" cx="981.93" cy="764.13" r="9.97" gradientUnits="userSpaceOnUse"><stop offset="0" stop-color="#488baa" stop-opacity=".5"/><stop offset="1" stop-color="#88b1b7" stop-opacity="0"/></radialGradient><radialGradient id="h" cx="1015.93" cy="764.13" r="9.97" gradientUnits="userSpaceOnUse"><stop offset="0" stop-color="#488baa" stop-opacity=".5"/><stop offset="1" stop-color="#88b1b7" stop-opacity="0"/></radialGradient></defs><path fill="#43b9da" d="M8 0h29l8 12-22 27h-2L0 13z"/><path fill="#3b4047" d="M0 13l19.55 24.27L10.68 13z"/><path fill="url(#a)" d="M975 767l19.55 24.27-8.87-24.27z" transform="translate(-975 -754)"/><path fill="#3b4047" d="M13 13l9.45 25.86L32.08 13z"/><path fill="url(#b)" d="M988 767l9.45 25.86 9.63-25.86z" transform="translate(-975 -754)"/><path fill="#3b4047" d="M24 37.9L44.06 13H33.27z"/><path fill="url(#c)" d="M999 791.9l20.06-24.9h-10.79z" transform="translate(-975 -754)"/><path fill="#3b4047" d="M36.65 0H24l8.67 10.67z"/><path fill="url(#d)" d="M1011.65 754H999l8.67 10.67z" transform="translate(-975 -754)"/><path fill="#3b4047" d="M30.83 11.97L21.92 1 13 11.97z"/><path fill="url(#e)" d="M1005.83 765.97L996.92 755 988 765.97z" transform="translate(-975 -754)"/><path fill="#3b4047" d="M20.66 0H8l3.93 10.75z"/><path fill="url(#f)" d="M995.66 754H983l3.93 10.75z" transform="translate(-975 -754)"/><path fill="#3b4047" d="M6.51 1L0 11.42h10.32z"/><path fill="url(#g)" d="M981.51 755L975 765.42h10.32z" transform="translate(-975 -754)"/><path fill="#3b4047" d="M44.4 11.43L37.89 1 34 11.43z"/><path fill="url(#h)" d="M1019.4 765.43l-6.51-10.43-3.89 10.43z" transform="translate(-975 -754)"/></svg>