<svg xmlns="http://www.w3.org/2000/svg" width="45" height="41" viewBox="0 0 45 41"><defs><radialGradient id="a" cx="706.2" cy="962.44" r="40.9" gradientUnits="userSpaceOnUse"><stop offset="0" stop-color="#488baa" stop-opacity=".5"/><stop offset="1" stop-color="#88b1b7" stop-opacity="0"/></radialGradient></defs><path fill="#43b9da" d="M5 41V7h35v34z"/><path fill="#3b4047" d="M45 11.25V36a4.5 4.5 0 0 1-4.5 4.5h-2.25V6.75h2.25c2.48 0 4.5 2.03 4.5 4.5zM4.5 6.75h2.25V40.5H4.5A4.51 4.51 0 0 1 0 36V11.25c0-2.47 2.03-4.5 4.5-4.5zm25.65 0h4.95V40.5H9.9V6.75h4.95V2.04C16.38 1.33 18.83 0 22.5 0c3.67 0 6.12 1.33 7.65 2.04zm-2.7-3.01A12.72 12.72 0 0 0 22.5 2.7c-2.03 0-3.75.53-4.95 1.04v3.01h9.9z"/><path fill="url(#a)" d="M720 936.25V961a4.5 4.5 0 0 1-4.5 4.5h-2.25v-33.75h2.25c2.48 0 4.5 2.03 4.5 4.5zm-40.5-4.5h2.25v33.75h-2.25a4.51 4.51 0 0 1-4.5-4.5v-24.75c0-2.47 2.03-4.5 4.5-4.5zm25.65 0h4.95v33.75h-25.2v-33.75h4.95v-4.71c1.53-.71 3.98-2.04 7.65-2.04 3.67 0 6.12 1.33 7.65 2.04zm-2.7-3.01a12.72 12.72 0 0 0-4.95-1.04c-2.03 0-3.75.53-4.95 1.04v3.01h9.9z" transform="translate(-675 -925)"/></svg>